<svg width="310" height="74" viewBox="0 0 310 74" fill="none" xmlns="http://www.w3.org/2000/svg">
<path d="M15.0293 23.5586L9.36035 13.3193V2.68457L10.6348 2.06934V1.05859H0.878906V2.06934L2.90039 2.68457V59.374L0.878906 59.9893V61H10.6348V59.9893L9.36035 59.374V17.8018L15.0293 27.8652V59.374L13.7549 59.9893V61H23.4668V59.9893L21.4893 59.374V2.68457L23.4668 2.06934V1.05859H13.7549V2.06934L15.0293 2.68457V23.5586ZM47.1094 30.8535C47.0508 27.9238 46.5088 24.4082 45.4834 20.3066L41.8799 6.46387C41.4697 5.14551 41.2646 3.88574 41.2646 2.68457C41.2646 1.71777 41.5869 1.17578 42.2314 1.05859V0.179688C36.5479 1.55664 32.4756 5.1748 30.0146 11.0342C27.5537 16.9229 26.3525 23.7344 26.4111 31.4688C26.4111 33.9297 26.8945 37.0205 27.8613 40.7412L31.9043 56.5176C32.2559 57.8945 32.4316 58.876 32.4316 59.4619C32.4316 59.96 32.3438 60.3555 32.168 60.6484C31.9922 61 31.7285 61.2051 31.377 61.2637V62.1865C34.248 61.5713 36.709 60.2822 38.7598 58.3193C40.7227 56.3857 42.334 53.9541 43.5938 51.0244C45.9375 44.8428 47.1094 38.1191 47.1094 30.8535ZM36.5625 4.31055C36.1523 5.57031 35.9473 7.06445 35.9473 8.79297C35.9473 9.4668 36.0059 10.0967 36.123 10.6826C36.1816 11.3564 36.2988 12.2061 36.4746 13.2314L40.7373 31.6445C41.499 36.1562 41.8799 39.9648 41.8799 43.0703C41.8799 45.8535 41.5283 48.5928 40.8252 51.2881C40.0342 54.042 38.7744 56.2832 37.0459 58.0117C37.4561 56.957 37.6611 55.6094 37.6611 53.9688C37.6611 52.0645 37.3242 49.8232 36.6504 47.2451L32.8711 30.6777C32.1094 27.3086 31.6992 23.5293 31.6406 19.3398C31.6406 16.4688 32.0215 13.7002 32.7832 11.0342C33.5156 8.45605 34.7754 6.21484 36.5625 4.31055ZM72.5098 61V59.9893L70.5322 59.374V37.7969C71.0889 37.6797 71.6309 37.4893 72.1582 37.2256L71.543 35.9951C70.459 36.3467 69.3164 36.5225 68.1152 36.5225C65.5371 36.5225 63.2959 35.6582 61.3916 33.9297C59.458 32.3477 58.4619 30.2676 58.4033 27.6895C58.4033 25.4043 59.0039 23.5439 60.2051 22.1084C61.2891 20.6729 62.6074 19.6328 64.1602 18.9883C65.0098 18.6074 65.7861 18.2705 66.4893 17.9775C67.2217 17.6846 67.9102 17.333 68.5547 16.9229C69.2285 16.4248 69.7412 15.6924 70.0928 14.7256C70.3857 13.8467 70.5322 12.6162 70.5322 11.0342V8.26562C70.415 3.22656 67.3682 0.677734 61.3916 0.619141C55.0049 0.794922 51.8555 3.49023 51.9434 8.70508V59.374L49.9219 59.9893V61H72.5098ZM58.4033 59.374V32.6553C59.7217 34.8232 61.6113 36.376 64.0723 37.3135V59.374H58.4033ZM58.4033 22.0205V5.93652C58.4033 4.17871 58.7402 3.09473 59.4141 2.68457C60 2.3916 60.5566 2.24512 61.084 2.24512C61.6992 2.24512 62.3291 2.3916 62.9736 2.68457C63.6475 3.09473 64.0137 4.17871 64.0723 5.93652V13.583C64.0723 14.5498 63.8965 15.3848 63.5449 16.0879C63.1055 16.8203 62.5635 17.4795 61.9189 18.0654C61.3623 18.6807 60.7617 19.2812 60.1172 19.8672C59.4434 20.4824 58.8721 21.2002 58.4033 22.0205ZM95.0537 2.68457L97.0312 2.06934V1.05859H88.5938V3.2998C87.2754 1.4541 85.2979 0.560547 82.6611 0.619141C81.3428 0.619141 79.9951 1.13184 78.6182 2.15723C77.2412 3.24121 76.5234 4.88184 76.4648 7.0791C76.4648 8.16309 76.7871 9.10059 77.4316 9.8916C78.0469 10.7998 78.7646 11.2539 79.585 11.2539C81.6943 11.166 82.8076 10.1113 82.9248 8.08984C82.8662 5.98047 81.8994 4.89648 80.0244 4.83789C78.9111 4.89648 78.252 5.37988 78.0469 6.28809L77.7832 6.2002C77.959 4.99902 78.5596 4.03223 79.585 3.2998C80.5518 2.59668 81.665 2.24512 82.9248 2.24512C84.5947 2.24512 85.9717 2.75781 87.0557 3.7832C88.0811 4.7793 88.5938 6.03906 88.5938 7.5625C88.5938 8.88086 88.3008 9.8916 87.7148 10.5947C87.0996 11.3271 86.5576 11.8105 86.0889 12.0449C85.0049 12.6895 83.9209 13.2021 82.8369 13.583C81.6357 13.9932 80.5811 14.5059 79.6729 15.1211C78.6475 15.707 77.8711 16.4834 77.3438 17.4502C76.7578 18.417 76.4648 19.7061 76.4648 21.3174C76.377 22.8115 76.7285 24.2471 77.5195 25.624C78.3105 27.001 79.7168 27.7188 81.7383 27.7773C83.6133 27.7773 85.0635 27.3672 86.0889 26.5469C87.085 25.7559 87.9199 24.7305 88.5938 23.4707C86.9824 31.2637 83.1445 35.1895 77.0801 35.248C76.4648 35.248 76.0107 35.1016 75.7178 34.8086L75.2783 35.9072L76.4648 36.7861V59.374L74.4434 59.9893V61H84.1992V59.9893L82.9248 59.374V35.3359C84.0674 34.8672 85.1807 33.9736 86.2646 32.6553C87.29 31.4541 88.0664 30.1064 88.5938 28.6123V59.374L87.3193 59.9893V61H97.0312V59.9893L95.0537 59.374V2.68457ZM88.5938 12.3965V19.7793C88.5352 20.8633 88.1689 21.8887 87.4951 22.8555C87.1436 23.2656 86.792 23.6172 86.4404 23.9102C86.0303 24.291 85.5762 24.4814 85.0781 24.4814C84.6094 24.4814 84.1553 24.2617 83.7158 23.8223C83.1885 23.4121 82.9248 22.5186 82.9248 21.1416V20.1309C82.9248 17.9922 83.5254 16.4395 84.7266 15.4727C85.8691 14.5645 87.1582 13.5391 88.5938 12.3965ZM128.276 22.0205V2.68457L129.551 2.06934V1.05859H119.795V2.06934L121.816 2.68457V59.374L119.795 59.9893V61H129.551V59.9893L128.276 59.374V32.6553C129.595 34.8232 131.484 36.376 133.945 37.3135V59.374L132.671 59.9893V61H142.383V59.9893L140.405 59.374V37.7969C140.962 37.6797 141.504 37.4893 142.031 37.2256L141.416 35.9951C140.332 36.3467 139.189 36.5225 137.988 36.5225C135.41 36.5225 133.169 35.6582 131.265 33.9297C129.331 32.3477 128.335 30.2676 128.276 27.6895C128.335 24.7012 129.331 22.3721 131.265 20.7021C133.169 19.0029 135.41 18.1533 137.988 18.1533C139.248 18.1533 140.391 18.373 141.416 18.8125L142.031 17.626C141.562 17.333 141.021 17.1572 140.405 17.0986V2.68457L142.383 2.06934V1.05859H132.671V2.06934L133.945 2.68457V17.4502C131.484 18.417 129.595 19.9404 128.276 22.0205ZM166.025 30.8535C165.967 27.9238 165.425 24.4082 164.399 20.3066L160.796 6.46387C160.386 5.14551 160.181 3.88574 160.181 2.68457C160.181 1.71777 160.503 1.17578 161.147 1.05859V0.179688C155.464 1.55664 151.392 5.1748 148.931 11.0342C146.47 16.9229 145.269 23.7344 145.327 31.4688C145.327 33.9297 145.811 37.0205 146.777 40.7412L150.82 56.5176C151.172 57.8945 151.348 58.876 151.348 59.4619C151.348 59.96 151.26 60.3555 151.084 60.6484C150.908 61 150.645 61.2051 150.293 61.2637V62.1865C153.164 61.5713 155.625 60.2822 157.676 58.3193C159.639 56.3857 161.25 53.9541 162.51 51.0244C164.854 44.8428 166.025 38.1191 166.025 30.8535ZM155.479 4.31055C155.068 5.57031 154.863 7.06445 154.863 8.79297C154.863 9.4668 154.922 10.0967 155.039 10.6826C155.098 11.3564 155.215 12.2061 155.391 13.2314L159.653 31.6445C160.415 36.1562 160.796 39.9648 160.796 43.0703C160.796 45.8535 160.444 48.5928 159.741 51.2881C158.95 54.042 157.69 56.2832 155.962 58.0117C156.372 56.957 156.577 55.6094 156.577 53.9688C156.577 52.0645 156.24 49.8232 155.566 47.2451L151.787 30.6777C151.025 27.3086 150.615 23.5293 150.557 19.3398C150.557 16.4688 150.938 13.7002 151.699 11.0342C152.432 8.45605 153.691 6.21484 155.479 4.31055ZM184.087 1.05859V3.2998C182.769 1.4541 180.776 0.560547 178.11 0.619141C176.792 0.619141 175.444 1.13184 174.067 2.15723C172.69 3.24121 171.973 4.88184 171.914 7.0791C171.914 8.16309 172.251 9.10059 172.925 9.8916C173.511 10.7998 174.229 11.2539 175.078 11.2539C177.158 11.166 178.271 10.1113 178.418 8.08984C178.359 5.98047 177.393 4.89648 175.518 4.83789C174.375 4.89648 173.716 5.37988 173.54 6.28809L173.276 6.2002C173.452 4.99902 174.053 4.03223 175.078 3.2998C176.045 2.59668 177.158 2.24512 178.418 2.24512C179.971 2.24512 181.318 2.72852 182.461 3.69531C183.486 4.69141 184.028 5.87793 184.087 7.25488C184.028 10.6826 183.369 13.5391 182.109 15.8242C180.762 18.0508 179.253 20.2334 177.583 22.3721C175.913 24.4229 174.419 26.9424 173.101 29.9307C171.724 33.0068 171.006 37.0352 170.947 42.0156V59.374L168.97 60.1211V61H178.682V60.209L177.407 59.374V41.0049C177.524 33.7686 179.048 27.0889 181.978 20.9658L184.087 16.3516V59.374L182.812 60.209V61H192.524V60.1211L190.547 59.374V2.59668L192.524 2.06934V1.05859H184.087ZM216.035 25.4482V24.6572L215.024 24.0859V22.9434C215.024 21.0684 214.424 19.5303 213.223 18.3291C212.051 17.1279 210.498 16.498 208.564 16.4395C206.953 16.4395 205.693 16.835 204.785 17.626C203.818 18.4756 203.188 19.4717 202.896 20.6143V7.0791C202.896 5.76074 203.101 4.63281 203.511 3.69531C203.892 2.72852 204.58 2.24512 205.576 2.24512C207.041 2.24512 207.92 2.78711 208.213 3.87109C208.447 5.01367 208.564 6.71289 208.564 8.96875V11.1221L207.466 11.6934V12.4844H216.035V11.6934L215.024 11.1221V8.70508C215.024 6.36133 214.336 4.44238 212.959 2.94824C211.523 1.4541 209.165 0.677734 205.884 0.619141C202.339 0.677734 199.878 1.4834 198.501 3.03613C197.124 4.73535 196.436 6.99121 196.436 9.80371V34.0176C196.494 37.5332 197.388 40.4336 199.116 42.7188C200.786 45.0625 202.852 47.2305 205.312 49.2227C206.396 50.043 207.144 50.8486 207.554 51.6396C207.935 52.4307 208.125 53.3975 208.125 54.54C208.066 58.0557 206.499 59.8135 203.423 59.8135C202.104 59.8135 200.903 59.4326 199.819 58.6709C198.677 57.9385 197.988 56.9717 197.754 55.7705L198.018 55.6826C198.223 56.5908 198.882 57.0742 199.995 57.1328C201.87 57.1328 202.837 56.0488 202.896 53.8809C202.778 51.8594 201.665 50.8193 199.556 50.7607C198.735 50.7607 198.018 51.1416 197.402 51.9033C196.758 52.7529 196.436 53.749 196.436 54.8916C196.494 57.1182 197.329 58.7588 198.94 59.8135C200.435 60.8975 202.09 61.4395 203.906 61.4395C207.979 61.3809 210.879 60.1211 212.607 57.6602C214.219 55.3164 215.024 52.7383 215.024 49.9258V33.0068L216.123 32.04L215.684 31.0293H207.773L207.378 32.2158L208.564 33.0068V49.9258C207.891 48.9004 207.231 48.0068 206.587 47.2451C205.854 46.4541 205.225 45.5752 204.697 44.6084C203.496 42.9385 202.896 39.4375 202.896 34.1055V23.4707C203.13 22.2109 203.525 21.376 204.082 20.9658C204.551 20.585 205.151 20.3945 205.884 20.3945C207.495 20.3945 208.389 21.625 208.564 24.0859L207.466 24.6572V25.4482H216.035ZM227.417 22.0205V2.68457L228.691 2.06934V1.05859H218.936V2.06934L220.957 2.68457V59.374L218.936 59.9893V61H228.691V59.9893L227.417 59.374V32.6553C228.735 34.8232 230.625 36.376 233.086 37.3135V59.374L231.812 59.9893V61H241.523V59.9893L239.546 59.374V37.7969C240.103 37.6797 240.645 37.4893 241.172 37.2256L240.557 35.9951C239.473 36.3467 238.33 36.5225 237.129 36.5225C234.551 36.5225 232.31 35.6582 230.405 33.9297C228.472 32.3477 227.476 30.2676 227.417 27.6895C227.476 24.7012 228.472 22.3721 230.405 20.7021C232.31 19.0029 234.551 18.1533 237.129 18.1533C238.389 18.1533 239.531 18.373 240.557 18.8125L241.172 17.626C240.703 17.333 240.161 17.1572 239.546 17.0986V2.68457L241.523 2.06934V1.05859H231.812V2.06934L233.086 2.68457V17.4502C230.625 18.417 228.735 19.9404 227.417 22.0205ZM243.457 1.05859V2.06934L245.479 2.68457V59.374L243.457 59.9893V61H262.485V73.4365H264.067C264.009 70.3604 264.346 68.0459 265.078 66.4932C265.811 64.9404 267.334 63.1094 269.648 61L270.747 59.9893L270.308 58.9346C269.692 59.2275 269.238 59.374 268.945 59.374H264.067V2.68457L266.045 2.06934V1.05859H256.333V2.06934L257.607 2.68457V59.374H251.938V2.68457L253.213 2.06934V1.05859H243.457ZM273.472 1.05859V2.06934L275.449 2.68457V59.374L273.472 59.9893V61H283.931V59.9893L281.953 59.374V2.68457L283.931 2.06934V1.05859H273.472ZM296.543 61V59.9893L295.269 59.374V37.3135C297.729 36.3174 299.619 34.7939 300.938 32.7432V59.374L299.663 59.9893V61H309.375V59.9893L307.397 59.374V8.79297C307.456 3.51953 304.307 0.794922 297.949 0.619141C295.137 0.619141 292.925 1.24902 291.313 2.50879C289.644 3.88574 288.809 5.83398 288.809 8.35352V11.1221C288.809 13.7295 289.336 15.502 290.391 16.4395C291.416 17.4062 293.042 18.2559 295.269 18.9883C296.704 19.3984 297.993 20.3799 299.136 21.9326C300.278 23.4854 300.879 25.4043 300.938 27.6895C300.879 30.5898 299.795 32.7578 297.686 34.1934C295.664 35.7461 293.511 36.5225 291.226 36.5225C290.024 36.5225 288.882 36.3467 287.798 35.9951L287.183 37.2256C287.71 37.4893 288.252 37.6797 288.809 37.7969V59.374L286.787 59.9893V61H296.543ZM300.938 22.1084C300.645 21.2881 300.19 20.5703 299.575 19.9551C298.931 19.3691 298.271 18.7979 297.598 18.2412C296.104 17.1572 295.327 15.6338 295.269 13.6709V6.02441C295.269 4.2666 295.635 3.15332 296.367 2.68457C297.012 2.3916 297.642 2.24512 298.257 2.24512C299.019 2.24512 299.678 2.3916 300.234 2.68457C300.703 3.15332 300.938 4.2666 300.938 6.02441V22.1084Z" fill="url(#paint0_linear)"/>
<defs>
<linearGradient id="paint0_linear" x1="155.5" y1="-20" x2="155.5" y2="73" gradientUnits="userSpaceOnUse">
<stop stop-color="#CF1A20"/>
<stop offset="1" stop-color="#EE2A26"/>
</linearGradient>
</defs>
</svg>
