<svg width="30" height="31" viewBox="0 0 30 31" fill="none" xmlns="http://www.w3.org/2000/svg">
<path d="M29.0625 19.6145C28.545 19.6145 28.125 20.0345 28.125 20.552V27.1145H1.875V15.8645H12.1875C12.705 15.8645 13.125 15.4445 13.125 14.927C13.125 14.4095 12.705 13.9895 12.1875 13.9895H1.875V10.2395H12.1875C12.705 10.2395 13.125 9.8195 13.125 9.302C13.125 8.7845 12.705 8.3645 12.1875 8.3645H1.875C0.84 8.3645 0 9.2045 0 10.2395V27.1145C0 28.1495 0.84 28.9895 1.875 28.9895H28.125C29.16 28.9895 30 28.1495 30 27.1145V20.552C30 20.0345 29.58 19.6145 29.0625 19.6145Z" fill="url(#paint0_linear)"/>
<path d="M8.4375 19.6145H4.6875C4.17 19.6145 3.75 20.0345 3.75 20.552C3.75 21.0695 4.17 21.4895 4.6875 21.4895H8.4375C8.955 21.4895 9.375 21.0695 9.375 20.552C9.375 20.0345 8.955 19.6145 8.4375 19.6145Z" fill="url(#paint1_linear)"/>
<path d="M29.4319 5.62701L22.8694 2.81451C22.6312 2.71513 22.3669 2.71513 22.1287 2.81451L15.5663 5.62701C15.2231 5.77513 15 6.11451 15 6.48951V10.2395C15 15.3976 16.9069 18.4126 22.0331 21.3658C22.1775 21.4483 22.3387 21.4895 22.5 21.4895C22.6613 21.4895 22.8225 21.4483 22.9669 21.3658C28.0931 18.4201 30 15.4051 30 10.2395V6.48951C30 6.11451 29.7769 5.77513 29.4319 5.62701ZM28.125 10.2395C28.125 14.5689 26.6925 16.952 22.5 19.4645C18.3075 16.9464 16.875 14.5633 16.875 10.2395V7.10826L22.5 4.69701L28.125 7.10826V10.2395Z" fill="url(#paint2_linear)"/>
<path d="M25.8994 8.56887C25.4963 8.25012 24.9075 8.31199 24.5813 8.71512L21.6338 12.4014L20.4675 10.6576C20.1769 10.2264 19.5938 10.112 19.1681 10.397C18.7388 10.6839 18.6206 11.267 18.9075 11.6964L20.7825 14.5089C20.9494 14.7582 21.2231 14.912 21.5231 14.927C21.5363 14.927 21.5513 14.927 21.5625 14.927C21.8456 14.927 22.1156 14.7995 22.2956 14.5745L26.0456 9.88699C26.3681 9.48199 26.3044 8.89324 25.8994 8.56887Z" fill="url(#paint3_linear)"/>
<defs>
<linearGradient id="paint0_linear" x1="15" y1="8.3645" x2="15" y2="28.9895" gradientUnits="userSpaceOnUse">
<stop stop-color="#CF1A20"/>
<stop offset="1" stop-color="#EE2A26"/>
</linearGradient>
<linearGradient id="paint1_linear" x1="6.5625" y1="19.6145" x2="6.5625" y2="21.4895" gradientUnits="userSpaceOnUse">
<stop stop-color="#CF1A20"/>
<stop offset="1" stop-color="#EE2A26"/>
</linearGradient>
<linearGradient id="paint2_linear" x1="22.5" y1="2.73997" x2="22.5" y2="21.4895" gradientUnits="userSpaceOnUse">
<stop stop-color="#CF1A20"/>
<stop offset="1" stop-color="#EE2A26"/>
</linearGradient>
<linearGradient id="paint3_linear" x1="22.5008" y1="8.36568" x2="22.5008" y2="14.927" gradientUnits="userSpaceOnUse">
<stop stop-color="#CF1A20"/>
<stop offset="1" stop-color="#EE2A26"/>
</linearGradient>
</defs>
</svg>
