<svg width="30" height="31" viewBox="0 0 30 31" fill="none" xmlns="http://www.w3.org/2000/svg">
<g clip-path="url(#clip0)">
<path d="M4.15889 24.3915H4.15783C4.14468 24.3914 4.13139 24.3912 4.1179 24.3908C2.44747 24.3499 1.12091 23.013 1.16285 21.3966V16.9325C1.16285 15.2749 2.46486 13.8317 4.15889 13.8317H4.50441V12.1812C4.50441 6.49947 9.29036 1.9 15.1861 1.9C21.0818 1.9 25.8678 6.49947 25.8678 12.1812V13.8318C26.7487 13.8409 27.4899 14.3143 28.009 14.9727C28.5327 15.6368 28.838 16.4979 28.838 17.2896V21.755C28.838 22.4771 28.5775 23.0933 28.1062 23.5422C27.6449 23.9814 26.9885 24.2541 26.1935 24.3163L25.5153 25.2779L25.5124 25.2819L25.5123 25.2818C24.1151 27.0696 21.9332 28.1255 19.6141 28.1422C19.4938 28.7784 19.1788 29.3656 18.7092 29.8284L18.7092 29.8284C17.9859 30.5406 17.0004 30.9485 15.9673 30.9646L15.9658 30.9646C13.8784 30.9647 12.1738 29.3464 12.1529 27.329L12.1529 27.3272C12.167 25.6068 13.4297 24.1349 15.1747 23.7925C17.1866 23.3977 19.1564 24.6241 19.6102 26.549C21.3797 26.5337 23.0435 25.7377 24.1235 24.3915H23.4658H23.4614L23.4614 24.3914C23.4454 24.3907 23.4295 24.3895 23.4136 24.3879C22.9765 24.3429 22.653 23.9651 22.6975 23.536V14.789C22.6975 14.5559 22.7678 14.3206 22.8974 14.141C23.0278 13.9603 23.2226 13.8316 23.4658 13.8316H24.1826V12.1812C24.1826 7.40628 20.1584 3.52888 15.1861 3.52888C10.2138 3.52888 6.18956 7.40628 6.18956 12.1812V13.8316H6.9064C7.14954 13.8316 7.34435 13.9603 7.4748 14.1411C7.60437 14.3206 7.67471 14.5559 7.67471 14.789V23.536L4.15889 24.3915ZM4.15889 24.3915H6.9064V24.3916L6.91091 24.3914C7.35167 24.3715 7.69893 24.0102 7.67779 23.5769L4.15889 24.3915ZM2.84788 21.4029L2.848 21.4029V21.3979V16.9324C2.848 16.1518 3.41056 15.4606 4.15889 15.4606H5.98956V22.7626H4.16003C3.41271 22.7445 2.82851 22.1484 2.84648 21.4384L2.74651 21.4359L2.84647 21.4387C2.8468 21.4268 2.84727 21.4149 2.84788 21.4029ZM17.4922 28.6858L17.4901 28.6878C17.0981 29.0968 16.5464 29.332 15.9663 29.3358C14.8093 29.3176 13.8765 28.4304 13.8381 27.3263C13.8386 26.2219 14.7701 25.32 15.9278 25.3195C17.0861 25.319 18.0188 26.2211 18.0193 27.3263V27.3264V27.3264V27.3264V27.3264V27.3264V27.3265V27.3265V27.3265V27.3265V27.3265V27.3265V27.3266V27.3266V27.3266V27.3266V27.3266V27.3266V27.3267V27.3267V27.3267V27.3267V27.3267V27.3267V27.3268V27.3268V27.3268V27.3268V27.3268V27.3268V27.3269V27.3269V27.3269V27.3269V27.3269V27.3269V27.327V27.327V27.327V27.327V27.327V27.327V27.3271V27.3271V27.3271V27.3271V27.3271V27.3271V27.3271V27.3272V27.3272V27.3272V27.3272V27.3272V27.3272V27.3273V27.3273V27.3273V27.3273V27.3273V27.3273V27.3274V27.3274V27.3274V27.3274V27.3274V27.3274V27.3274V27.3275V27.3275V27.3275V27.3275V27.3275V27.3275V27.3276V27.3276V27.3276V27.3276V27.3276V27.3276V27.3277V27.3277V27.3277V27.3277V27.3277V27.3277V27.3278V27.3278V27.3278V27.3278V27.3278V27.3278V27.3279V27.3279V27.3279V27.3279V27.3279V27.3279V27.3279V27.328V27.328V27.328V27.328V27.328L18.1193 27.328H18.0191L18.0195 27.3339C18.0487 27.8349 17.8578 28.3255 17.4922 28.6858ZM27.1529 21.7552C27.1529 21.9788 27.0972 22.1491 27.0114 22.2804C26.9252 22.4122 26.8049 22.51 26.668 22.5821C26.3916 22.7275 26.0575 22.7626 25.842 22.7626H24.3826V15.4606H25.842C26.2024 15.4606 26.5285 15.7059 26.7703 16.0722C27.011 16.4367 27.1529 16.9 27.1529 17.2897V21.7552Z" fill="#CF1A20" stroke="url(#paint0_linear)" stroke-width="0.2"/>
</g>
<defs>
<linearGradient id="paint0_linear" x1="14.9999" y1="2" x2="14.9999" y2="30.8646" gradientUnits="userSpaceOnUse">
<stop stop-color="#CF1A20"/>
<stop offset="1" stop-color="#EE2A26"/>
</linearGradient>
<clipPath id="clip0">
<rect width="30" height="30" fill="white" transform="translate(0 0.864731)"/>
</clipPath>
</defs>
</svg>
