<svg width="30" height="31" viewBox="0 0 30 31" fill="none" xmlns="http://www.w3.org/2000/svg">
<g clip-path="url(#clip0)">
<path d="M9.69829 26.2906C9.57264 25.8218 9.09074 25.5437 8.6222 25.6693C8.15347 25.7949 7.8753 26.2767 8.00089 26.7454L8.08652 27.0651C5.20039 25.3145 3.09993 22.535 2.21105 19.2177C0.330132 12.1981 4.51078 4.95707 11.5303 3.07615C13.1519 2.64169 14.8116 2.51892 16.4633 2.71146C16.9453 2.76734 17.3816 2.42245 17.4377 1.94043C17.4939 1.45841 17.1487 1.02214 16.6667 0.965968C14.7935 0.747833 12.9124 0.886598 11.0756 1.37875C3.10175 3.51529 -1.62319 11.6974 0.51359 19.6725C1.5287 23.4608 3.93826 26.6295 7.24749 28.6104L6.86487 28.7129C6.39615 28.8385 6.11798 29.3203 6.24356 29.789C6.36903 30.2572 6.85052 30.5362 7.31965 30.4103L9.72008 29.7671C10.1888 29.6415 10.467 29.1598 10.3414 28.691L9.69829 26.2906ZM29.4864 12.0578C28.4801 8.30231 26.1041 5.15499 22.8391 3.17087L23.1936 3.07586C23.6623 2.95027 23.9405 2.46849 23.8149 1.99977C23.6893 1.53105 23.2073 1.25275 22.7388 1.37851L20.3384 2.02167C19.8697 2.14726 19.5915 2.62904 19.7171 3.09776L20.3603 5.49825C20.4857 5.96638 20.9672 6.24532 21.4363 6.1195C21.9051 5.99391 22.1832 5.51213 22.0577 5.04341L21.9648 4.69676C24.8244 6.4491 26.9053 9.21498 27.7889 12.5126C29.6698 19.5322 25.4892 26.7732 18.4696 28.6541C16.848 29.0886 15.1883 29.2114 13.5366 29.0188C13.0547 28.9633 12.6184 29.3078 12.5622 29.7898C12.506 30.2719 12.8512 30.7081 13.3332 30.7643C13.9066 30.8311 14.4806 30.8645 15.0541 30.8645C16.3538 30.8645 17.6499 30.693 18.9243 30.3515C26.8983 28.2149 31.6232 20.0328 29.4864 12.0578ZM7.09232 8.83605V22.8942C7.09232 23.3794 7.48571 23.7728 7.97095 23.7728H22.0291C22.5143 23.7728 22.9077 23.3794 22.9077 22.8942V8.83605C22.9077 8.35081 22.5143 7.95742 22.0291 7.95742H7.97095C7.48571 7.95742 7.09232 8.35081 7.09232 8.83605ZM14.1214 9.71468H15.8786V13.2292H14.1214V9.71468ZM8.84959 9.71468H12.3641V14.1078C12.3641 14.5931 12.7575 14.9865 13.2427 14.9865H16.7573C17.2425 14.9865 17.6359 14.5931 17.6359 14.1078V9.71468H21.1504V22.0155H8.84959V9.71468Z" fill="url(#paint0_linear)"/>
</g>
<defs>
<linearGradient id="paint0_linear" x1="15" y1="0.865875" x2="15" y2="30.8645" gradientUnits="userSpaceOnUse">
<stop stop-color="#CF1A20"/>
<stop offset="1" stop-color="#EE2A26"/>
</linearGradient>
<clipPath id="clip0">
<rect width="30" height="30" fill="white" transform="translate(0 0.864731)"/>
</clipPath>
</defs>
</svg>
