<svg width="257" height="256" viewBox="0 0 257 256" fill="none" xmlns="http://www.w3.org/2000/svg">
<path fill-rule="evenodd" clip-rule="evenodd" d="M89.4772 127.451L91.5308 125.403V114.871L88.9639 112.274L86.3602 114.871V125.403L88.9639 128L89.4772 127.451Z" fill="white" fill-opacity="0.5"/>
<path fill-rule="evenodd" clip-rule="evenodd" d="M83.4265 117.76L81.0796 120.137L83.6466 122.697H94.2445L96.8481 120.137L94.2445 117.577H83.6466L83.4265 117.76Z" fill="white" fill-opacity="0.5"/>
<path fill-rule="evenodd" clip-rule="evenodd" d="M120.978 96.0365L123.031 93.9885V83.4194L120.464 80.8594L117.897 83.4194V93.9885L120.464 96.5851L120.978 96.0365Z" fill="white" fill-opacity="0.5"/>
<path fill-rule="evenodd" clip-rule="evenodd" d="M114.964 86.345L112.58 88.7222L115.184 91.2822H125.745L128.349 88.7222L125.745 86.1256H115.184L114.964 86.345Z" fill="white" fill-opacity="0.5"/>
<path fill-rule="evenodd" clip-rule="evenodd" d="M89.4772 111.762L91.5308 109.714V99.1452L88.9639 96.5852L86.3602 99.1452V109.714L88.9639 112.274L89.4772 111.762Z" fill="white" fill-opacity="0.5"/>
<path fill-rule="evenodd" clip-rule="evenodd" d="M83.4265 102.071L81.0796 104.412L83.6466 107.008H94.2445L96.8481 104.412L94.2445 101.852H83.6466L83.4265 102.071Z" fill="white" fill-opacity="0.5"/>
<path fill-rule="evenodd" clip-rule="evenodd" d="M105.246 96.0365L107.299 93.9885V83.4194L104.696 80.8594L102.129 83.4194V93.9885L104.696 96.5851L105.246 96.0365Z" fill="white" fill-opacity="0.5"/>
<path fill-rule="evenodd" clip-rule="evenodd" d="M99.1951 86.345L96.8482 88.7222L99.4151 91.2822H110.013L112.58 88.7222L110.013 86.1256H99.4151L99.1951 86.345Z" fill="white" fill-opacity="0.5"/>
<path fill-rule="evenodd" clip-rule="evenodd" d="M97.3615 103.899L99.4151 101.851V91.2823L96.8481 88.7223L94.2445 91.2823V101.851L96.8481 104.411L97.3615 103.899Z" fill="white" fill-opacity="0.5"/>
<path fill-rule="evenodd" clip-rule="evenodd" d="M91.3108 94.2079L88.9639 96.585L91.5309 99.145H102.129L104.696 96.585L102.129 93.9884H91.5309L91.3108 94.2079Z" fill="white" fill-opacity="0.5"/>
<path fill-rule="evenodd" clip-rule="evenodd" d="M89.4772 96.0365L91.5308 93.9885V83.4194L88.9639 80.8594L86.3602 83.4194V93.9885L88.9639 96.5851L89.4772 96.0365Z" fill="white" fill-opacity="0.5"/>
<path fill-rule="evenodd" clip-rule="evenodd" d="M83.4265 86.345L81.0796 88.7222L83.6466 91.2822H94.2445L96.8481 88.7222L94.2445 86.1256H83.6466L83.4265 86.345Z" fill="white" fill-opacity="0.5"/>
<path fill-rule="evenodd" clip-rule="evenodd" d="M127.798 166.729L125.745 164.681H115.184L112.58 167.278L115.184 169.838H125.745L128.349 167.278L127.798 166.729Z" fill="white" fill-opacity="0.5"/>
<path fill-rule="evenodd" clip-rule="evenodd" d="M118.117 172.763L120.464 175.141L123.031 172.544V161.975L120.464 159.415L117.897 161.975V172.544L118.117 172.763Z" fill="white" fill-opacity="0.5"/>
<path fill-rule="evenodd" clip-rule="evenodd" d="M96.2981 135.314L94.2445 133.266H83.6466L81.0796 135.863L83.6466 138.423H94.2445L96.8481 135.863L96.2981 135.314Z" fill="white" fill-opacity="0.5"/>
<path fill-rule="evenodd" clip-rule="evenodd" d="M86.5802 141.349L88.9639 143.689L91.5308 141.129V130.56L88.9639 128L86.3602 130.56V141.129L86.5802 141.349Z" fill="white" fill-opacity="0.5"/>
<path fill-rule="evenodd" clip-rule="evenodd" d="M112.067 166.729L110.013 164.681H99.4151L96.8482 167.278L99.4151 169.838H110.013L112.58 167.278L112.067 166.729Z" fill="white" fill-opacity="0.5"/>
<path fill-rule="evenodd" clip-rule="evenodd" d="M102.349 172.763L104.696 175.141L107.299 172.544V161.975L104.696 159.415L102.129 161.975V172.544L102.349 172.763Z" fill="white" fill-opacity="0.5"/>
<path fill-rule="evenodd" clip-rule="evenodd" d="M96.2981 151.04L94.2445 148.992H83.6466L81.0796 151.552L83.6466 154.149H94.2445L96.8481 151.552L96.2981 151.04Z" fill="white" fill-opacity="0.5"/>
<path fill-rule="evenodd" clip-rule="evenodd" d="M86.5802 157.074L88.9639 159.415L91.5308 156.855V146.286L88.9639 143.689L86.3602 146.286V156.855L86.5802 157.074Z" fill="white" fill-opacity="0.5"/>
<path fill-rule="evenodd" clip-rule="evenodd" d="M104.182 158.903L102.129 156.855H91.5309L88.9639 159.415L91.5309 161.975H102.129L104.696 159.415L104.182 158.903Z" fill="white" fill-opacity="0.5"/>
<path fill-rule="evenodd" clip-rule="evenodd" d="M94.4645 164.901L96.8481 167.278L99.4151 164.681V154.149L96.8481 151.552L94.2445 154.149V164.681L94.4645 164.901Z" fill="white" fill-opacity="0.5"/>
<path fill-rule="evenodd" clip-rule="evenodd" d="M96.2981 166.729L94.2445 164.681H83.6466L81.0796 167.278L83.6466 169.838H94.2445L96.8481 167.278L96.2981 166.729Z" fill="white" fill-opacity="0.5"/>
<path fill-rule="evenodd" clip-rule="evenodd" d="M86.5802 172.763L88.9639 175.141L91.5308 172.544V161.975L88.9639 159.415L86.3602 161.975V172.544L86.5802 172.763Z" fill="white" fill-opacity="0.5"/>
<path fill-rule="evenodd" clip-rule="evenodd" d="M113.13 151.04L115.184 148.992V138.423L112.58 135.863L110.013 138.423V148.992L112.58 151.552L113.13 151.04Z" fill="white" fill-opacity="0.5"/>
<path fill-rule="evenodd" clip-rule="evenodd" d="M107.079 141.349L104.696 143.689L107.299 146.286H117.897L120.464 143.689L117.897 141.129H107.299L107.079 141.349Z" fill="white" fill-opacity="0.5"/>
<path fill-rule="evenodd" clip-rule="evenodd" d="M144.63 119.625L146.684 117.577V107.008L144.08 104.411L141.513 107.008V117.577L144.08 120.137L144.63 119.625Z" fill="white" fill-opacity="0.5"/>
<path fill-rule="evenodd" clip-rule="evenodd" d="M138.58 109.934L136.233 112.274L138.8 114.871H149.398L151.965 112.274L149.398 109.714H138.8L138.58 109.934Z" fill="white" fill-opacity="0.5"/>
<path fill-rule="evenodd" clip-rule="evenodd" d="M113.13 135.314L115.184 133.266V122.697L112.58 120.137L110.013 122.697V133.266L112.58 135.863L113.13 135.314Z" fill="white" fill-opacity="0.5"/>
<path fill-rule="evenodd" clip-rule="evenodd" d="M107.079 125.623L104.696 128L107.299 130.56H117.897L120.464 128L117.897 125.403H107.299L107.079 125.623Z" fill="white" fill-opacity="0.5"/>
<path fill-rule="evenodd" clip-rule="evenodd" d="M128.862 119.625L130.916 117.577V107.008L128.349 104.411L125.745 107.008V117.577L128.349 120.137L128.862 119.625Z" fill="white" fill-opacity="0.5"/>
<path fill-rule="evenodd" clip-rule="evenodd" d="M122.848 109.934L120.464 112.274L123.031 114.871H133.629L136.233 112.274L133.629 109.714H123.031L122.848 109.934Z" fill="white" fill-opacity="0.5"/>
<path fill-rule="evenodd" clip-rule="evenodd" d="M120.978 127.451L123.031 125.403V114.871L120.464 112.274L117.897 114.871V125.403L120.464 128L120.978 127.451Z" fill="white" fill-opacity="0.5"/>
<path fill-rule="evenodd" clip-rule="evenodd" d="M114.964 117.76L112.58 120.137L115.184 122.697H125.745L128.349 120.137L125.745 117.577H115.184L114.964 117.76Z" fill="white" fill-opacity="0.5"/>
<path fill-rule="evenodd" clip-rule="evenodd" d="M113.13 119.625L115.184 117.577V107.008L112.58 104.411L110.013 107.008V117.577L112.58 120.137L113.13 119.625Z" fill="white" fill-opacity="0.5"/>
<path fill-rule="evenodd" clip-rule="evenodd" d="M107.079 109.934L104.696 112.274L107.299 114.871H117.897L120.464 112.274L117.897 109.714H107.299L107.079 109.934Z" fill="white" fill-opacity="0.5"/>
<path fill-rule="evenodd" clip-rule="evenodd" d="M128.862 135.314L130.916 133.266V122.697L128.349 120.137L125.745 122.697V133.266L128.349 135.863L128.862 135.314Z" fill="white" fill-opacity="0.5"/>
<path fill-rule="evenodd" clip-rule="evenodd" d="M122.848 125.623L120.464 128L123.031 130.56H133.629L136.233 128L133.629 125.403H123.031L122.848 125.623Z" fill="white" fill-opacity="0.5"/>
<path fill-rule="evenodd" clip-rule="evenodd" d="M127.798 136.375L125.745 138.423V148.992L128.349 151.552L130.916 148.992V138.423L128.349 135.863L127.798 136.375Z" fill="white" fill-opacity="0.5"/>
<path fill-rule="evenodd" clip-rule="evenodd" d="M133.849 146.066L136.233 143.689L133.629 141.129H123.031L120.464 143.689L123.031 146.286H133.629L133.849 146.066Z" fill="white" fill-opacity="0.5"/>
<path fill-rule="evenodd" clip-rule="evenodd" d="M143.567 120.649L141.513 122.697V133.266L144.08 135.863L146.684 133.266V122.697L144.08 120.137L143.567 120.649Z" fill="white" fill-opacity="0.5"/>
<path fill-rule="evenodd" clip-rule="evenodd" d="M149.618 130.341L151.965 128L149.398 125.403H138.8L136.233 128L138.8 130.56H149.398L149.618 130.341Z" fill="white" fill-opacity="0.5"/>
<path fill-rule="evenodd" clip-rule="evenodd" d="M135.683 128.512L133.629 130.56V141.129L136.233 143.689L138.8 141.129V130.56L136.233 128L135.683 128.512Z" fill="white" fill-opacity="0.5"/>
<path fill-rule="evenodd" clip-rule="evenodd" d="M141.733 138.203L144.08 135.863L141.513 133.266H130.915L128.348 135.863L130.915 138.423H141.513L141.733 138.203Z" fill="white" fill-opacity="0.5"/>
<path fill-rule="evenodd" clip-rule="evenodd" d="M143.567 136.375L141.513 138.423V148.992L144.08 151.552L146.684 148.992V138.423L144.08 135.863L143.567 136.375Z" fill="white" fill-opacity="0.5"/>
<path fill-rule="evenodd" clip-rule="evenodd" d="M149.618 146.066L151.965 143.689L149.398 141.129H138.8L136.233 143.689L138.8 146.286H149.398L149.618 146.066Z" fill="white" fill-opacity="0.5"/>
<path fill-rule="evenodd" clip-rule="evenodd" d="M167.183 127.451L165.13 125.403V114.871L167.733 112.274L170.3 114.871V125.403L167.733 128L167.183 127.451Z" fill="white" fill-opacity="0.5"/>
<path fill-rule="evenodd" clip-rule="evenodd" d="M173.234 117.76L175.617 120.137L173.014 122.697H162.453L159.849 120.137L162.453 117.577H173.014L173.234 117.76Z" fill="white" fill-opacity="0.5"/>
<path fill-rule="evenodd" clip-rule="evenodd" d="M135.683 96.0365L133.629 93.9885V83.4194L136.233 80.8594L138.8 83.4194V93.9885L136.233 96.5851L135.683 96.0365Z" fill="white" fill-opacity="0.5"/>
<path fill-rule="evenodd" clip-rule="evenodd" d="M141.734 86.345L144.08 88.7222L141.513 91.2822H130.916L128.349 88.7222L130.916 86.1256H141.513L141.734 86.345Z" fill="white" fill-opacity="0.5"/>
<path fill-rule="evenodd" clip-rule="evenodd" d="M167.183 111.762L165.13 109.714V99.1451L167.733 96.5851L170.3 99.1451V109.714L167.733 112.274L167.183 111.762Z" fill="white" fill-opacity="0.5"/>
<path fill-rule="evenodd" clip-rule="evenodd" d="M173.234 102.071L175.617 104.411L173.014 107.008H162.453L159.849 104.411L162.453 101.851H173.014L173.234 102.071Z" fill="white" fill-opacity="0.5"/>
<path fill-rule="evenodd" clip-rule="evenodd" d="M151.451 96.0365L149.398 93.9885V83.4194L151.965 80.8594L154.568 83.4194V93.9885L151.965 96.5851L151.451 96.0365Z" fill="white" fill-opacity="0.5"/>
<path fill-rule="evenodd" clip-rule="evenodd" d="M157.502 86.345L159.849 88.7222L157.282 91.2822H146.684L144.08 88.7222L146.684 86.1256H157.282L157.502 86.345Z" fill="white" fill-opacity="0.5"/>
<path fill-rule="evenodd" clip-rule="evenodd" d="M159.336 103.899L157.282 101.851V91.2823L159.849 88.7223L162.453 91.2823V101.851L159.849 104.411L159.336 103.899Z" fill="white" fill-opacity="0.5"/>
<path fill-rule="evenodd" clip-rule="evenodd" d="M165.35 94.2079L167.733 96.585L165.13 99.145H154.568L151.965 96.585L154.568 93.9884H165.13L165.35 94.2079Z" fill="white" fill-opacity="0.5"/>
<path fill-rule="evenodd" clip-rule="evenodd" d="M167.183 96.0365L165.13 93.9885V83.4194L167.733 80.8594L170.3 83.4194V93.9885L167.733 96.5851L167.183 96.0365Z" fill="white" fill-opacity="0.5"/>
<path fill-rule="evenodd" clip-rule="evenodd" d="M173.234 86.345L175.617 88.7222L173.014 91.2822H162.453L159.849 88.7222L162.453 86.1256H173.014L173.234 86.345Z" fill="white" fill-opacity="0.5"/>
<path fill-rule="evenodd" clip-rule="evenodd" d="M128.862 166.729L130.916 164.681H141.513L144.08 167.278L141.513 169.838H130.916L128.349 167.278L128.862 166.729Z" fill="white" fill-opacity="0.5"/>
<path fill-rule="evenodd" clip-rule="evenodd" d="M138.58 172.763L136.233 175.141L133.629 172.544V162.011L136.233 159.415L138.8 162.011V172.544L138.58 172.763Z" fill="white" fill-opacity="0.5"/>
<path fill-rule="evenodd" clip-rule="evenodd" d="M160.362 135.314L162.453 133.266H173.014L175.617 135.863L173.014 138.423H162.453L159.849 135.863L160.362 135.314Z" fill="white" fill-opacity="0.5"/>
<path fill-rule="evenodd" clip-rule="evenodd" d="M170.08 141.349L167.733 143.689L165.13 141.129V130.56L167.733 128L170.3 130.56V141.129L170.08 141.349Z" fill="white" fill-opacity="0.5"/>
<path fill-rule="evenodd" clip-rule="evenodd" d="M144.63 166.729L146.684 164.681H157.282L159.849 167.278L157.282 169.838H146.684L144.08 167.278L144.63 166.729Z" fill="white" fill-opacity="0.5"/>
<path fill-rule="evenodd" clip-rule="evenodd" d="M154.348 172.763L151.965 175.141L149.398 172.544V162.011L151.965 159.415L154.568 162.011V172.544L154.348 172.763Z" fill="white" fill-opacity="0.5"/>
<path fill-rule="evenodd" clip-rule="evenodd" d="M160.362 151.04L162.453 148.992H173.014L175.617 151.552L173.014 154.149H162.453L159.849 151.552L160.362 151.04Z" fill="white" fill-opacity="0.5"/>
<path fill-rule="evenodd" clip-rule="evenodd" d="M170.08 157.074L167.733 159.415L165.13 156.855V146.286L167.733 143.689L170.3 146.286V156.855L170.08 157.074Z" fill="white" fill-opacity="0.5"/>
<path fill-rule="evenodd" clip-rule="evenodd" d="M152.515 158.903L154.568 156.855H165.13L167.733 159.415L165.13 162.011H154.568L151.965 159.415L152.515 158.903Z" fill="white" fill-opacity="0.5"/>
<path fill-rule="evenodd" clip-rule="evenodd" d="M162.233 164.901L159.849 167.278L157.282 164.681V154.149L159.849 151.552L162.453 154.149V164.681L162.233 164.901Z" fill="white" fill-opacity="0.5"/>
<path fill-rule="evenodd" clip-rule="evenodd" d="M160.362 166.729L162.453 164.681H173.014L175.617 167.278L173.014 169.838H162.453L159.849 167.278L160.362 166.729Z" fill="white" fill-opacity="0.5"/>
<path fill-rule="evenodd" clip-rule="evenodd" d="M170.08 172.763L167.733 175.141L165.13 172.544V162.011L167.733 159.415L170.3 162.011V172.544L170.08 172.763Z" fill="white" fill-opacity="0.5"/>
<path fill-rule="evenodd" clip-rule="evenodd" d="M190.836 88.1736L188.782 86.1256H178.184L175.618 88.7222L178.184 91.2822H188.782L191.349 88.7222L190.836 88.1736Z" fill="white" fill-opacity="0.5"/>
<path fill-rule="evenodd" clip-rule="evenodd" d="M181.118 94.2079L183.465 96.5851L186.069 93.9885V83.4193L183.465 80.8593L180.898 83.4193V93.9885L181.118 94.2079Z" fill="white" fill-opacity="0.5"/>
<path fill-rule="evenodd" clip-rule="evenodd" d="M198.72 80.3473L196.667 78.2628H186.069L183.465 80.8593L186.069 83.4193H196.667L199.234 80.8593L198.72 80.3473Z" fill="white" fill-opacity="0.5"/>
<path fill-rule="evenodd" clip-rule="evenodd" d="M189.002 86.345L191.349 88.7222L193.953 86.1256V75.593L191.349 72.9965L188.782 75.593V86.1256L189.002 86.345Z" fill="white" fill-opacity="0.5"/>
<path fill-rule="evenodd" clip-rule="evenodd" d="M206.568 72.4845L204.514 70.4365H193.953L191.349 72.9965L193.953 75.5931H204.514L207.118 72.9965L206.568 72.4845Z" fill="white" fill-opacity="0.5"/>
<path fill-rule="evenodd" clip-rule="evenodd" d="M196.887 78.4823L199.234 80.8594L201.837 78.2629V67.7303L199.234 65.1337L196.667 67.7303V78.2629L196.887 78.4823Z" fill="white" fill-opacity="0.5"/>
<path fill-rule="evenodd" clip-rule="evenodd" d="M190.836 72.4845L188.782 70.4365H178.184L175.618 72.9965L178.184 75.5931H188.782L191.349 72.9965L190.836 72.4845Z" fill="white" fill-opacity="0.5"/>
<path fill-rule="evenodd" clip-rule="evenodd" d="M181.118 78.4823L183.465 80.8594L186.069 78.2629V67.7303L183.465 65.1337L180.898 67.7303V78.2629L181.118 78.4823Z" fill="white" fill-opacity="0.5"/>
<path fill-rule="evenodd" clip-rule="evenodd" d="M175.067 72.4845L173.014 70.4365H162.453L159.849 72.9965L162.453 75.5931H173.014L175.617 72.9965L175.067 72.4845Z" fill="white" fill-opacity="0.5"/>
<path fill-rule="evenodd" clip-rule="evenodd" d="M165.35 78.4823L167.733 80.8594L170.3 78.2629V67.7303L167.733 65.1337L165.13 67.7303V78.2629L165.35 78.4823Z" fill="white" fill-opacity="0.5"/>
<path fill-rule="evenodd" clip-rule="evenodd" d="M182.952 64.6218L180.898 62.5738H170.3L167.733 65.1338L170.3 67.7304H180.898L183.465 65.1338L182.952 64.6218Z" fill="white" fill-opacity="0.5"/>
<path fill-rule="evenodd" clip-rule="evenodd" d="M173.234 70.656L175.617 72.9966L178.184 70.4366V59.8674L175.617 57.3074L173.014 59.8674V70.4366L173.234 70.656Z" fill="white" fill-opacity="0.5"/>
<path fill-rule="evenodd" clip-rule="evenodd" d="M190.836 56.7588L188.782 54.7108H178.184L175.618 57.3074L178.184 59.8674H188.782L191.349 57.3074L190.836 56.7588Z" fill="white" fill-opacity="0.5"/>
<path fill-rule="evenodd" clip-rule="evenodd" d="M181.118 62.7931L183.465 65.1336L186.069 62.5736V52.0045L183.465 49.4445L180.898 52.0045V62.5736L181.118 62.7931Z" fill="white" fill-opacity="0.5"/>
<path fill-rule="evenodd" clip-rule="evenodd" d="M64.7977 104.96L62.7441 107.008H52.1462L49.5792 104.412L52.1462 101.852H62.7441L65.3111 104.412L64.7977 104.96Z" fill="white" fill-opacity="0.5"/>
<path fill-rule="evenodd" clip-rule="evenodd" d="M55.0798 98.9258L57.4635 96.5852L60.0304 99.1452V109.714L57.4635 112.274L54.8598 109.714V99.1452L55.0798 98.9258Z" fill="white" fill-opacity="0.5"/>
<path fill-rule="evenodd" clip-rule="evenodd" d="M80.5662 120.649L78.5126 122.697H67.9147L65.3111 120.137L67.9147 117.577H78.5126L81.0796 120.137L80.5662 120.649Z" fill="white" fill-opacity="0.5"/>
<path fill-rule="evenodd" clip-rule="evenodd" d="M70.8484 114.652L73.1953 112.274L75.7989 114.871V125.404L73.1953 128L70.6283 125.404V114.871L70.8484 114.652Z" fill="white" fill-opacity="0.5"/>
<path fill-rule="evenodd" clip-rule="evenodd" d="M56.9134 112.823L54.8598 114.871H44.2619L41.6949 112.274L44.2619 109.714H54.8598L57.4635 112.274L56.9134 112.823Z" fill="white" fill-opacity="0.5"/>
<path fill-rule="evenodd" clip-rule="evenodd" d="M47.1956 106.789L49.5792 104.411L52.1462 107.008V117.577L49.5792 120.137L46.9756 117.577V107.008L47.1956 106.789Z" fill="white" fill-opacity="0.5"/>
<path fill-rule="evenodd" clip-rule="evenodd" d="M72.682 128.512L70.6284 130.56H60.0305L57.4635 128L60.0305 125.404H70.6284L73.1953 128L72.682 128.512Z" fill="white" fill-opacity="0.5"/>
<path fill-rule="evenodd" clip-rule="evenodd" d="M62.9641 122.514L65.311 120.137L67.9147 122.697V133.266L65.311 135.863L62.7441 133.266V122.697L62.9641 122.514Z" fill="white" fill-opacity="0.5"/>
<path fill-rule="evenodd" clip-rule="evenodd" d="M80.5662 136.375L78.5126 138.423H67.9147L65.3111 135.863L67.9147 133.266H78.5126L81.0796 135.863L80.5662 136.375Z" fill="white" fill-opacity="0.5"/>
<path fill-rule="evenodd" clip-rule="evenodd" d="M70.8484 130.341L73.1953 128L75.7989 130.56V141.129L73.1953 143.689L70.6283 141.129V130.56L70.8484 130.341Z" fill="white" fill-opacity="0.5"/>
<path fill-rule="evenodd" clip-rule="evenodd" d="M80.5662 152.101L78.5126 154.149H67.9147L65.3111 151.552L67.9147 148.992H78.5126L81.0796 151.552L80.5662 152.101Z" fill="white" fill-opacity="0.5"/>
<path fill-rule="evenodd" clip-rule="evenodd" d="M70.8484 146.066L73.1953 143.689L75.7989 146.286V156.855L73.1953 159.415L70.6283 156.855V146.286L70.8484 146.066Z" fill="white" fill-opacity="0.5"/>
<path fill-rule="evenodd" clip-rule="evenodd" d="M41.1815 128.512L39.0913 130.56H28.53L25.9264 128L28.53 125.404H39.0913L41.6949 128L41.1815 128.512Z" fill="white" fill-opacity="0.5"/>
<path fill-rule="evenodd" clip-rule="evenodd" d="M31.4637 122.514L33.8107 120.137L36.4143 122.697V133.266L33.8107 135.863L31.2437 133.266V122.697L31.4637 122.514Z" fill="white" fill-opacity="0.5"/>
<path fill-rule="evenodd" clip-rule="evenodd" d="M80.5662 104.96L78.5126 107.008H67.9147L65.3111 104.412L67.9147 101.852H78.5126L81.0796 104.412L80.5662 104.96Z" fill="white" fill-opacity="0.5"/>
<path fill-rule="evenodd" clip-rule="evenodd" d="M70.8484 98.9258L73.1953 96.5852L75.7989 99.1452V109.714L73.1953 112.274L70.6283 109.714V99.1452L70.8484 98.9258Z" fill="white" fill-opacity="0.5"/>
<path fill-rule="evenodd" clip-rule="evenodd" d="M56.9134 144.238L54.8598 146.286H44.2619L41.6949 143.689L44.2619 141.129H54.8598L57.4635 143.689L56.9134 144.238Z" fill="white" fill-opacity="0.5"/>
<path fill-rule="evenodd" clip-rule="evenodd" d="M47.1956 138.203L49.5792 135.863L52.1462 138.423V148.992L49.5792 151.552L46.9756 148.992V138.423L47.1956 138.203Z" fill="white" fill-opacity="0.5"/>
<path fill-rule="evenodd" clip-rule="evenodd" d="M64.7977 152.101L62.7441 154.149H52.1462L49.5792 151.552L52.1462 148.992H62.7441L65.3111 151.552L64.7977 152.101Z" fill="white" fill-opacity="0.5"/>
<path fill-rule="evenodd" clip-rule="evenodd" d="M55.0798 146.066L57.4635 143.689L60.0304 146.286V156.855L57.4635 159.415L54.8598 156.855V146.286L55.0798 146.066Z" fill="white" fill-opacity="0.5"/>
<path fill-rule="evenodd" clip-rule="evenodd" d="M56.9134 128.512L54.8598 130.56H44.2619L41.6949 128L44.2619 125.404H54.8598L57.4635 128L56.9134 128.512Z" fill="white" fill-opacity="0.5"/>
<path fill-rule="evenodd" clip-rule="evenodd" d="M47.1956 122.514L49.5792 120.137L52.1462 122.697V133.266L49.5792 135.863L46.9756 133.266V122.697L47.1956 122.514Z" fill="white" fill-opacity="0.5"/>
<path fill-rule="evenodd" clip-rule="evenodd" d="M104.696 65.1337L106.749 63.0857V52.5532L104.182 49.9566L101.615 52.5532V63.0857L104.182 65.6823L104.696 65.1337Z" fill="white" fill-opacity="0.5"/>
<path fill-rule="evenodd" clip-rule="evenodd" d="M98.6817 55.4424L96.2981 57.8195L98.9017 60.3795H109.463L112.067 57.8195L109.463 55.223H98.9017L98.6817 55.4424Z" fill="white" fill-opacity="0.5"/>
<path fill-rule="evenodd" clip-rule="evenodd" d="M120.464 80.8596L122.518 78.8116V68.2425L119.951 65.6825L117.347 68.2425V78.8116L119.951 81.3716L120.464 80.8596Z" fill="white" fill-opacity="0.5"/>
<path fill-rule="evenodd" clip-rule="evenodd" d="M114.414 71.1682L112.067 73.5454L114.634 76.1054H125.232L127.799 73.5454L125.232 70.9488H114.634L114.414 71.1682Z" fill="white" fill-opacity="0.5"/>
<path fill-rule="evenodd" clip-rule="evenodd" d="M112.58 57.3076L114.634 55.2231V44.6905L112.067 42.0939L109.463 44.6905V55.2231L112.067 57.8196L112.58 57.3076Z" fill="white" fill-opacity="0.5"/>
<path fill-rule="evenodd" clip-rule="evenodd" d="M106.566 47.6162L104.182 49.9568L106.749 52.5533H117.347L119.951 49.9568L117.347 47.3968H106.749L106.566 47.6162Z" fill="white" fill-opacity="0.5"/>
<path fill-rule="evenodd" clip-rule="evenodd" d="M128.348 72.9965L130.402 70.9485V60.3794L127.798 57.8194L125.231 60.3794V70.9485L127.798 73.5451L128.348 72.9965Z" fill="white" fill-opacity="0.5"/>
<path fill-rule="evenodd" clip-rule="evenodd" d="M122.298 63.3051L119.951 65.6822L122.518 68.2422H133.116L135.683 65.6822L133.116 63.0857H122.518L122.298 63.3051Z" fill="white" fill-opacity="0.5"/>
<path fill-rule="evenodd" clip-rule="evenodd" d="M136.233 80.8596L138.286 78.8116V68.2425L135.683 65.6825L133.116 68.2425V78.8116L135.683 81.3716L136.233 80.8596Z" fill="white" fill-opacity="0.5"/>
<path fill-rule="evenodd" clip-rule="evenodd" d="M130.182 71.1682L127.799 73.5454L130.402 76.1054H141L143.567 73.5454L141 70.9488H130.402L130.182 71.1682Z" fill="white" fill-opacity="0.5"/>
<path fill-rule="evenodd" clip-rule="evenodd" d="M151.965 80.8596L154.018 78.8116V68.2425L151.451 65.6825L148.848 68.2425V78.8116L151.451 81.3716L151.965 80.8596Z" fill="white" fill-opacity="0.5"/>
<path fill-rule="evenodd" clip-rule="evenodd" d="M145.951 71.1682L143.567 73.5454L146.171 76.1054H156.732L159.336 73.5454L156.732 70.9488H146.171L145.951 71.1682Z" fill="white" fill-opacity="0.5"/>
<path fill-rule="evenodd" clip-rule="evenodd" d="M128.348 41.5818L130.402 39.5338V28.9647L127.798 26.4047L125.231 28.9647V39.5338L127.798 42.0938L128.348 41.5818Z" fill="white" fill-opacity="0.5"/>
<path fill-rule="evenodd" clip-rule="evenodd" d="M122.298 31.8905L119.951 34.2676L122.518 36.8276H133.116L135.683 34.2676L133.116 31.671H122.518L122.298 31.8905Z" fill="white" fill-opacity="0.5"/>
<path fill-rule="evenodd" clip-rule="evenodd" d="M104.696 80.8596L106.749 78.8116V68.2425L104.182 65.6825L101.615 68.2425V78.8116L104.182 81.3716L104.696 80.8596Z" fill="white" fill-opacity="0.5"/>
<path fill-rule="evenodd" clip-rule="evenodd" d="M98.6817 71.1682L96.2981 73.5454L98.9017 76.1054H109.463L112.067 73.5454L109.463 70.9488H98.9017L98.6817 71.1682Z" fill="white" fill-opacity="0.5"/>
<path fill-rule="evenodd" clip-rule="evenodd" d="M144.08 57.3076L146.171 55.2231V44.6905L143.567 42.0939L141 44.6905V55.2231L143.567 57.8196L144.08 57.3076Z" fill="white" fill-opacity="0.5"/>
<path fill-rule="evenodd" clip-rule="evenodd" d="M138.066 47.6162L135.683 49.9568L138.286 52.5533H148.848L151.451 49.9568L148.848 47.3968H138.286L138.066 47.6162Z" fill="white" fill-opacity="0.5"/>
<path fill-rule="evenodd" clip-rule="evenodd" d="M151.965 65.1337L154.018 63.0857V52.5532L151.451 49.9566L148.848 52.5532V63.0857L151.451 65.6823L151.965 65.1337Z" fill="white" fill-opacity="0.5"/>
<path fill-rule="evenodd" clip-rule="evenodd" d="M145.951 55.4424L143.567 57.8195L146.171 60.3795H156.732L159.336 57.8195L156.732 55.223H146.171L145.951 55.4424Z" fill="white" fill-opacity="0.5"/>
<path fill-rule="evenodd" clip-rule="evenodd" d="M128.348 57.3076L130.402 55.2231V44.6905L127.798 42.0939L125.231 44.6905V55.2231L127.798 57.8196L128.348 57.3076Z" fill="white" fill-opacity="0.5"/>
<path fill-rule="evenodd" clip-rule="evenodd" d="M122.298 47.6162L119.951 49.9568L122.518 52.5533H133.116L135.683 49.9568L133.116 47.3968H122.518L122.298 47.6162Z" fill="white" fill-opacity="0.5"/>
<path fill-rule="evenodd" clip-rule="evenodd" d="M151.451 191.378L149.398 193.426V203.959L151.965 206.556L154.568 203.959V193.426L151.965 190.83L151.451 191.378Z" fill="white" fill-opacity="0.5"/>
<path fill-rule="evenodd" clip-rule="evenodd" d="M157.502 201.07L159.849 198.693L157.282 196.133H146.684L144.08 198.693L146.684 201.289H157.282L157.502 201.07Z" fill="white" fill-opacity="0.5"/>
<path fill-rule="evenodd" clip-rule="evenodd" d="M135.683 175.653L133.629 177.701V188.27L136.233 190.83L138.8 188.27V177.701L136.233 175.141L135.683 175.653Z" fill="white" fill-opacity="0.5"/>
<path fill-rule="evenodd" clip-rule="evenodd" d="M141.734 185.344L144.081 182.967L141.514 180.407H130.916L128.349 182.967L130.916 185.563H141.514L141.734 185.344Z" fill="white" fill-opacity="0.5"/>
<path fill-rule="evenodd" clip-rule="evenodd" d="M143.567 199.204L141.513 201.289V211.822L144.08 214.418L146.684 211.822V201.289L144.08 198.692L143.567 199.204Z" fill="white" fill-opacity="0.5"/>
<path fill-rule="evenodd" clip-rule="evenodd" d="M149.618 208.896L151.965 206.555L149.398 203.959H138.8L136.233 206.555L138.8 209.115H149.398L149.618 208.896Z" fill="white" fill-opacity="0.5"/>
<path fill-rule="evenodd" clip-rule="evenodd" d="M127.799 183.515L125.745 185.563V196.133L128.349 198.693L130.916 196.133V185.563L128.349 182.967L127.799 183.515Z" fill="white" fill-opacity="0.5"/>
<path fill-rule="evenodd" clip-rule="evenodd" d="M133.849 193.207L136.233 190.83L133.629 188.27H123.031L120.464 190.83L123.031 193.426H133.629L133.849 193.207Z" fill="white" fill-opacity="0.5"/>
<path fill-rule="evenodd" clip-rule="evenodd" d="M119.951 175.653L117.897 177.701V188.27L120.464 190.83L123.031 188.27V177.701L120.464 175.141L119.951 175.653Z" fill="white" fill-opacity="0.5"/>
<path fill-rule="evenodd" clip-rule="evenodd" d="M125.965 185.344L128.349 182.967L125.745 180.407H115.184L112.58 182.967L115.184 185.563H125.745L125.965 185.344Z" fill="white" fill-opacity="0.5"/>
<path fill-rule="evenodd" clip-rule="evenodd" d="M104.182 175.653L102.129 177.701V188.27L104.696 190.83L107.299 188.27V177.701L104.696 175.141L104.182 175.653Z" fill="white" fill-opacity="0.5"/>
<path fill-rule="evenodd" clip-rule="evenodd" d="M110.233 185.344L112.58 182.967L110.013 180.407H99.4151L96.8482 182.967L99.4151 185.563H110.013L110.233 185.344Z" fill="white" fill-opacity="0.5"/>
<path fill-rule="evenodd" clip-rule="evenodd" d="M127.799 214.93L125.745 216.978V227.547L128.349 230.107L130.916 227.547V216.978L128.349 214.418L127.799 214.93Z" fill="white" fill-opacity="0.5"/>
<path fill-rule="evenodd" clip-rule="evenodd" d="M133.849 224.622L136.233 222.281L133.629 219.685H123.031L120.464 222.281L123.031 224.841H133.629L133.849 224.622Z" fill="white" fill-opacity="0.5"/>
<path fill-rule="evenodd" clip-rule="evenodd" d="M151.451 175.653L149.398 177.701V188.27L151.965 190.83L154.568 188.27V177.701L151.965 175.141L151.451 175.653Z" fill="white" fill-opacity="0.5"/>
<path fill-rule="evenodd" clip-rule="evenodd" d="M157.502 185.344L159.849 182.967L157.282 180.407H146.684L144.08 182.967L146.684 185.563H157.282L157.502 185.344Z" fill="white" fill-opacity="0.5"/>
<path fill-rule="evenodd" clip-rule="evenodd" d="M112.067 199.204L110.013 201.289V211.822L112.58 214.418L115.184 211.822V201.289L112.58 198.692L112.067 199.204Z" fill="white" fill-opacity="0.5"/>
<path fill-rule="evenodd" clip-rule="evenodd" d="M118.117 208.896L120.464 206.555L117.897 203.959H107.299L104.696 206.555L107.299 209.115H117.897L118.117 208.896Z" fill="white" fill-opacity="0.5"/>
<path fill-rule="evenodd" clip-rule="evenodd" d="M104.182 191.378L102.129 193.426V203.959L104.696 206.556L107.299 203.959V193.426L104.696 190.83L104.182 191.378Z" fill="white" fill-opacity="0.5"/>
<path fill-rule="evenodd" clip-rule="evenodd" d="M110.233 201.07L112.58 198.693L110.013 196.133H99.4151L96.8482 198.693L99.4151 201.289H110.013L110.233 201.07Z" fill="white" fill-opacity="0.5"/>
<path fill-rule="evenodd" clip-rule="evenodd" d="M127.799 199.204L125.745 201.289V211.822L128.349 214.418L130.916 211.822V201.289L128.349 198.692L127.799 199.204Z" fill="white" fill-opacity="0.5"/>
<path fill-rule="evenodd" clip-rule="evenodd" d="M133.849 208.896L136.233 206.555L133.629 203.959H123.031L120.464 206.555L123.031 209.115H133.629L133.849 208.896Z" fill="white" fill-opacity="0.5"/>
<path fill-rule="evenodd" clip-rule="evenodd" d="M191.349 151.552L193.403 149.504H204.001L206.605 152.101L204.001 154.661H193.403L190.836 152.101L191.349 151.552Z" fill="white" fill-opacity="0.5"/>
<path fill-rule="evenodd" clip-rule="evenodd" d="M201.067 157.586L198.72 159.927L196.117 157.367V146.798L198.72 144.238L201.287 146.798V157.367L201.067 157.586Z" fill="white" fill-opacity="0.5"/>
<path fill-rule="evenodd" clip-rule="evenodd" d="M175.618 135.863L177.671 133.815H188.232L190.836 136.375L188.232 138.935H177.671L175.067 136.375L175.618 135.863Z" fill="white" fill-opacity="0.5"/>
<path fill-rule="evenodd" clip-rule="evenodd" d="M185.335 141.861L182.952 144.238L180.385 141.641V131.109L182.952 128.512L185.555 131.109V141.641L185.335 141.861Z" fill="white" fill-opacity="0.5"/>
<path fill-rule="evenodd" clip-rule="evenodd" d="M199.234 143.689L201.287 141.641H211.885L214.452 144.238L211.885 146.798H201.287L198.72 144.238L199.234 143.689Z" fill="white" fill-opacity="0.5"/>
<path fill-rule="evenodd" clip-rule="evenodd" d="M208.951 149.724L206.604 152.101L204.001 149.504V138.935L206.604 136.375L209.171 138.935V149.504L208.951 149.724Z" fill="white" fill-opacity="0.5"/>
<path fill-rule="evenodd" clip-rule="evenodd" d="M183.465 128L185.555 125.952H196.117L198.72 128.512L196.117 131.108H185.555L182.952 128.512L183.465 128Z" fill="white" fill-opacity="0.5"/>
<path fill-rule="evenodd" clip-rule="evenodd" d="M193.183 134.034L190.836 136.375L188.232 133.815V123.246L190.836 120.649L193.403 123.246V133.815L193.183 134.034Z" fill="white" fill-opacity="0.5"/>
<path fill-rule="evenodd" clip-rule="evenodd" d="M175.618 120.137L177.671 118.089H188.232L190.836 120.649L188.232 123.246H177.671L175.067 120.649L175.618 120.137Z" fill="white" fill-opacity="0.5"/>
<path fill-rule="evenodd" clip-rule="evenodd" d="M185.335 126.171L182.952 128.512L180.385 125.952V115.383L182.952 112.823L185.555 115.383V125.952L185.335 126.171Z" fill="white" fill-opacity="0.5"/>
<path fill-rule="evenodd" clip-rule="evenodd" d="M175.618 104.411L177.671 102.363H188.232L190.836 104.96L188.232 107.52H177.671L175.067 104.96L175.618 104.411Z" fill="white" fill-opacity="0.5"/>
<path fill-rule="evenodd" clip-rule="evenodd" d="M185.335 110.446L182.952 112.823L180.385 110.226V99.6573L182.952 97.0973L185.555 99.6573V110.226L185.335 110.446Z" fill="white" fill-opacity="0.5"/>
<path fill-rule="evenodd" clip-rule="evenodd" d="M215.002 128L217.056 125.952H227.617L230.221 128.512L227.617 131.108H217.056L214.452 128.512L215.002 128Z" fill="white" fill-opacity="0.5"/>
<path fill-rule="evenodd" clip-rule="evenodd" d="M224.72 134.034L222.336 136.375L219.769 133.815V123.246L222.336 120.649L224.94 123.246V133.815L224.72 134.034Z" fill="white" fill-opacity="0.5"/>
<path fill-rule="evenodd" clip-rule="evenodd" d="M175.618 151.552L177.671 149.504H188.232L190.836 152.101L188.232 154.661H177.671L175.067 152.101L175.618 151.552Z" fill="white" fill-opacity="0.5"/>
<path fill-rule="evenodd" clip-rule="evenodd" d="M185.335 157.586L182.952 159.927L180.385 157.367V146.798L182.952 144.238L185.555 146.798V157.367L185.335 157.586Z" fill="white" fill-opacity="0.5"/>
<path fill-rule="evenodd" clip-rule="evenodd" d="M199.234 112.274L201.287 110.226H211.885L214.452 112.823L211.885 115.383H201.287L198.72 112.823L199.234 112.274Z" fill="white" fill-opacity="0.5"/>
<path fill-rule="evenodd" clip-rule="evenodd" d="M208.951 118.309L206.604 120.649L204.001 118.089V107.52L206.604 104.96L209.171 107.52V118.089L208.951 118.309Z" fill="white" fill-opacity="0.5"/>
<path fill-rule="evenodd" clip-rule="evenodd" d="M191.349 104.411L193.403 102.363H204.001L206.605 104.96L204.001 107.52H193.403L190.836 104.96L191.349 104.411Z" fill="white" fill-opacity="0.5"/>
<path fill-rule="evenodd" clip-rule="evenodd" d="M201.067 110.446L198.72 112.823L196.117 110.226V99.6573L198.72 97.0973L201.287 99.6573V110.226L201.067 110.446Z" fill="white" fill-opacity="0.5"/>
<path fill-rule="evenodd" clip-rule="evenodd" d="M199.234 128L201.287 125.952H211.885L214.452 128.512L211.885 131.108H201.287L198.72 128.512L199.234 128Z" fill="white" fill-opacity="0.5"/>
<path fill-rule="evenodd" clip-rule="evenodd" d="M208.951 134.034L206.604 136.375L204.001 133.815V123.246L206.604 120.649L209.171 123.246V133.815L208.951 134.034Z" fill="white" fill-opacity="0.5"/>
<path fill-rule="evenodd" clip-rule="evenodd" d="M80.5663 198.18L78.5127 196.132H67.9148L65.3112 198.692L67.9148 201.289H78.5127L81.0797 198.692L80.5663 198.18Z" fill="white" fill-opacity="0.5"/>
<path fill-rule="evenodd" clip-rule="evenodd" d="M70.8485 204.178L73.1954 206.555L75.7991 203.959V193.426L73.1954 190.83L70.6284 193.426V203.959L70.8485 204.178Z" fill="white" fill-opacity="0.5"/>
<path fill-rule="evenodd" clip-rule="evenodd" d="M88.4139 190.318L86.3603 188.27H75.799L73.1954 190.83L75.799 193.426H86.3603L88.9639 190.83L88.4139 190.318Z" fill="white" fill-opacity="0.5"/>
<path fill-rule="evenodd" clip-rule="evenodd" d="M78.696 196.352L81.0797 198.692L83.6466 196.132V185.563L81.0797 182.967L78.5127 185.563V196.132L78.696 196.352Z" fill="white" fill-opacity="0.5"/>
<path fill-rule="evenodd" clip-rule="evenodd" d="M96.2982 182.455L94.2446 180.407H83.6467L81.0797 182.967L83.6467 185.563H94.2446L96.8483 182.967L96.2982 182.455Z" fill="white" fill-opacity="0.5"/>
<path fill-rule="evenodd" clip-rule="evenodd" d="M86.5804 188.489L88.964 190.829L91.5309 188.269V177.7L88.964 175.14L86.3603 177.7V188.269L86.5804 188.489Z" fill="white" fill-opacity="0.5"/>
<path fill-rule="evenodd" clip-rule="evenodd" d="M80.5663 182.455L78.5127 180.407H67.9148L65.3112 182.967L67.9148 185.563H78.5127L81.0797 182.967L80.5663 182.455Z" fill="white" fill-opacity="0.5"/>
<path fill-rule="evenodd" clip-rule="evenodd" d="M70.8485 188.489L73.1954 190.829L75.7991 188.269V177.7L73.1954 175.14L70.6284 177.7V188.269L70.8485 188.489Z" fill="white" fill-opacity="0.5"/>
<path fill-rule="evenodd" clip-rule="evenodd" d="M64.7978 182.455L62.7442 180.407H52.1463L49.5793 182.967L52.1463 185.563H62.7442L65.3111 182.967L64.7978 182.455Z" fill="white" fill-opacity="0.5"/>
<path fill-rule="evenodd" clip-rule="evenodd" d="M55.0799 188.489L57.4635 190.829L60.0305 188.269V177.7L57.4635 175.14L54.8599 177.7V188.269L55.0799 188.489Z" fill="white" fill-opacity="0.5"/>
<path fill-rule="evenodd" clip-rule="evenodd" d="M72.682 174.592L70.6285 172.544H60.0305L57.4636 175.14L60.0305 177.7H70.6285L73.1954 175.14L72.682 174.592Z" fill="white" fill-opacity="0.5"/>
<path fill-rule="evenodd" clip-rule="evenodd" d="M62.9642 180.626L65.3111 182.967L67.9148 180.407V169.838L65.3111 167.278L62.7442 169.838V180.407L62.9642 180.626Z" fill="white" fill-opacity="0.5"/>
<path fill-rule="evenodd" clip-rule="evenodd" d="M80.5663 166.729L78.5127 164.681H67.9148L65.3112 167.278L67.9148 169.838H78.5127L81.0797 167.278L80.5663 166.729Z" fill="white" fill-opacity="0.5"/>
<path fill-rule="evenodd" clip-rule="evenodd" d="M70.8485 172.763L73.1954 175.14L75.7991 172.544V161.975L73.1954 159.415L70.6284 161.975V172.544L70.8485 172.763Z" fill="white" fill-opacity="0.5"/>
<path fill-rule="evenodd" clip-rule="evenodd" d="M168.247 190.317L170.3 188.269V177.7L167.733 175.14L165.13 177.7V188.269L167.733 190.829L168.247 190.317Z" fill="white" fill-opacity="0.5"/>
<path fill-rule="evenodd" clip-rule="evenodd" d="M162.233 180.626L159.849 182.967L162.453 185.563H173.014L175.617 182.967L173.014 180.407H162.453L162.233 180.626Z" fill="white" fill-opacity="0.5"/>
<path fill-rule="evenodd" clip-rule="evenodd" d="M176.131 198.18L178.184 196.132V185.563L175.617 182.967L173.014 185.563V196.132L175.617 198.692L176.131 198.18Z" fill="white" fill-opacity="0.5"/>
<path fill-rule="evenodd" clip-rule="evenodd" d="M170.08 188.489L167.733 190.83L170.3 193.426H180.898L183.465 190.83L180.898 188.27H170.3L170.08 188.489Z" fill="white" fill-opacity="0.5"/>
<path fill-rule="evenodd" clip-rule="evenodd" d="M184.015 206.007L186.069 203.959V193.426L183.465 190.83L180.898 193.426V203.959L183.465 206.555L184.015 206.007Z" fill="white" fill-opacity="0.5"/>
<path fill-rule="evenodd" clip-rule="evenodd" d="M177.964 196.352L175.618 198.692L178.184 201.289H188.782L191.349 198.692L188.782 196.132H178.184L177.964 196.352Z" fill="white" fill-opacity="0.5"/>
<path fill-rule="evenodd" clip-rule="evenodd" d="M184.015 190.317L186.069 188.269V177.7L183.465 175.14L180.898 177.7V188.269L183.465 190.829L184.015 190.317Z" fill="white" fill-opacity="0.5"/>
<path fill-rule="evenodd" clip-rule="evenodd" d="M177.964 180.626L175.618 182.967L178.184 185.563H188.782L191.349 182.967L188.782 180.407H178.184L177.964 180.626Z" fill="white" fill-opacity="0.5"/>
<path fill-rule="evenodd" clip-rule="evenodd" d="M184.015 174.592L186.069 172.544V161.975L183.465 159.415L180.898 161.975V172.544L183.465 175.14L184.015 174.592Z" fill="white" fill-opacity="0.5"/>
<path fill-rule="evenodd" clip-rule="evenodd" d="M177.964 164.901L175.618 167.278L178.184 169.838H188.782L191.349 167.278L188.782 164.681H178.184L177.964 164.901Z" fill="white" fill-opacity="0.5"/>
<path fill-rule="evenodd" clip-rule="evenodd" d="M191.899 182.455L193.953 180.407V169.838L191.349 167.278L188.782 169.838V180.407L191.349 182.967L191.899 182.455Z" fill="white" fill-opacity="0.5"/>
<path fill-rule="evenodd" clip-rule="evenodd" d="M185.849 172.763L183.465 175.14L186.069 177.7H196.667L199.234 175.14L196.667 172.544H186.069L185.849 172.763Z" fill="white" fill-opacity="0.5"/>
<path fill-rule="evenodd" clip-rule="evenodd" d="M199.784 190.317L201.837 188.269V177.7L199.234 175.14L196.667 177.7V188.269L199.234 190.829L199.784 190.317Z" fill="white" fill-opacity="0.5"/>
<path fill-rule="evenodd" clip-rule="evenodd" d="M193.733 180.626L191.349 182.967L193.953 185.563H204.514L207.118 182.967L204.514 180.407H193.953L193.733 180.626Z" fill="white" fill-opacity="0.5"/>
<path fill-rule="evenodd" clip-rule="evenodd" d="M57.9769 80.3474L60.0305 78.2629V67.7303L57.4635 65.1337L54.8599 67.7303V78.2629L57.4635 80.8594L57.9769 80.3474Z" fill="white" fill-opacity="0.5"/>
<path fill-rule="evenodd" clip-rule="evenodd" d="M51.9262 70.656L49.5793 72.9965L52.1463 75.5931H62.7442L65.3111 72.9965L62.7442 70.4365H52.1463L51.9262 70.656Z" fill="white" fill-opacity="0.5"/>
<path fill-rule="evenodd" clip-rule="evenodd" d="M65.8612 88.1736L67.9148 86.1256V75.593L65.3111 72.9965L62.7442 75.593V86.1256L65.3111 88.7222L65.8612 88.1736Z" fill="white" fill-opacity="0.5"/>
<path fill-rule="evenodd" clip-rule="evenodd" d="M59.8105 78.4822L57.4636 80.8593L60.0305 83.4193H70.6285L73.1954 80.8593L70.6285 78.2628H60.0305L59.8105 78.4822Z" fill="white" fill-opacity="0.5"/>
<path fill-rule="evenodd" clip-rule="evenodd" d="M73.7455 96.0365L75.7991 93.9885V83.4193L73.1954 80.8593L70.6284 83.4193V93.9885L73.1954 96.5851L73.7455 96.0365Z" fill="white" fill-opacity="0.5"/>
<path fill-rule="evenodd" clip-rule="evenodd" d="M67.6948 86.345L65.3112 88.7222L67.9148 91.2822H78.5127L81.0797 88.7222L78.5127 86.1256H67.9148L67.6948 86.345Z" fill="white" fill-opacity="0.5"/>
<path fill-rule="evenodd" clip-rule="evenodd" d="M73.7455 80.3474L75.7991 78.2629V67.7303L73.1954 65.1337L70.6284 67.7303V78.2629L73.1954 80.8594L73.7455 80.3474Z" fill="white" fill-opacity="0.5"/>
<path fill-rule="evenodd" clip-rule="evenodd" d="M67.6948 70.656L65.3112 72.9965L67.9148 75.5931H78.5127L81.0797 72.9965L78.5127 70.4365H67.9148L67.6948 70.656Z" fill="white" fill-opacity="0.5"/>
<path fill-rule="evenodd" clip-rule="evenodd" d="M73.7455 64.6216L75.7991 62.5736V52.0045L73.1954 49.4445L70.6284 52.0045V62.5736L73.1954 65.1336L73.7455 64.6216Z" fill="white" fill-opacity="0.5"/>
<path fill-rule="evenodd" clip-rule="evenodd" d="M67.6948 54.9303L65.3112 57.3074L67.9148 59.8674H78.5127L81.0797 57.3074L78.5127 54.7108H67.9148L67.6948 54.9303Z" fill="white" fill-opacity="0.5"/>
<path fill-rule="evenodd" clip-rule="evenodd" d="M81.593 72.4846L83.6466 70.4366V59.8674L81.0797 57.3074L78.5127 59.8674V70.4366L81.0797 72.9966L81.593 72.4846Z" fill="white" fill-opacity="0.5"/>
<path fill-rule="evenodd" clip-rule="evenodd" d="M75.579 62.7932L73.1954 65.1338L75.799 67.7304H86.3603L88.9639 65.1338L86.3603 62.5738H75.799L75.579 62.7932Z" fill="white" fill-opacity="0.5"/>
<path fill-rule="evenodd" clip-rule="evenodd" d="M89.4774 80.3474L91.5309 78.2629V67.7303L88.964 65.1337L86.3603 67.7303V78.2629L88.964 80.8594L89.4774 80.3474Z" fill="white" fill-opacity="0.5"/>
<path fill-rule="evenodd" clip-rule="evenodd" d="M83.4267 70.656L81.0797 72.9965L83.6467 75.5931H94.2446L96.8483 72.9965L94.2446 70.4365H83.6467L83.4267 70.656Z" fill="white" fill-opacity="0.5"/>
<path fill-rule="evenodd" clip-rule="evenodd" d="M33.4073 155.026V152.137L25.9264 144.64H22.296V148.297L29.7769 155.758H33.4073V155.026Z" fill="white" fill-opacity="0.5"/>
<path fill-rule="evenodd" clip-rule="evenodd" d="M22.296 152.43V155.758H25.9264L33.4073 148.297V144.64H29.7769L22.296 152.137V152.43Z" fill="white" fill-opacity="0.5"/>
<path fill-rule="evenodd" clip-rule="evenodd" d="M33.4073 110.592V107.666L25.9264 100.206H22.296V103.863L29.7769 111.323H33.4073V110.592Z" fill="white" fill-opacity="0.5"/>
<path fill-rule="evenodd" clip-rule="evenodd" d="M22.296 107.995V111.323H25.9264L33.4073 103.863V100.206H29.7769L22.296 107.666V107.995Z" fill="white" fill-opacity="0.5"/>
<path fill-rule="evenodd" clip-rule="evenodd" d="M22.296 143.909V141.019L14.7784 133.559H11.148V137.179L18.6289 144.64H22.296V143.909Z" fill="white" fill-opacity="0.5"/>
<path fill-rule="evenodd" clip-rule="evenodd" d="M11.148 141.312V144.64H14.7784L22.296 137.179V133.559H18.6289L11.148 141.019V141.312Z" fill="white" fill-opacity="0.5"/>
<path fill-rule="evenodd" clip-rule="evenodd" d="M22.296 121.71V118.784L14.7784 111.323H11.148V114.981L18.6289 122.441H22.296V121.71Z" fill="white" fill-opacity="0.5"/>
<path fill-rule="evenodd" clip-rule="evenodd" d="M11.148 119.113V122.441H14.7784L22.296 114.981V111.323H18.6289L11.148 118.784V119.113Z" fill="white" fill-opacity="0.5"/>
<path fill-rule="evenodd" clip-rule="evenodd" d="M22.296 132.791V129.902L14.7784 122.441H11.148V126.098L18.6289 133.559H22.296V132.791Z" fill="white" fill-opacity="0.5"/>
<path fill-rule="evenodd" clip-rule="evenodd" d="M11.148 130.194V133.559H14.7784L22.296 126.098V122.441H18.6289L11.148 129.902V130.194Z" fill="white" fill-opacity="0.5"/>
<path fill-rule="evenodd" clip-rule="evenodd" d="M11.148 132.791V129.902L3.66709 122.441H-7.62939e-06V126.098L7.48088 133.559H11.148V132.791Z" fill="white" fill-opacity="0.5"/>
<path fill-rule="evenodd" clip-rule="evenodd" d="M-7.62939e-06 130.194V133.559H3.66709L11.148 126.098V122.441H7.48088L-7.62939e-06 129.902V130.194Z" fill="white" fill-opacity="0.5"/>
<path fill-rule="evenodd" clip-rule="evenodd" d="M155.448 33.3165H152.551L145.07 25.8559V22.2353H148.701L156.182 29.6959V33.3165H155.448Z" fill="white" fill-opacity="0.5"/>
<path fill-rule="evenodd" clip-rule="evenodd" d="M152.845 22.2353H156.182V25.8559L148.701 33.3165H145.07V29.6959L152.551 22.2353H152.845Z" fill="white" fill-opacity="0.5"/>
<path fill-rule="evenodd" clip-rule="evenodd" d="M110.893 33.3165H107.959L100.479 25.8559V22.2353H104.146L111.627 29.6959V33.3165H110.893Z" fill="white" fill-opacity="0.5"/>
<path fill-rule="evenodd" clip-rule="evenodd" d="M108.289 22.2353H111.627V25.8559L104.146 33.3165H100.479V29.6959L107.959 22.2353H108.289Z" fill="white" fill-opacity="0.5"/>
<path fill-rule="evenodd" clip-rule="evenodd" d="M144.3 22.2355H141.403L133.923 14.7383V11.1178H137.553L145.071 18.5783V22.2355H144.3Z" fill="white" fill-opacity="0.5"/>
<path fill-rule="evenodd" clip-rule="evenodd" d="M141.697 11.1178H145.071V14.7383L137.553 22.2355H133.923V18.5783L141.403 11.1178H141.697Z" fill="white" fill-opacity="0.5"/>
<path fill-rule="evenodd" clip-rule="evenodd" d="M122.041 22.2355H119.107L111.627 14.7383V11.1178H115.294L122.775 18.5783V22.2355H122.041Z" fill="white" fill-opacity="0.5"/>
<path fill-rule="evenodd" clip-rule="evenodd" d="M119.437 11.1178H122.775V14.7383L115.294 22.2355H111.627V18.5783L119.107 11.1178H119.437Z" fill="white" fill-opacity="0.5"/>
<path fill-rule="evenodd" clip-rule="evenodd" d="M133.152 22.2355H130.255L122.775 14.7383V11.1178H126.442L133.923 18.5783V22.2355H133.152Z" fill="white" fill-opacity="0.5"/>
<path fill-rule="evenodd" clip-rule="evenodd" d="M130.549 11.1178H133.923V14.7383L126.442 22.2355H122.775V18.5783L130.255 11.1178H130.549Z" fill="white" fill-opacity="0.5"/>
<path fill-rule="evenodd" clip-rule="evenodd" d="M133.152 11.1177H130.255L122.775 3.65714V0H126.442L133.923 7.46057V11.1177H133.152Z" fill="white" fill-opacity="0.5"/>
<path fill-rule="evenodd" clip-rule="evenodd" d="M130.549 0H133.923V3.65714L126.442 11.1177H122.775V7.46057L130.255 0H130.549Z" fill="white" fill-opacity="0.5"/>
<path fill-rule="evenodd" clip-rule="evenodd" d="M101.249 222.647H104.146L111.627 230.107V233.764H107.959L100.479 226.304V222.647H101.249Z" fill="white" fill-opacity="0.5"/>
<path fill-rule="evenodd" clip-rule="evenodd" d="M103.852 233.764H100.479V230.107L107.959 222.647H111.627V226.304L104.146 233.764H103.852Z" fill="white" fill-opacity="0.5"/>
<path fill-rule="evenodd" clip-rule="evenodd" d="M145.804 222.647H148.701L156.182 230.107V233.765H152.551L145.07 226.304V222.647H145.804Z" fill="white" fill-opacity="0.5"/>
<path fill-rule="evenodd" clip-rule="evenodd" d="M148.408 233.765H145.07V230.107L152.551 222.647H156.182V226.304L148.701 233.765H148.408Z" fill="white" fill-opacity="0.5"/>
<path fill-rule="evenodd" clip-rule="evenodd" d="M112.397 233.764H115.294L122.775 241.225V244.882H119.107L111.627 237.422V233.764H112.397Z" fill="white" fill-opacity="0.5"/>
<path fill-rule="evenodd" clip-rule="evenodd" d="M114.964 244.882H111.627V241.225L119.107 233.764H122.775V237.422L115.294 244.882H114.964Z" fill="white" fill-opacity="0.5"/>
<path fill-rule="evenodd" clip-rule="evenodd" d="M134.656 233.764H137.553L145.071 241.225V244.882H141.403L133.923 237.422V233.764H134.656Z" fill="white" fill-opacity="0.5"/>
<path fill-rule="evenodd" clip-rule="evenodd" d="M137.26 244.882H133.923V241.225L141.403 233.764H145.071V237.422L137.553 244.882H137.26Z" fill="white" fill-opacity="0.5"/>
<path fill-rule="evenodd" clip-rule="evenodd" d="M123.508 233.764H126.442L133.923 241.225V244.882H130.255L122.775 237.422V233.764H123.508Z" fill="white" fill-opacity="0.5"/>
<path fill-rule="evenodd" clip-rule="evenodd" d="M126.112 244.882H122.775V241.225L130.255 233.764H133.923V237.422L126.442 244.882H126.112Z" fill="white" fill-opacity="0.5"/>
<path fill-rule="evenodd" clip-rule="evenodd" d="M123.508 244.882H126.442L133.923 252.343V256H130.255L122.775 248.539V244.882H123.508Z" fill="white" fill-opacity="0.5"/>
<path fill-rule="evenodd" clip-rule="evenodd" d="M126.112 256H122.775V252.343L130.255 244.882H133.923V248.539L126.442 256H126.112Z" fill="white" fill-opacity="0.5"/>
<path fill-rule="evenodd" clip-rule="evenodd" d="M223.253 100.974V103.863L230.734 111.323H234.401V107.666L226.92 100.206H223.253V100.974Z" fill="white" fill-opacity="0.5"/>
<path fill-rule="evenodd" clip-rule="evenodd" d="M234.401 103.57V100.206H230.734L223.253 107.666V111.323H226.92L234.401 103.863V103.57Z" fill="white" fill-opacity="0.5"/>
<path fill-rule="evenodd" clip-rule="evenodd" d="M223.253 145.408V148.297L230.734 155.758H234.401V152.137L226.92 144.64H223.253V145.408Z" fill="white" fill-opacity="0.5"/>
<path fill-rule="evenodd" clip-rule="evenodd" d="M234.401 148.005V144.64H230.734L223.253 152.137V155.758H226.92L234.401 148.297V148.005Z" fill="white" fill-opacity="0.5"/>
<path fill-rule="evenodd" clip-rule="evenodd" d="M234.401 112.091V114.981L241.882 122.441H245.549V118.784L238.068 111.323H234.401V112.091Z" fill="white" fill-opacity="0.5"/>
<path fill-rule="evenodd" clip-rule="evenodd" d="M245.549 114.651V111.323H241.882L234.401 118.784V122.441H238.068L245.549 114.981V114.651Z" fill="white" fill-opacity="0.5"/>
<path fill-rule="evenodd" clip-rule="evenodd" d="M234.401 134.29V137.179L241.882 144.64H245.549V141.019L238.068 133.559H234.401V134.29Z" fill="white" fill-opacity="0.5"/>
<path fill-rule="evenodd" clip-rule="evenodd" d="M245.549 136.887V133.559H241.882L234.401 141.019V144.64H238.068L245.549 137.179V136.887Z" fill="white" fill-opacity="0.5"/>
<path fill-rule="evenodd" clip-rule="evenodd" d="M234.401 123.173V126.098L241.882 133.559H245.549V129.902L238.068 122.441H234.401V123.173Z" fill="white" fill-opacity="0.5"/>
<path fill-rule="evenodd" clip-rule="evenodd" d="M245.549 125.769V122.441H241.882L234.401 129.902V133.559H238.068L245.549 126.098V125.769Z" fill="white" fill-opacity="0.5"/>
<path fill-rule="evenodd" clip-rule="evenodd" d="M245.549 123.173V126.098L253.03 133.559H256.697V129.902L249.216 122.441H245.549V123.173Z" fill="white" fill-opacity="0.5"/>
<path fill-rule="evenodd" clip-rule="evenodd" d="M256.697 125.769V122.441H253.03L245.549 129.902V133.559H249.216L256.697 126.098V125.769Z" fill="white" fill-opacity="0.5"/>
</svg>
