<svg width="30" height="30" viewBox="0 0 30 30" fill="none" xmlns="http://www.w3.org/2000/svg">
<path d="M26.5 8.00006H3.50001C3.22402 8.00006 3 8.22403 3 8.50003V23.5C3 25.43 4.56998 27 6.50001 27H23.5C25.43 27 27 25.43 27 23.5V8.50003C27 8.22403 26.776 8.00006 26.5 8.00006ZM26 23.5C26 24.879 24.879 26 23.5 26H6.50001C5.121 26 4.00003 24.879 4.00003 23.5V9.00004H26V23.5Z" fill="black"/>
<path d="M14.9999 3C12.243 3 9.99994 5.24301 9.99994 8.00001V11.5C9.99994 11.776 10.224 12 10.5 12C10.776 12 11 11.776 11 11.5V8.00001C11 5.79403 12.794 4.00003 14.9999 4.00003C17.2059 4.00003 18.9999 5.79403 18.9999 8.00001V11.5C18.9999 11.776 19.2239 12 19.4999 12C19.7759 12 20 11.776 20 11.5V8.00001C20 5.24301 17.7569 3 14.9999 3Z" fill="black"/>
<path d="M10.5 11.0001C9.67298 11.0001 9 11.673 9 12.5001C9 13.3271 9.67298 14.0001 10.5 14.0001C11.327 14.0001 12 13.3271 12 12.5001C12 11.673 11.327 11.0001 10.5 11.0001ZM10.5 13C10.225 13 9.99998 12.775 9.99998 12.5C9.99998 12.225 10.225 12 10.5 12C10.775 12 11 12.225 11 12.5C11 12.775 10.775 13 10.5 13Z" fill="black"/>
<path d="M19.5 11.0001C18.673 11.0001 18 11.673 18 12.5001C18 13.3271 18.673 14.0001 19.5 14.0001C20.327 14.0001 21 13.3271 21 12.5001C21 11.673 20.327 11.0001 19.5 11.0001ZM19.5 13C19.225 13 19 12.775 19 12.5C19 12.225 19.225 12 19.5 12C19.775 12 20 12.225 20 12.5C20 12.775 19.775 13 19.5 13Z" fill="black"/>
<g clip-path="url(#clip0)">
<path fill-rule="evenodd" clip-rule="evenodd" d="M12.5068 23.9787L12.1593 23.6311L10.3719 23.6311L9.93121 24.0656L10.3719 24.5062L12.1593 24.5062L12.5999 24.0656L12.5068 23.9787Z" fill="#414042"/>
<path fill-rule="evenodd" clip-rule="evenodd" d="M10.8684 24.9966L11.2656 25.4L11.7062 24.9655L11.7062 23.1719L11.2656 22.7312L10.8311 23.1719L10.8311 24.9655L10.8684 24.9966Z" fill="#58595B"/>
<path fill-rule="evenodd" clip-rule="evenodd" d="M7.17561 18.6474L6.82806 18.2937L5.03442 18.2937L4.59998 18.7343L5.03442 19.1688L6.82806 19.1688L7.26871 18.7343L7.17561 18.6474Z" fill="#414042"/>
<path fill-rule="evenodd" clip-rule="evenodd" d="M5.53095 19.6653L5.93436 20.0687L6.36881 19.628L6.36881 17.8406L5.93436 17.4L5.49371 17.8406L5.49371 19.628L5.53095 19.6653Z" fill="#58595B"/>
<path fill-rule="evenodd" clip-rule="evenodd" d="M9.84431 23.9787L9.49676 23.6311L7.70312 23.6311L7.26868 24.0656L7.70312 24.5062L9.49676 24.5062L9.9312 24.0656L9.84431 23.9787Z" fill="#414042"/>
<path fill-rule="evenodd" clip-rule="evenodd" d="M8.19965 24.9966L8.59686 25.4L9.03751 24.9655L9.03751 23.1719L8.59686 22.7312L8.16241 23.1719L8.16241 24.9655L8.19965 24.9966Z" fill="#58595B"/>
<path fill-rule="evenodd" clip-rule="evenodd" d="M7.17561 21.31L6.82806 20.9624L5.03442 20.9624L4.59998 21.403L5.03442 21.8375L6.82806 21.8375L7.26871 21.403L7.17561 21.31Z" fill="#414042"/>
<path fill-rule="evenodd" clip-rule="evenodd" d="M5.53095 22.334L5.93436 22.7312L6.36881 22.2968L6.36881 20.5032L5.93436 20.0687L5.49371 20.5032L5.49371 22.2968L5.53095 22.334Z" fill="#58595B"/>
<path fill-rule="evenodd" clip-rule="evenodd" d="M8.50996 22.6443L8.16241 22.2968L6.36877 22.2968L5.93433 22.7312L6.36877 23.1719L8.16241 23.1719L8.59685 22.7312L8.50996 22.6443Z" fill="#CF1A20"/>
<path fill-rule="evenodd" clip-rule="evenodd" d="M6.8653 23.6684L7.26872 24.0656L7.70316 23.6312L7.70316 21.8375L7.26871 21.4031L6.82806 21.8375L6.82806 23.6312L6.8653 23.6684Z" fill="#EE2A26"/>
<path fill-rule="evenodd" clip-rule="evenodd" d="M7.17561 23.9787L6.82806 23.6311L5.03442 23.6311L4.59998 24.0656L5.03442 24.5062L6.82806 24.5062L7.26871 24.0656L7.17561 23.9787Z" fill="#414042"/>
<path fill-rule="evenodd" clip-rule="evenodd" d="M5.53095 24.9966L5.93436 25.4L6.36881 24.9655L6.36881 23.1719L5.93436 22.7312L5.49371 23.1719L5.49371 24.9655L5.53095 24.9966Z" fill="#58595B"/>
<path fill-rule="evenodd" clip-rule="evenodd" d="M9.84431 21.31L9.49676 20.9624L7.70312 20.9624L7.26868 21.403L7.70312 21.8375L9.49676 21.8375L9.9312 21.403L9.84431 21.31Z" fill="#414042"/>
<path fill-rule="evenodd" clip-rule="evenodd" d="M8.19965 22.334L8.59686 22.7312L9.03751 22.2968L9.03751 20.5032L8.59686 20.0687L8.16241 20.5032L8.16241 22.2968L8.19965 22.334Z" fill="#58595B"/>
</g>
<defs>
<clipPath id="clip0">
<rect width="7.99999" height="7.99999" fill="white" transform="translate(4.59998 25.4) rotate(-90)"/>
</clipPath>
</defs>
</svg>
