<svg width="30" height="30" viewBox="0 0 30 30" fill="none" xmlns="http://www.w3.org/2000/svg">
<rect width="30" height="30" rx="15" fill="#F2F2F2"/>
<path d="M15.9229 15.5C15.9229 15.1067 15.7862 14.77 15.5129 14.49C15.2396 14.21 14.9029 14.07 14.5029 14.07C14.1029 14.07 13.7662 14.21 13.4929 14.49C13.2196 14.77 13.0796 15.1067 13.0729 15.5C13.0662 15.8933 13.2062 16.23 13.4929 16.51C13.7796 16.79 14.1162 16.93 14.5029 16.93C14.8896 16.93 15.2262 16.79 15.5129 16.51C15.7996 16.23 15.9362 15.8933 15.9229 15.5ZM16.6929 15.5C16.6929 16.1067 16.4796 16.6267 16.0529 17.06C15.6262 17.4933 15.1096 17.7067 14.5029 17.7C13.8962 17.6933 13.3762 17.48 12.9429 17.06C12.5096 16.64 12.2962 16.12 12.3029 15.5C12.3096 14.88 12.5229 14.36 12.9429 13.94C13.3629 13.52 13.8829 13.3067 14.5029 13.3C15.1229 13.2933 15.6396 13.5067 16.0529 13.94C16.4662 14.3733 16.6796 14.8933 16.6929 15.5ZM17.3029 13.21C17.3029 13.35 17.2529 13.47 17.1529 13.57C17.0529 13.67 16.9296 13.72 16.7829 13.72C16.6362 13.72 16.5162 13.67 16.4229 13.57C16.3296 13.47 16.2796 13.35 16.2729 13.21C16.2662 13.07 16.3162 12.95 16.4229 12.85C16.5296 12.75 16.6496 12.7 16.7829 12.7C16.9162 12.7 17.0396 12.75 17.1529 12.85C17.2662 12.95 17.3162 13.07 17.3029 13.21ZM14.5029 11.98C14.4762 11.98 14.3329 11.98 14.0729 11.98H13.4829C13.3496 11.98 13.1696 11.9867 12.9429 12C12.7162 12.0133 12.5262 12.03 12.3729 12.05C12.2196 12.07 12.0862 12.1067 11.9729 12.16C11.7862 12.2333 11.6229 12.34 11.4829 12.48C11.3429 12.62 11.2329 12.7833 11.1529 12.97C11.1129 13.0767 11.0796 13.21 11.0529 13.37C11.0262 13.53 11.0062 13.7233 10.9929 13.95C10.9796 14.1767 10.9762 14.3533 10.9829 14.48C10.9896 14.6067 10.9896 14.8033 10.9829 15.07C10.9762 15.3367 10.9762 15.48 10.9829 15.5C10.9896 15.52 10.9896 15.6633 10.9829 15.93C10.9762 16.1967 10.9762 16.3933 10.9829 16.52C10.9896 16.6467 10.9929 16.8233 10.9929 17.05C10.9929 17.2767 11.0129 17.47 11.0529 17.63L11.1529 18.03C11.2329 18.2167 11.3429 18.38 11.4829 18.52C11.6229 18.66 11.7862 18.7667 11.9729 18.84C12.0796 18.88 12.2129 18.9167 12.3729 18.95C12.5329 18.9833 12.7229 19 12.9429 19C13.1629 19 13.3429 19.0067 13.4829 19.02C13.6229 19.0333 13.8196 19.0333 14.0729 19.02C14.3262 19.0067 14.4696 19.0067 14.5029 19.02C14.5362 19.0333 14.6762 19.0333 14.9229 19.02C15.1696 19.0067 15.3662 19.0067 15.5129 19.02C15.6596 19.0333 15.8396 19.0267 16.0529 19C16.2662 18.9733 16.4596 18.9567 16.6329 18.95C16.8062 18.9433 16.9362 18.9067 17.0229 18.84C17.2096 18.7667 17.3762 18.66 17.5229 18.52C17.6696 18.38 17.7762 18.2167 17.8429 18.03C17.8829 17.9233 17.9162 17.79 17.9429 17.63C17.9696 17.47 17.9896 17.2767 18.0029 17.05C18.0162 16.8233 18.0196 16.6467 18.0129 16.52C18.0062 16.3933 18.0062 16.1967 18.0129 15.93C18.0196 15.6633 18.0196 15.52 18.0129 15.5C18.0062 15.48 18.0062 15.3367 18.0129 15.07C18.0196 14.8033 18.0196 14.6067 18.0129 14.48C18.0062 14.3533 18.0029 14.1767 18.0029 13.95C18.0029 13.7233 17.9829 13.53 17.9429 13.37L17.8429 12.97C17.7696 12.7833 17.6629 12.62 17.5229 12.48C17.3829 12.34 17.2162 12.2333 17.0229 12.16C16.9162 12.12 16.7862 12.0833 16.6329 12.05C16.4796 12.0167 16.2862 12 16.0529 12C15.8196 12 15.6396 11.9933 15.5129 11.98C15.3862 11.9667 15.1896 11.9667 14.9229 11.98C14.6562 11.9933 14.5162 11.9933 14.5029 11.98ZM18.7829 15.5C18.7829 16.3533 18.7729 16.9433 18.7529 17.27C18.7196 18.0433 18.4896 18.6433 18.0629 19.07C17.6362 19.4967 17.0396 19.7267 16.2729 19.76C15.9396 19.78 15.3496 19.79 14.5029 19.79C13.6562 19.79 13.0662 19.78 12.7329 19.76C11.9596 19.72 11.3596 19.49 10.9329 19.07C10.5062 18.65 10.2762 18.05 10.2429 17.27C10.2229 16.9433 10.2129 16.3533 10.2129 15.5C10.2129 14.6467 10.2229 14.0567 10.2429 13.73C10.2762 12.9567 10.5062 12.3567 10.9329 11.93C11.3596 11.5033 11.9596 11.2733 12.7329 11.24C13.0596 11.22 13.6496 11.21 14.5029 11.21C15.3562 11.21 15.9462 11.22 16.2729 11.24C17.0462 11.28 17.6429 11.51 18.0629 11.93C18.4829 12.35 18.7129 12.95 18.7529 13.73C18.7729 14.0567 18.7829 14.6467 18.7829 15.5Z" fill="black"/>
</svg>
