<svg width="30" height="30" viewBox="0 0 30 30" fill="none" xmlns="http://www.w3.org/2000/svg">
<path d="M25.1287 6.8025C23.865 5.51006 22.1746 4.79826 20.3688 4.79826C18.5908 4.79826 16.9191 5.49075 15.6615 6.74836L15.0125 7.39781L14.3629 6.74817C13.1054 5.4907 11.434 4.79822 9.65658 4.79822C7.87856 4.79822 6.20691 5.4907 4.94953 6.74817C3.69234 8.00531 3 9.67683 3 11.4548C3 13.2329 3.69234 14.9044 4.94953 16.1615L13.269 24.4809C13.7496 24.9615 14.3807 25.2017 15.012 25.2017C15.6431 25.2017 16.2744 24.9615 16.7549 24.481L25.0207 16.2158C27.6169 13.6196 27.6654 9.39684 25.1287 6.8025ZM24.1492 15.3443L15.8834 23.6096C15.4028 24.09 14.621 24.09 14.1405 23.6095L5.82098 15.29C4.79658 14.2656 4.23244 12.9036 4.23244 11.4548C4.23244 10.006 4.79658 8.64398 5.82098 7.61958C6.84558 6.59494 8.20777 6.03066 9.65658 6.03066C11.1048 6.03066 12.4667 6.59494 13.4914 7.61958L14.1413 8.26955L13.146 9.26559C12.9055 9.50634 12.9057 9.89648 13.1464 10.137C13.2667 10.2573 13.4243 10.3174 13.5819 10.3174C13.7398 10.3174 13.8975 10.2571 14.0178 10.1367L16.533 7.61953C17.5577 6.59489 18.9198 6.03061 20.3686 6.03061C21.84 6.03061 23.2175 6.61073 24.2474 7.66406C26.3144 9.77798 26.2703 13.2233 24.1492 15.3443Z" fill="black"/>
<g clip-path="url(#clip0)">
<path fill-rule="evenodd" clip-rule="evenodd" d="M18.2407 7.41573L18.5222 7.81864L20.2821 8.13082L20.7919 7.78001L20.435 7.26917L18.675 6.95699L18.1642 7.31391L18.2407 7.41573Z" fill="#CF1A20"/>
<path fill-rule="evenodd" clip-rule="evenodd" d="M20.0317 6.69967L19.711 6.23308L19.2013 6.58389L18.888 8.34996L19.2449 8.8608L19.7497 8.5028L20.0629 6.73673L20.0317 6.69967Z" fill="#EE2A26"/>
<path fill-rule="evenodd" clip-rule="evenodd" d="M22.5589 13.5961L22.8393 14.0052L24.6054 14.3184L25.1101 13.9604L24.7582 13.4568L22.9921 13.1435L22.4824 13.4943L22.5589 13.5961Z" fill="#CF1A20"/>
<path fill-rule="evenodd" clip-rule="evenodd" d="M24.356 12.8812L24.0293 12.4135L23.5245 12.7715L23.2124 14.5315L23.5632 15.0412L24.074 14.6843L24.3862 12.9244L24.356 12.8812Z" fill="#EE2A26"/>
<path fill-rule="evenodd" clip-rule="evenodd" d="M20.8623 7.88069L21.1438 8.28361L22.9099 8.59687L23.4135 8.24497L23.0627 7.73522L21.2966 7.42196L20.7919 7.77996L20.8623 7.88069Z" fill="#414042"/>
<path fill-rule="evenodd" clip-rule="evenodd" d="M22.6594 7.16573L22.3388 6.69915L21.829 7.04996L21.5158 8.81602L21.8727 9.32686L22.3774 8.96886L22.6907 7.20279L22.6594 7.16573Z" fill="#58595B"/>
<path fill-rule="evenodd" clip-rule="evenodd" d="M23.0239 10.9745L23.3054 11.3774L25.0714 11.6907L25.5762 11.3327L25.2243 10.829L23.4582 10.5158L22.9484 10.8666L23.0239 10.9745Z" fill="#414042"/>
<path fill-rule="evenodd" clip-rule="evenodd" d="M24.8221 10.2534L24.4942 9.79188L23.9906 10.1438L23.6773 11.9098L24.0292 12.4135L24.539 12.0627L24.8522 10.2966L24.8221 10.2534Z" fill="#58595B"/>
<path fill-rule="evenodd" clip-rule="evenodd" d="M21.9431 9.42763L22.2246 9.83054L23.9907 10.1438L24.4943 9.79191L24.1435 9.28216L22.3775 8.9689L21.8727 9.3269L21.9431 9.42763Z" fill="#CF1A20"/>
<path fill-rule="evenodd" clip-rule="evenodd" d="M23.7413 8.70656L23.4135 8.245L22.9098 8.59689L22.5966 10.363L22.9485 10.8666L23.4582 10.5158L23.7715 8.74973L23.7413 8.70656Z" fill="#EE2A26"/>
<path fill-rule="evenodd" clip-rule="evenodd" d="M20.3962 10.5084L20.6777 10.9114L22.4437 11.2246L22.9485 10.8666L22.5966 10.363L20.8305 10.0497L20.3269 10.4016L20.3962 10.5084Z" fill="#414042"/>
<path fill-rule="evenodd" clip-rule="evenodd" d="M22.1944 9.78737L21.8726 9.32689L21.3629 9.6777L21.0496 11.4438L21.4076 11.9485L21.9113 11.5966L22.2245 9.83054L22.1944 9.78737Z" fill="#58595B"/>
</g>
<defs>
<clipPath id="clip0">
<rect width="7.99999" height="7.99999" fill="white" transform="translate(26.2742 7.39722) rotate(100.058)"/>
</clipPath>
</defs>
</svg>
