<svg width="245" height="54" viewBox="0 0 245 54" fill="none" xmlns="http://www.w3.org/2000/svg">
<path fill-rule="evenodd" clip-rule="evenodd" d="M18.8741 26.8843L19.3073 26.4523V24.2306L18.7659 23.6829L18.2166 24.2306V26.4523L18.7659 27L18.8741 26.8843Z" fill="#CF1A20"/>
<path fill-rule="evenodd" clip-rule="evenodd" d="M17.5978 24.84L17.1028 25.3415L17.6442 25.8815H19.8797L20.4289 25.3415L19.8797 24.8015H17.6442L17.5978 24.84Z" fill="#EE2A26"/>
<path fill-rule="evenodd" clip-rule="evenodd" d="M25.5187 20.2577L25.9519 19.8257V17.5963L25.4104 17.0563L24.869 17.5963V19.8257L25.4104 20.3734L25.5187 20.2577Z" fill="#CF1A20"/>
<path fill-rule="evenodd" clip-rule="evenodd" d="M24.2501 18.2134L23.7473 18.7148L24.2966 19.2548H26.5243L27.0735 18.7148L26.5243 18.1671H24.2966L24.2501 18.2134Z" fill="#EE2A26"/>
<path fill-rule="evenodd" clip-rule="evenodd" d="M18.8741 23.5748L19.3073 23.1428V20.9134L18.7659 20.3734L18.2166 20.9134V23.1428L18.7659 23.6828L18.8741 23.5748Z" fill="#CF1A20"/>
<path fill-rule="evenodd" clip-rule="evenodd" d="M17.5978 21.5305L17.1028 22.0243L17.6442 22.572H19.8797L20.4289 22.0243L19.8797 21.4843H17.6442L17.5978 21.5305Z" fill="#EE2A26"/>
<path fill-rule="evenodd" clip-rule="evenodd" d="M22.2003 20.2577L22.6335 19.8257V17.5963L22.0843 17.0563L21.5428 17.5963V19.8257L22.0843 20.3734L22.2003 20.2577Z" fill="#CF1A20"/>
<path fill-rule="evenodd" clip-rule="evenodd" d="M20.924 18.2134L20.4289 18.7148L20.9704 19.2548H23.2059L23.7474 18.7148L23.2059 18.1671H20.9704L20.924 18.2134Z" fill="#EE2A26"/>
<path fill-rule="evenodd" clip-rule="evenodd" d="M20.5372 21.9163L20.9704 21.4843V19.2548L20.4289 18.7148L19.8797 19.2548V21.4843L20.4289 22.0243L20.5372 21.9163Z" fill="#CF1A20"/>
<path fill-rule="evenodd" clip-rule="evenodd" d="M19.2609 19.872L18.7658 20.3734L19.3073 20.9134H21.5428L22.0843 20.3734L21.5428 19.8257H19.3073L19.2609 19.872Z" fill="#EE2A26"/>
<path fill-rule="evenodd" clip-rule="evenodd" d="M18.8741 20.2577L19.3073 19.8257V17.5963L18.7659 17.0563L18.2166 17.5963V19.8257L18.7659 20.3734L18.8741 20.2577Z" fill="#CF1A20"/>
<path fill-rule="evenodd" clip-rule="evenodd" d="M17.5978 18.2134L17.1028 18.7148L17.6442 19.2548H19.8797L20.4289 18.7148L19.8797 18.1671H17.6442L17.5978 18.2134Z" fill="#EE2A26"/>
<path fill-rule="evenodd" clip-rule="evenodd" d="M26.9575 35.1694L26.5243 34.7374H24.2966L23.7474 35.2851L24.2966 35.8251H26.5243L27.0735 35.2851L26.9575 35.1694Z" fill="#CF1A20"/>
<path fill-rule="evenodd" clip-rule="evenodd" d="M24.9154 36.4423L25.4105 36.9437L25.9519 36.396V34.1666L25.4105 33.6266L24.869 34.1666V36.396L24.9154 36.4423Z" fill="#EE2A26"/>
<path fill-rule="evenodd" clip-rule="evenodd" d="M20.3129 28.5428L19.8797 28.1108H17.6442L17.1028 28.6586L17.6442 29.1986H19.8797L20.4289 28.6586L20.3129 28.5428Z" fill="#CF1A20"/>
<path fill-rule="evenodd" clip-rule="evenodd" d="M18.2631 29.8157L18.7659 30.3094L19.3073 29.7694V27.54L18.7659 27L18.2166 27.54V29.7694L18.2631 29.8157Z" fill="#EE2A26"/>
<path fill-rule="evenodd" clip-rule="evenodd" d="M23.6391 35.1694L23.2059 34.7374H20.9704L20.4289 35.2851L20.9704 35.8251H23.2059L23.7474 35.2851L23.6391 35.1694Z" fill="#CF1A20"/>
<path fill-rule="evenodd" clip-rule="evenodd" d="M21.5892 36.4423L22.0843 36.9437L22.6335 36.396V34.1666L22.0843 33.6266L21.5428 34.1666V36.396L21.5892 36.4423Z" fill="#EE2A26"/>
<path fill-rule="evenodd" clip-rule="evenodd" d="M20.3129 31.86L19.8797 31.428H17.6442L17.1028 31.968L17.6442 32.5158H19.8797L20.4289 31.968L20.3129 31.86Z" fill="#CF1A20"/>
<path fill-rule="evenodd" clip-rule="evenodd" d="M18.2631 33.1329L18.7659 33.6266L19.3073 33.0866V30.8572L18.7659 30.3094L18.2166 30.8572V33.0866L18.2631 33.1329Z" fill="#EE2A26"/>
<path fill-rule="evenodd" clip-rule="evenodd" d="M21.976 33.5186L21.5428 33.0866H19.3073L18.7658 33.6266L19.3073 34.1666H21.5428L22.0843 33.6266L21.976 33.5186Z" fill="#CF1A20"/>
<path fill-rule="evenodd" clip-rule="evenodd" d="M19.9261 34.7837L20.4289 35.2852L20.9704 34.7374V32.5157L20.4289 31.968L19.8797 32.5157V34.7374L19.9261 34.7837Z" fill="#EE2A26"/>
<path fill-rule="evenodd" clip-rule="evenodd" d="M20.3129 35.1694L19.8797 34.7374H17.6442L17.1028 35.2851L17.6442 35.8251H19.8797L20.4289 35.2851L20.3129 35.1694Z" fill="#CF1A20"/>
<path fill-rule="evenodd" clip-rule="evenodd" d="M18.2631 36.4423L18.7659 36.9437L19.3073 36.396V34.1666L18.7659 33.6266L18.2166 34.1666V36.396L18.2631 36.4423Z" fill="#EE2A26"/>
<path fill-rule="evenodd" clip-rule="evenodd" d="M23.8634 31.86L24.2965 31.428V29.1986L23.7473 28.6586L23.2059 29.1986V31.428L23.7473 31.968L23.8634 31.86Z" fill="#414042"/>
<path fill-rule="evenodd" clip-rule="evenodd" d="M22.5871 29.8157L22.0843 30.3094L22.6335 30.8571H24.869L25.4104 30.3094L24.869 29.7694H22.6335L22.5871 29.8157Z" fill="#58595B"/>
<path fill-rule="evenodd" clip-rule="evenodd" d="M30.508 25.2334L30.9412 24.8014V22.572L30.392 22.0243L29.8505 22.572V24.8014L30.392 25.3414L30.508 25.2334Z" fill="#414042"/>
<path fill-rule="evenodd" clip-rule="evenodd" d="M29.2317 23.1892L28.7366 23.6829L29.2781 24.2306H31.5136L32.055 23.6829L31.5136 23.1429H29.2781L29.2317 23.1892Z" fill="#58595B"/>
<path fill-rule="evenodd" clip-rule="evenodd" d="M23.8634 28.5429L24.2965 28.1109V25.8814L23.7473 25.3414L23.2059 25.8814V28.1109L23.7473 28.6586L23.8634 28.5429Z" fill="#414042"/>
<path fill-rule="evenodd" clip-rule="evenodd" d="M22.5871 26.4986L22.0843 27L22.6335 27.54H24.869L25.4104 27L24.869 26.4523H22.6335L22.5871 26.4986Z" fill="#58595B"/>
<path fill-rule="evenodd" clip-rule="evenodd" d="M27.1818 25.2334L27.615 24.8014V22.572L27.0735 22.0243L26.5243 22.572V24.8014L27.0735 25.3414L27.1818 25.2334Z" fill="#414042"/>
<path fill-rule="evenodd" clip-rule="evenodd" d="M25.9132 23.1892L25.4104 23.6829L25.9519 24.2306H28.1874L28.7366 23.6829L28.1874 23.1429H25.9519L25.9132 23.1892Z" fill="#58595B"/>
<path fill-rule="evenodd" clip-rule="evenodd" d="M25.5187 26.8843L25.9519 26.4523V24.2306L25.4104 23.6829L24.869 24.2306V26.4523L25.4104 27L25.5187 26.8843Z" fill="#414042"/>
<path fill-rule="evenodd" clip-rule="evenodd" d="M24.2501 24.84L23.7473 25.3415L24.2965 25.8815H26.5243L27.0735 25.3415L26.5243 24.8015H24.2965L24.2501 24.84Z" fill="#58595B"/>
<path fill-rule="evenodd" clip-rule="evenodd" d="M23.8634 25.2334L24.2965 24.8014V22.572L23.7473 22.0243L23.2059 22.572V24.8014L23.7473 25.3414L23.8634 25.2334Z" fill="#414042"/>
<path fill-rule="evenodd" clip-rule="evenodd" d="M22.5871 23.1892L22.0843 23.6829L22.6335 24.2306H24.869L25.4104 23.6829L24.869 23.1429H22.6335L22.5871 23.1892Z" fill="#58595B"/>
<path fill-rule="evenodd" clip-rule="evenodd" d="M27.1818 28.5429L27.615 28.1109V25.8814L27.0735 25.3414L26.5243 25.8814V28.1109L27.0735 28.6586L27.1818 28.5429Z" fill="#414042"/>
<path fill-rule="evenodd" clip-rule="evenodd" d="M25.9132 26.4986L25.4104 27L25.9519 27.54H28.1874L28.7366 27L28.1874 26.4523H25.9519L25.9132 26.4986Z" fill="#58595B"/>
<path fill-rule="evenodd" clip-rule="evenodd" d="M26.9575 28.7666L26.5243 29.1986V31.428L27.0735 31.968L27.615 31.428V29.1986L27.0735 28.6586L26.9575 28.7666Z" fill="#414042"/>
<path fill-rule="evenodd" clip-rule="evenodd" d="M28.2338 30.8108L28.7366 30.3094L28.1874 29.7694H25.9519L25.4104 30.3094L25.9519 30.8571H28.1874L28.2338 30.8108Z" fill="#58595B"/>
<path fill-rule="evenodd" clip-rule="evenodd" d="M30.2837 25.4494L29.8505 25.8814V28.1109L30.392 28.6586L30.9412 28.1109V25.8814L30.392 25.3414L30.2837 25.4494Z" fill="#414042"/>
<path fill-rule="evenodd" clip-rule="evenodd" d="M31.56 27.4937L32.055 27L31.5136 26.4523H29.2781L28.7366 27L29.2781 27.54H31.5136L31.56 27.4937Z" fill="#58595B"/>
<path fill-rule="evenodd" clip-rule="evenodd" d="M28.6206 27.108L28.1874 27.54V29.7694L28.7366 30.3094L29.2781 29.7694V27.54L28.7366 27L28.6206 27.108Z" fill="#414042"/>
<path fill-rule="evenodd" clip-rule="evenodd" d="M29.8969 29.1523L30.392 28.6586L29.8505 28.1108H27.615L27.0735 28.6586L27.615 29.1986H29.8505L29.8969 29.1523Z" fill="#58595B"/>
<path fill-rule="evenodd" clip-rule="evenodd" d="M30.2837 28.7666L29.8505 29.1986V31.428L30.392 31.968L30.9412 31.428V29.1986L30.392 28.6586L30.2837 28.7666Z" fill="#414042"/>
<path fill-rule="evenodd" clip-rule="evenodd" d="M31.56 30.8108L32.055 30.3094L31.5136 29.7694H29.2781L28.7366 30.3094L29.2781 30.8571H31.5136L31.56 30.8108Z" fill="#58595B"/>
<path fill-rule="evenodd" clip-rule="evenodd" d="M35.2652 26.8843L34.832 26.4523V24.2306L35.3812 23.6829L35.9227 24.2306V26.4523L35.3812 27L35.2652 26.8843Z" fill="#CF1A20"/>
<path fill-rule="evenodd" clip-rule="evenodd" d="M36.5416 24.84L37.0443 25.3415L36.4951 25.8815H34.2674L33.7182 25.3415L34.2674 24.8015H36.4951L36.5416 24.84Z" fill="#EE2A26"/>
<path fill-rule="evenodd" clip-rule="evenodd" d="M28.6206 20.2577L28.1874 19.8257V17.5963L28.7366 17.0563L29.2781 17.5963V19.8257L28.7366 20.3734L28.6206 20.2577Z" fill="#CF1A20"/>
<path fill-rule="evenodd" clip-rule="evenodd" d="M29.8969 18.2134L30.392 18.7148L29.8505 19.2548H27.615L27.0735 18.7148L27.615 18.1671H29.8505L29.8969 18.2134Z" fill="#EE2A26"/>
<path fill-rule="evenodd" clip-rule="evenodd" d="M35.2652 23.5748L34.832 23.1428V20.9134L35.3812 20.3734L35.9227 20.9134V23.1428L35.3812 23.6828L35.2652 23.5748Z" fill="#CF1A20"/>
<path fill-rule="evenodd" clip-rule="evenodd" d="M36.5416 21.5305L37.0443 22.0243L36.4951 22.572H34.2674L33.7182 22.0243L34.2674 21.4843H36.4951L36.5416 21.5305Z" fill="#EE2A26"/>
<path fill-rule="evenodd" clip-rule="evenodd" d="M31.9468 20.2577L31.5136 19.8257V17.5963L32.0551 17.0563L32.6043 17.5963V19.8257L32.0551 20.3734L31.9468 20.2577Z" fill="#CF1A20"/>
<path fill-rule="evenodd" clip-rule="evenodd" d="M33.2231 18.2134L33.7182 18.7148L33.1767 19.2548H30.9412L30.392 18.7148L30.9412 18.1671H33.1767L33.2231 18.2134Z" fill="#EE2A26"/>
<path fill-rule="evenodd" clip-rule="evenodd" d="M33.6099 21.9163L33.1767 21.4843V19.2548L33.7182 18.7148L34.2674 19.2548V21.4843L33.7182 22.0243L33.6099 21.9163Z" fill="#CF1A20"/>
<path fill-rule="evenodd" clip-rule="evenodd" d="M34.8785 19.872L35.3813 20.3734L34.8321 20.9134H32.6043L32.0551 20.3734L32.6043 19.8257H34.8321L34.8785 19.872Z" fill="#EE2A26"/>
<path fill-rule="evenodd" clip-rule="evenodd" d="M35.2652 20.2577L34.832 19.8257V17.5963L35.3812 17.0563L35.9227 17.5963V19.8257L35.3812 20.3734L35.2652 20.2577Z" fill="#CF1A20"/>
<path fill-rule="evenodd" clip-rule="evenodd" d="M36.5416 18.2134L37.0443 18.7148L36.4951 19.2548H34.2674L33.7182 18.7148L34.2674 18.1671H36.4951L36.5416 18.2134Z" fill="#EE2A26"/>
<path fill-rule="evenodd" clip-rule="evenodd" d="M27.1818 35.1694L27.615 34.7374H29.8505L30.392 35.2851L29.8505 35.8251H27.615L27.0735 35.2851L27.1818 35.1694Z" fill="#CF1A20"/>
<path fill-rule="evenodd" clip-rule="evenodd" d="M29.2317 36.4423L28.7366 36.9437L28.1874 36.396V34.1743L28.7366 33.6266L29.2781 34.1743V36.396L29.2317 36.4423Z" fill="#EE2A26"/>
<path fill-rule="evenodd" clip-rule="evenodd" d="M33.8265 28.5428L34.2674 28.1108H36.4951L37.0443 28.6586L36.4951 29.1986H34.2674L33.7182 28.6586L33.8265 28.5428Z" fill="#CF1A20"/>
<path fill-rule="evenodd" clip-rule="evenodd" d="M35.8763 29.8157L35.3812 30.3094L34.832 29.7694V27.54L35.3812 27L35.9227 27.54V29.7694L35.8763 29.8157Z" fill="#EE2A26"/>
<path fill-rule="evenodd" clip-rule="evenodd" d="M30.508 35.1694L30.9412 34.7374H33.1767L33.7182 35.2851L33.1767 35.8251H30.9412L30.392 35.2851L30.508 35.1694Z" fill="#CF1A20"/>
<path fill-rule="evenodd" clip-rule="evenodd" d="M32.5579 36.4423L32.0551 36.9437L31.5136 36.396V34.1743L32.0551 33.6266L32.6043 34.1743V36.396L32.5579 36.4423Z" fill="#EE2A26"/>
<path fill-rule="evenodd" clip-rule="evenodd" d="M33.8265 31.86L34.2674 31.428H36.4951L37.0443 31.968L36.4951 32.5158H34.2674L33.7182 31.968L33.8265 31.86Z" fill="#CF1A20"/>
<path fill-rule="evenodd" clip-rule="evenodd" d="M35.8763 33.1329L35.3812 33.6266L34.832 33.0866V30.8572L35.3812 30.3094L35.9227 30.8572V33.0866L35.8763 33.1329Z" fill="#EE2A26"/>
<path fill-rule="evenodd" clip-rule="evenodd" d="M32.1711 33.5186L32.6043 33.0866H34.8321L35.3813 33.6266L34.8321 34.1743H32.6043L32.0551 33.6266L32.1711 33.5186Z" fill="#CF1A20"/>
<path fill-rule="evenodd" clip-rule="evenodd" d="M34.221 34.7837L33.7182 35.2852L33.1767 34.7374V32.5157L33.7182 31.968L34.2674 32.5157V34.7374L34.221 34.7837Z" fill="#EE2A26"/>
<path fill-rule="evenodd" clip-rule="evenodd" d="M33.8265 35.1694L34.2674 34.7374H36.4951L37.0443 35.2851L36.4951 35.8251H34.2674L33.7182 35.2851L33.8265 35.1694Z" fill="#CF1A20"/>
<path fill-rule="evenodd" clip-rule="evenodd" d="M35.8763 36.4423L35.3812 36.9437L34.832 36.396V34.1743L35.3812 33.6266L35.9227 34.1743V36.396L35.8763 36.4423Z" fill="#EE2A26"/>
<path fill-rule="evenodd" clip-rule="evenodd" d="M40.2545 18.5991L39.8213 18.1671H37.5858L37.0443 18.7148L37.5858 19.2548H39.8213L40.3628 18.7148L40.2545 18.5991Z" fill="#CF1A20"/>
<path fill-rule="evenodd" clip-rule="evenodd" d="M38.2046 19.872L38.6997 20.3734L39.2489 19.8257V17.5963L38.6997 17.0563L38.1582 17.5963V19.8257L38.2046 19.872Z" fill="#EE2A26"/>
<path fill-rule="evenodd" clip-rule="evenodd" d="M41.9175 16.9483L41.4844 16.5085H39.2489L38.6996 17.0563L39.2489 17.5963H41.4844L42.0258 17.0563L41.9175 16.9483Z" fill="#CF1A20"/>
<path fill-rule="evenodd" clip-rule="evenodd" d="M39.8677 18.2134L40.3627 18.7148L40.9119 18.1671V15.9454L40.3627 15.3977L39.8213 15.9454V18.1671L39.8677 18.2134Z" fill="#EE2A26"/>
<path fill-rule="evenodd" clip-rule="evenodd" d="M43.5729 15.2897L43.1397 14.8577H40.912L40.3628 15.3977L40.912 15.9454H43.1397L43.6889 15.3977L43.5729 15.2897Z" fill="#CF1A20"/>
<path fill-rule="evenodd" clip-rule="evenodd" d="M41.5308 16.5548L42.0258 17.0563L42.5751 16.5086V14.2869L42.0258 13.7391L41.4844 14.2869V16.5086L41.5308 16.5548Z" fill="#EE2A26"/>
<path fill-rule="evenodd" clip-rule="evenodd" d="M40.2545 15.2897L39.8213 14.8577H37.5858L37.0443 15.3977L37.5858 15.9454H39.8213L40.3628 15.3977L40.2545 15.2897Z" fill="#CF1A20"/>
<path fill-rule="evenodd" clip-rule="evenodd" d="M38.2046 16.5548L38.6997 17.0563L39.2489 16.5086V14.2869L38.6997 13.7391L38.1582 14.2869V16.5086L38.2046 16.5548Z" fill="#EE2A26"/>
<path fill-rule="evenodd" clip-rule="evenodd" d="M36.9283 15.2897L36.4951 14.8577H34.2673L33.7181 15.3977L34.2673 15.9454H36.4951L37.0443 15.3977L36.9283 15.2897Z" fill="#CF1A20"/>
<path fill-rule="evenodd" clip-rule="evenodd" d="M34.8784 16.5548L35.3812 17.0563L35.9227 16.5086V14.2869L35.3812 13.7391L34.832 14.2869V16.5086L34.8784 16.5548Z" fill="#EE2A26"/>
<path fill-rule="evenodd" clip-rule="evenodd" d="M38.5914 13.6311L38.1582 13.1991H35.9227L35.3812 13.7391L35.9227 14.2868H38.1582L38.6997 13.7391L38.5914 13.6311Z" fill="#CF1A20"/>
<path fill-rule="evenodd" clip-rule="evenodd" d="M36.5415 14.904L37.0443 15.3977L37.5858 14.8577V12.6283L37.0443 12.0883L36.4951 12.6283V14.8577L36.5415 14.904Z" fill="#EE2A26"/>
<path fill-rule="evenodd" clip-rule="evenodd" d="M40.2545 11.9725L39.8213 11.5405H37.5858L37.0443 12.0882L37.5858 12.6282H39.8213L40.3628 12.0882L40.2545 11.9725Z" fill="#CF1A20"/>
<path fill-rule="evenodd" clip-rule="evenodd" d="M38.2046 13.2454L38.6997 13.7391L39.2489 13.1991V10.9697L38.6997 10.4297L38.1582 10.9697V13.1991L38.2046 13.2454Z" fill="#EE2A26"/>
<path fill-rule="evenodd" clip-rule="evenodd" d="M13.6682 22.14L13.2351 22.572H10.9996L10.4581 22.0243L10.9996 21.4843H13.2351L13.7765 22.0243L13.6682 22.14Z" fill="#414042"/>
<path fill-rule="evenodd" clip-rule="evenodd" d="M11.6184 20.8671L12.1212 20.3734L12.6627 20.9134V23.1428L12.1212 23.6828L11.572 23.1428V20.9134L11.6184 20.8671Z" fill="#58595B"/>
<path fill-rule="evenodd" clip-rule="evenodd" d="M16.9944 25.4495L16.5613 25.8815H14.3258L13.7766 25.3415L14.3258 24.8015H16.5613L17.1027 25.3415L16.9944 25.4495Z" fill="#414042"/>
<path fill-rule="evenodd" clip-rule="evenodd" d="M14.9446 24.1843L15.4396 23.6829L15.9888 24.2306V26.4523L15.4396 27L14.8982 26.4523V24.2306L14.9446 24.1843Z" fill="#58595B"/>
<path fill-rule="evenodd" clip-rule="evenodd" d="M12.0052 23.7986L11.572 24.2306H9.33648L8.79501 23.6829L9.33648 23.1429H11.572L12.1212 23.6829L12.0052 23.7986Z" fill="#414042"/>
<path fill-rule="evenodd" clip-rule="evenodd" d="M9.95532 22.5257L10.4581 22.0243L10.9996 22.572V24.8014L10.4581 25.3414L9.90891 24.8014V22.572L9.95532 22.5257Z" fill="#58595B"/>
<path fill-rule="evenodd" clip-rule="evenodd" d="M15.3313 27.108L14.8982 27.54H12.6627L12.1212 27L12.6627 26.4523H14.8982L15.4396 27L15.3313 27.108Z" fill="#414042"/>
<path fill-rule="evenodd" clip-rule="evenodd" d="M13.2815 25.8429L13.7765 25.3414L14.3258 25.8814V28.1109L13.7765 28.6586L13.2351 28.1109V25.8814L13.2815 25.8429Z" fill="#58595B"/>
<path fill-rule="evenodd" clip-rule="evenodd" d="M16.9944 28.7666L16.5613 29.1986H14.3258L13.7766 28.6586L14.3258 28.1108H16.5613L17.1027 28.6586L16.9944 28.7666Z" fill="#414042"/>
<path fill-rule="evenodd" clip-rule="evenodd" d="M14.9446 27.4937L15.4396 27L15.9888 27.54V29.7694L15.4396 30.3094L14.8982 29.7694V27.54L14.9446 27.4937Z" fill="#58595B"/>
<path fill-rule="evenodd" clip-rule="evenodd" d="M16.9944 32.0837L16.5613 32.5157H14.3258L13.7766 31.968L14.3258 31.428H16.5613L17.1027 31.968L16.9944 32.0837Z" fill="#414042"/>
<path fill-rule="evenodd" clip-rule="evenodd" d="M14.9446 30.8108L15.4396 30.3094L15.9888 30.8571V33.0865L15.4396 33.6265L14.8982 33.0865V30.8571L14.9446 30.8108Z" fill="#58595B"/>
<path fill-rule="evenodd" clip-rule="evenodd" d="M8.68673 27.108L8.24581 27.54H6.01805L5.46884 27L6.01805 26.4523H8.24581L8.79502 27L8.68673 27.108Z" fill="#414042"/>
<path fill-rule="evenodd" clip-rule="evenodd" d="M6.63687 25.8429L7.13192 25.3414L7.68113 25.8814V28.1109L7.13192 28.6586L6.59045 28.1109V25.8814L6.63687 25.8429Z" fill="#58595B"/>
<path fill-rule="evenodd" clip-rule="evenodd" d="M16.9944 22.14L16.5613 22.572H14.3258L13.7766 22.0243L14.3258 21.4843H16.5613L17.1027 22.0243L16.9944 22.14Z" fill="#414042"/>
<path fill-rule="evenodd" clip-rule="evenodd" d="M14.9446 20.8671L15.4396 20.3734L15.9888 20.9134V23.1428L15.4396 23.6828L14.8982 23.1428V20.9134L14.9446 20.8671Z" fill="#58595B"/>
<path fill-rule="evenodd" clip-rule="evenodd" d="M12.0052 30.4251L11.572 30.8571H9.33648L8.79501 30.3094L9.33648 29.7694H11.572L12.1212 30.3094L12.0052 30.4251Z" fill="#414042"/>
<path fill-rule="evenodd" clip-rule="evenodd" d="M9.95532 29.1523L10.4581 28.6586L10.9996 29.1986V31.428L10.4581 31.968L9.90891 31.428V29.1986L9.95532 29.1523Z" fill="#58595B"/>
<path fill-rule="evenodd" clip-rule="evenodd" d="M13.6682 32.0837L13.2351 32.5157H10.9996L10.4581 31.968L10.9996 31.428H13.2351L13.7765 31.968L13.6682 32.0837Z" fill="#414042"/>
<path fill-rule="evenodd" clip-rule="evenodd" d="M11.6184 30.8108L12.1212 30.3094L12.6627 30.8571V33.0865L12.1212 33.6265L11.572 33.0865V30.8571L11.6184 30.8108Z" fill="#58595B"/>
<path fill-rule="evenodd" clip-rule="evenodd" d="M12.0052 27.108L11.572 27.54H9.33648L8.79501 27L9.33648 26.4523H11.572L12.1212 27L12.0052 27.108Z" fill="#414042"/>
<path fill-rule="evenodd" clip-rule="evenodd" d="M9.95532 25.8429L10.4581 25.3414L10.9996 25.8814V28.1109L10.4581 28.6586L9.90891 28.1109V25.8814L9.95532 25.8429Z" fill="#58595B"/>
<path fill-rule="evenodd" clip-rule="evenodd" d="M22.0842 13.7391L22.5174 13.3071V11.0854L21.976 10.5377L21.4345 11.0854V13.3071L21.976 13.8549L22.0842 13.7391Z" fill="#414042"/>
<path fill-rule="evenodd" clip-rule="evenodd" d="M20.8157 11.6948L20.3129 12.1963L20.8621 12.7363H23.0898L23.639 12.1963L23.0898 11.6486H20.8621L20.8157 11.6948Z" fill="#58595B"/>
<path fill-rule="evenodd" clip-rule="evenodd" d="M25.4104 17.0563L25.8436 16.6243V14.3949L25.3021 13.8549L24.7529 14.3949V16.6243L25.3021 17.1643L25.4104 17.0563Z" fill="#414042"/>
<path fill-rule="evenodd" clip-rule="evenodd" d="M24.1341 15.012L23.639 15.5134L24.1805 16.0534H26.416L26.9575 15.5134L26.416 14.9657H24.1805L24.1341 15.012Z" fill="#58595B"/>
<path fill-rule="evenodd" clip-rule="evenodd" d="M23.7473 12.0883L24.1805 11.6486V9.42686L23.639 8.87915L23.0898 9.42686V11.6486L23.639 12.1963L23.7473 12.0883Z" fill="#414042"/>
<path fill-rule="evenodd" clip-rule="evenodd" d="M22.4787 10.044L21.976 10.5377L22.5174 11.0855H24.7529L25.3021 10.5377L24.7529 9.99774H22.5174L22.4787 10.044Z" fill="#58595B"/>
<path fill-rule="evenodd" clip-rule="evenodd" d="M27.0735 15.3977L27.5067 14.9657V12.7363L26.9575 12.1963L26.416 12.7363V14.9657L26.9575 15.5134L27.0735 15.3977Z" fill="#414042"/>
<path fill-rule="evenodd" clip-rule="evenodd" d="M25.7972 13.3534L25.3021 13.8548L25.8436 14.3948H28.0791L28.6206 13.8548L28.0791 13.3071H25.8436L25.7972 13.3534Z" fill="#58595B"/>
<path fill-rule="evenodd" clip-rule="evenodd" d="M28.7366 17.0563L29.1698 16.6243V14.3949L28.6206 13.8549L28.0791 14.3949V16.6243L28.6206 17.1643L28.7366 17.0563Z" fill="#414042"/>
<path fill-rule="evenodd" clip-rule="evenodd" d="M27.4603 15.012L26.9575 15.5134L27.5067 16.0534H29.7422L30.2837 15.5134L29.7422 14.9657H27.5067L27.4603 15.012Z" fill="#58595B"/>
<path fill-rule="evenodd" clip-rule="evenodd" d="M32.0551 17.0563L32.4882 16.6243V14.3949L31.9468 13.8549L31.3976 14.3949V16.6243L31.9468 17.1643L32.0551 17.0563Z" fill="#414042"/>
<path fill-rule="evenodd" clip-rule="evenodd" d="M30.7865 15.012L30.2837 15.5134L30.8329 16.0534H33.0606L33.6098 15.5134L33.0606 14.9657H30.8329L30.7865 15.012Z" fill="#58595B"/>
<path fill-rule="evenodd" clip-rule="evenodd" d="M27.0735 8.77113L27.5067 8.33913V6.1097L26.9575 5.5697L26.416 6.1097V8.33913L26.9575 8.87913L27.0735 8.77113Z" fill="#414042"/>
<path fill-rule="evenodd" clip-rule="evenodd" d="M25.7972 6.72683L25.3021 7.22826L25.8436 7.76826H28.0791L28.6206 7.22826L28.0791 6.68054H25.8436L25.7972 6.72683Z" fill="#58595B"/>
<path fill-rule="evenodd" clip-rule="evenodd" d="M22.0842 17.0563L22.5174 16.6243V14.3949L21.976 13.8549L21.4345 14.3949V16.6243L21.976 17.1643L22.0842 17.0563Z" fill="#414042"/>
<path fill-rule="evenodd" clip-rule="evenodd" d="M20.8157 15.012L20.3129 15.5134L20.8621 16.0534H23.0898L23.639 15.5134L23.0898 14.9657H20.8621L20.8157 15.012Z" fill="#58595B"/>
<path fill-rule="evenodd" clip-rule="evenodd" d="M30.392 12.0883L30.8329 11.6486V9.42686L30.2837 8.87915L29.7422 9.42686V11.6486L30.2837 12.1963L30.392 12.0883Z" fill="#414042"/>
<path fill-rule="evenodd" clip-rule="evenodd" d="M29.1234 10.044L28.6206 10.5377L29.1698 11.0855H31.3975L31.9467 10.5377L31.3975 9.99774H29.1698L29.1234 10.044Z" fill="#58595B"/>
<path fill-rule="evenodd" clip-rule="evenodd" d="M32.0551 13.7391L32.4882 13.3071V11.0854L31.9468 10.5377L31.3976 11.0854V13.3071L31.9468 13.8549L32.0551 13.7391Z" fill="#414042"/>
<path fill-rule="evenodd" clip-rule="evenodd" d="M30.7865 11.6948L30.2837 12.1963L30.8329 12.7363H33.0606L33.6098 12.1963L33.0606 11.6486H30.8329L30.7865 11.6948Z" fill="#58595B"/>
<path fill-rule="evenodd" clip-rule="evenodd" d="M27.0735 12.0883L27.5067 11.6486V9.42686L26.9575 8.87915L26.416 9.42686V11.6486L26.9575 12.1963L27.0735 12.0883Z" fill="#414042"/>
<path fill-rule="evenodd" clip-rule="evenodd" d="M25.7972 10.044L25.3021 10.5377L25.8436 11.0855H28.0791L28.6206 10.5377L28.0791 9.99774H25.8436L25.7972 10.044Z" fill="#58595B"/>
<path fill-rule="evenodd" clip-rule="evenodd" d="M31.9468 40.3689L31.5136 40.8009V43.0226L32.055 43.5703L32.6043 43.0226V40.8009L32.055 40.2532L31.9468 40.3689Z" fill="#414042"/>
<path fill-rule="evenodd" clip-rule="evenodd" d="M33.2231 42.4132L33.7181 41.9117L33.1767 41.3717H30.9412L30.392 41.9117L30.9412 42.4594H33.1767L33.2231 42.4132Z" fill="#58595B"/>
<path fill-rule="evenodd" clip-rule="evenodd" d="M28.6206 37.0517L28.1874 37.4837V39.7132L28.7366 40.2532L29.2781 39.7132V37.4837L28.7366 36.9437L28.6206 37.0517Z" fill="#414042"/>
<path fill-rule="evenodd" clip-rule="evenodd" d="M29.8969 39.096L30.392 38.5946L29.8505 38.0546H27.615L27.0735 38.5946L27.615 39.1423H29.8505L29.8969 39.096Z" fill="#58595B"/>
<path fill-rule="evenodd" clip-rule="evenodd" d="M30.2837 42.0197L29.8505 42.4594V44.6811L30.392 45.2289L30.9412 44.6811V42.4594L30.392 41.9117L30.2837 42.0197Z" fill="#414042"/>
<path fill-rule="evenodd" clip-rule="evenodd" d="M31.56 44.064L32.0551 43.5703L31.5136 43.0226H29.2781L28.7366 43.5703L29.2781 44.1103H31.5136L31.56 44.064Z" fill="#58595B"/>
<path fill-rule="evenodd" clip-rule="evenodd" d="M26.9575 38.7103L26.5244 39.1423V41.3717L27.0736 41.9117L27.615 41.3717V39.1423L27.0736 38.5946L26.9575 38.7103Z" fill="#414042"/>
<path fill-rule="evenodd" clip-rule="evenodd" d="M28.2338 40.7546L28.7366 40.2531L28.1874 39.7131H25.9519L25.4105 40.2531L25.9519 40.8008H28.1874L28.2338 40.7546Z" fill="#58595B"/>
<path fill-rule="evenodd" clip-rule="evenodd" d="M25.3022 37.0517L24.869 37.4837V39.7132L25.4105 40.2532L25.9519 39.7132V37.4837L25.4105 36.9437L25.3022 37.0517Z" fill="#414042"/>
<path fill-rule="evenodd" clip-rule="evenodd" d="M26.5708 39.096L27.0736 38.5946L26.5243 38.0546H24.2966L23.7474 38.5946L24.2966 39.1423H26.5243L26.5708 39.096Z" fill="#58595B"/>
<path fill-rule="evenodd" clip-rule="evenodd" d="M21.976 37.0517L21.5428 37.4837V39.7132L22.0843 40.2532L22.6335 39.7132V37.4837L22.0843 36.9437L21.976 37.0517Z" fill="#414042"/>
<path fill-rule="evenodd" clip-rule="evenodd" d="M23.2523 39.096L23.7474 38.5946L23.2059 38.0546H20.9704L20.4289 38.5946L20.9704 39.1423H23.2059L23.2523 39.096Z" fill="#58595B"/>
<path fill-rule="evenodd" clip-rule="evenodd" d="M26.9575 45.3369L26.5244 45.7689V47.9983L27.0736 48.5383L27.615 47.9983V45.7689L27.0736 45.2289L26.9575 45.3369Z" fill="#414042"/>
<path fill-rule="evenodd" clip-rule="evenodd" d="M28.2338 47.3812L28.7366 46.8875L28.1874 46.3398H25.9519L25.4105 46.8875L25.9519 47.4275H28.1874L28.2338 47.3812Z" fill="#58595B"/>
<path fill-rule="evenodd" clip-rule="evenodd" d="M31.9468 37.0517L31.5136 37.4837V39.7132L32.055 40.2532L32.6043 39.7132V37.4837L32.055 36.9437L31.9468 37.0517Z" fill="#414042"/>
<path fill-rule="evenodd" clip-rule="evenodd" d="M33.2231 39.096L33.7181 38.5946L33.1767 38.0546H30.9412L30.392 38.5946L30.9412 39.1423H33.1767L33.2231 39.096Z" fill="#58595B"/>
<path fill-rule="evenodd" clip-rule="evenodd" d="M23.6391 42.0197L23.2059 42.4594V44.6811L23.7474 45.2289L24.2966 44.6811V42.4594L23.7474 41.9117L23.6391 42.0197Z" fill="#414042"/>
<path fill-rule="evenodd" clip-rule="evenodd" d="M24.9154 44.064L25.4105 43.5703L24.869 43.0226H22.6335L22.0843 43.5703L22.6335 44.1103H24.869L24.9154 44.064Z" fill="#58595B"/>
<path fill-rule="evenodd" clip-rule="evenodd" d="M21.976 40.3689L21.5428 40.8009V43.0226L22.0843 43.5703L22.6335 43.0226V40.8009L22.0843 40.2532L21.976 40.3689Z" fill="#414042"/>
<path fill-rule="evenodd" clip-rule="evenodd" d="M23.2523 42.4132L23.7474 41.9117L23.2059 41.3717H20.9704L20.4289 41.9117L20.9704 42.4594H23.2059L23.2523 42.4132Z" fill="#58595B"/>
<path fill-rule="evenodd" clip-rule="evenodd" d="M26.9575 42.0197L26.5244 42.4594V44.6811L27.0736 45.2289L27.615 44.6811V42.4594L27.0736 41.9117L26.9575 42.0197Z" fill="#414042"/>
<path fill-rule="evenodd" clip-rule="evenodd" d="M28.2338 44.064L28.7366 43.5703L28.1874 43.0226H25.9519L25.4105 43.5703L25.9519 44.1103H28.1874L28.2338 44.064Z" fill="#58595B"/>
<path fill-rule="evenodd" clip-rule="evenodd" d="M40.3628 31.968L40.796 31.536H43.0315L43.5807 32.0837L43.0315 32.6237H40.796L40.2545 32.0837L40.3628 31.968Z" fill="#414042"/>
<path fill-rule="evenodd" clip-rule="evenodd" d="M42.4126 33.2409L41.9176 33.7346L41.3683 33.1946V30.9652L41.9176 30.4252L42.459 30.9652V33.1946L42.4126 33.2409Z" fill="#58595B"/>
<path fill-rule="evenodd" clip-rule="evenodd" d="M37.0443 28.6586L37.4775 28.2266H39.7053L40.2545 28.7666L39.7053 29.3066H37.4775L36.9283 28.7666L37.0443 28.6586Z" fill="#414042"/>
<path fill-rule="evenodd" clip-rule="evenodd" d="M39.0942 29.9237L38.5914 30.4252L38.0499 29.8775V27.6557L38.5914 27.108L39.1406 27.6557V29.8775L39.0942 29.9237Z" fill="#58595B"/>
<path fill-rule="evenodd" clip-rule="evenodd" d="M42.0259 30.3094L42.459 29.8774H44.6945L45.236 30.4252L44.6945 30.9652H42.459L41.9176 30.4252L42.0259 30.3094Z" fill="#414042"/>
<path fill-rule="evenodd" clip-rule="evenodd" d="M44.0757 31.5823L43.5807 32.0837L43.0315 31.536V29.3066L43.5807 28.7666L44.1221 29.3066V31.536L44.0757 31.5823Z" fill="#58595B"/>
<path fill-rule="evenodd" clip-rule="evenodd" d="M38.6997 27.0001L39.1406 26.5681H41.3684L41.9176 27.1081L41.3684 27.6558H39.1406L38.5914 27.1081L38.6997 27.0001Z" fill="#414042"/>
<path fill-rule="evenodd" clip-rule="evenodd" d="M40.7496 28.2729L40.2545 28.7666L39.7053 28.2266V25.9972L40.2545 25.4495L40.796 25.9972V28.2266L40.7496 28.2729Z" fill="#58595B"/>
<path fill-rule="evenodd" clip-rule="evenodd" d="M37.0443 25.3414L37.4775 24.9094H39.7053L40.2545 25.4494L39.7053 25.9971H37.4775L36.9283 25.4494L37.0443 25.3414Z" fill="#414042"/>
<path fill-rule="evenodd" clip-rule="evenodd" d="M39.0942 26.6143L38.5914 27.108L38.0499 26.568V24.3386L38.5914 23.7986L39.1406 24.3386V26.568L39.0942 26.6143Z" fill="#58595B"/>
<path fill-rule="evenodd" clip-rule="evenodd" d="M37.0443 22.0243L37.4775 21.5923H39.7053L40.2545 22.14L39.7053 22.68H37.4775L36.9283 22.14L37.0443 22.0243Z" fill="#414042"/>
<path fill-rule="evenodd" clip-rule="evenodd" d="M39.0942 23.2972L38.5914 23.7986L38.0499 23.2509V21.0214L38.5914 20.4814L39.1406 21.0214V23.2509L39.0942 23.2972Z" fill="#58595B"/>
<path fill-rule="evenodd" clip-rule="evenodd" d="M45.3521 27.0001L45.7852 26.5681H48.013L48.5622 27.1081L48.013 27.6558H45.7852L45.236 27.1081L45.3521 27.0001Z" fill="#414042"/>
<path fill-rule="evenodd" clip-rule="evenodd" d="M47.4019 28.2729L46.8991 28.7666L46.3576 28.2266V25.9972L46.8991 25.4495L47.4483 25.9972V28.2266L47.4019 28.2729Z" fill="#58595B"/>
<path fill-rule="evenodd" clip-rule="evenodd" d="M37.0443 31.968L37.4775 31.536H39.7053L40.2545 32.0837L39.7053 32.6237H37.4775L36.9283 32.0837L37.0443 31.968Z" fill="#414042"/>
<path fill-rule="evenodd" clip-rule="evenodd" d="M39.0942 33.2409L38.5914 33.7346L38.0499 33.1946V30.9652L38.5914 30.4252L39.1406 30.9652V33.1946L39.0942 33.2409Z" fill="#58595B"/>
<path fill-rule="evenodd" clip-rule="evenodd" d="M42.0259 23.6829L42.459 23.2509H44.6945L45.236 23.7986L44.6945 24.3386H42.459L41.9176 23.7986L42.0259 23.6829Z" fill="#414042"/>
<path fill-rule="evenodd" clip-rule="evenodd" d="M44.0757 24.9557L43.5807 25.4494L43.0315 24.9094V22.68L43.5807 22.14L44.1221 22.68V24.9094L44.0757 24.9557Z" fill="#58595B"/>
<path fill-rule="evenodd" clip-rule="evenodd" d="M40.3628 22.0243L40.796 21.5923H43.0315L43.5807 22.14L43.0315 22.68H40.796L40.2545 22.14L40.3628 22.0243Z" fill="#414042"/>
<path fill-rule="evenodd" clip-rule="evenodd" d="M42.4126 23.2972L41.9176 23.7986L41.3683 23.2509V21.0214L41.9176 20.4814L42.459 21.0214V23.2509L42.4126 23.2972Z" fill="#58595B"/>
<path fill-rule="evenodd" clip-rule="evenodd" d="M42.0259 27.0001L42.459 26.5681H44.6945L45.236 27.1081L44.6945 27.6558H42.459L41.9176 27.1081L42.0259 27.0001Z" fill="#414042"/>
<path fill-rule="evenodd" clip-rule="evenodd" d="M44.0757 28.2729L43.5807 28.7666L43.0315 28.2266V25.9972L43.5807 25.4495L44.1221 25.9972V28.2266L44.0757 28.2729Z" fill="#58595B"/>
<path fill-rule="evenodd" clip-rule="evenodd" d="M16.9945 41.8037L16.5613 41.3717H14.3258L13.7766 41.9117L14.3258 42.4594H16.5613L17.1028 41.9117L16.9945 41.8037Z" fill="#CF1A20"/>
<path fill-rule="evenodd" clip-rule="evenodd" d="M14.9446 43.0688L15.4397 43.5703L15.9889 43.0225V40.8008L15.4397 40.2531L14.8982 40.8008V43.0225L14.9446 43.0688Z" fill="#EE2A26"/>
<path fill-rule="evenodd" clip-rule="evenodd" d="M18.6498 40.1451L18.2166 39.7131H15.9889L15.4397 40.2531L15.9889 40.8008H18.2166L18.7658 40.2531L18.6498 40.1451Z" fill="#CF1A20"/>
<path fill-rule="evenodd" clip-rule="evenodd" d="M16.6 41.418L17.1028 41.9117L17.6442 41.3717V39.1423L17.1028 38.5945L16.5613 39.1423V41.3717L16.6 41.418Z" fill="#EE2A26"/>
<path fill-rule="evenodd" clip-rule="evenodd" d="M20.3129 38.4866L19.8797 38.0546H17.6442L17.1028 38.5946L17.6442 39.1423H19.8797L20.4289 38.5946L20.3129 38.4866Z" fill="#CF1A20"/>
<path fill-rule="evenodd" clip-rule="evenodd" d="M18.2631 39.7594L18.7659 40.2531L19.3073 39.7131V37.4837L18.7659 36.9437L18.2166 37.4837V39.7131L18.2631 39.7594Z" fill="#EE2A26"/>
<path fill-rule="evenodd" clip-rule="evenodd" d="M16.9945 38.4866L16.5613 38.0546H14.3258L13.7766 38.5946L14.3258 39.1423H16.5613L17.1028 38.5946L16.9945 38.4866Z" fill="#CF1A20"/>
<path fill-rule="evenodd" clip-rule="evenodd" d="M14.9446 39.7594L15.4397 40.2531L15.9889 39.7131V37.4837L15.4397 36.9437L14.8982 37.4837V39.7131L14.9446 39.7594Z" fill="#EE2A26"/>
<path fill-rule="evenodd" clip-rule="evenodd" d="M13.6683 38.4866L13.2351 38.0546H10.9996L10.4581 38.5946L10.9996 39.1423H13.2351L13.7766 38.5946L13.6683 38.4866Z" fill="#CF1A20"/>
<path fill-rule="evenodd" clip-rule="evenodd" d="M11.6184 39.7594L12.1212 40.2531L12.6627 39.7131V37.4837L12.1212 36.9437L11.572 37.4837V39.7131L11.6184 39.7594Z" fill="#EE2A26"/>
<path fill-rule="evenodd" clip-rule="evenodd" d="M15.3314 36.828L14.8982 36.396H12.6627L12.1212 36.9437L12.6627 37.4837H14.8982L15.4397 36.9437L15.3314 36.828Z" fill="#CF1A20"/>
<path fill-rule="evenodd" clip-rule="evenodd" d="M13.2815 38.1008L13.7766 38.5945L14.3258 38.0546V35.8251L13.7766 35.2851L13.2351 35.8251V38.0546L13.2815 38.1008Z" fill="#EE2A26"/>
<path fill-rule="evenodd" clip-rule="evenodd" d="M16.9945 35.1694L16.5613 34.7374H14.3258L13.7766 35.2851L14.3258 35.8251H16.5613L17.1028 35.2851L16.9945 35.1694Z" fill="#CF1A20"/>
<path fill-rule="evenodd" clip-rule="evenodd" d="M14.9446 36.4423L15.4397 36.9437L15.9889 36.396V34.1666L15.4397 33.6266L14.8982 34.1666V36.396L14.9446 36.4423Z" fill="#EE2A26"/>
<path fill-rule="evenodd" clip-rule="evenodd" d="M35.4895 40.1451L35.9227 39.7131V37.4837L35.3812 36.9437L34.832 37.4837V39.7131L35.3812 40.2531L35.4895 40.1451Z" fill="#CF1A20"/>
<path fill-rule="evenodd" clip-rule="evenodd" d="M34.2209 38.1008L33.7181 38.5946L34.2673 39.1423H36.4951L37.0443 38.5946L36.4951 38.0546H34.2673L34.2209 38.1008Z" fill="#EE2A26"/>
<path fill-rule="evenodd" clip-rule="evenodd" d="M37.1526 41.8037L37.5858 41.3717V39.1423L37.0443 38.5945L36.4951 39.1423V41.3717L37.0443 41.9117L37.1526 41.8037Z" fill="#CF1A20"/>
<path fill-rule="evenodd" clip-rule="evenodd" d="M35.8763 39.7594L35.3812 40.2531L35.9227 40.8008H38.1582L38.6997 40.2531L38.1582 39.7131H35.9227L35.8763 39.7594Z" fill="#EE2A26"/>
<path fill-rule="evenodd" clip-rule="evenodd" d="M38.8157 43.4545L39.2489 43.0225V40.8008L38.6997 40.2531L38.1582 40.8008V43.0225L38.6997 43.5703L38.8157 43.4545Z" fill="#CF1A20"/>
<path fill-rule="evenodd" clip-rule="evenodd" d="M37.5394 41.418L37.0443 41.9117L37.5858 42.4594H39.8213L40.3628 41.9117L39.8213 41.3717H37.5858L37.5394 41.418Z" fill="#EE2A26"/>
<path fill-rule="evenodd" clip-rule="evenodd" d="M38.8157 40.1451L39.2489 39.7131V37.4837L38.6997 36.9437L38.1582 37.4837V39.7131L38.6997 40.2531L38.8157 40.1451Z" fill="#CF1A20"/>
<path fill-rule="evenodd" clip-rule="evenodd" d="M37.5394 38.1008L37.0443 38.5946L37.5858 39.1423H39.8213L40.3628 38.5946L39.8213 38.0546H37.5858L37.5394 38.1008Z" fill="#EE2A26"/>
<path fill-rule="evenodd" clip-rule="evenodd" d="M38.8157 36.828L39.2489 36.396V34.1666L38.6997 33.6266L38.1582 34.1666V36.396L38.6997 36.9437L38.8157 36.828Z" fill="#CF1A20"/>
<path fill-rule="evenodd" clip-rule="evenodd" d="M37.5394 34.7837L37.0443 35.2851L37.5858 35.8251H39.8213L40.3628 35.2851L39.8213 34.7374H37.5858L37.5394 34.7837Z" fill="#EE2A26"/>
<path fill-rule="evenodd" clip-rule="evenodd" d="M40.4788 38.4865L40.9119 38.0546V35.8251L40.3627 35.2851L39.8213 35.8251V38.0546L40.3627 38.5945L40.4788 38.4865Z" fill="#CF1A20"/>
<path fill-rule="evenodd" clip-rule="evenodd" d="M39.2024 36.4423L38.6996 36.9437L39.2489 37.4837H41.4844L42.0258 36.9437L41.4844 36.396H39.2489L39.2024 36.4423Z" fill="#EE2A26"/>
<path fill-rule="evenodd" clip-rule="evenodd" d="M42.1419 40.1451L42.5751 39.7131V37.4837L42.0258 36.9437L41.4844 37.4837V39.7131L42.0258 40.2531L42.1419 40.1451Z" fill="#CF1A20"/>
<path fill-rule="evenodd" clip-rule="evenodd" d="M40.8656 38.1008L40.3628 38.5946L40.912 39.1423H43.1397L43.6889 38.5946L43.1397 38.0546H40.912L40.8656 38.1008Z" fill="#EE2A26"/>
<path fill-rule="evenodd" clip-rule="evenodd" d="M12.2295 16.9483L12.6627 16.5086V14.2869L12.1212 13.7391L11.572 14.2869V16.5086L12.1212 17.0563L12.2295 16.9483Z" fill="#CF1A20"/>
<path fill-rule="evenodd" clip-rule="evenodd" d="M10.9532 14.904L10.4581 15.3977L10.9996 15.9454H13.2351L13.7766 15.3977L13.2351 14.8577H10.9996L10.9532 14.904Z" fill="#EE2A26"/>
<path fill-rule="evenodd" clip-rule="evenodd" d="M13.8926 18.5991L14.3258 18.1671V15.9454L13.7766 15.3977L13.2351 15.9454V18.1671L13.7766 18.7148L13.8926 18.5991Z" fill="#CF1A20"/>
<path fill-rule="evenodd" clip-rule="evenodd" d="M12.6163 16.5548L12.1212 17.0563L12.6627 17.5963H14.8982L15.4397 17.0563L14.8982 16.5085H12.6627L12.6163 16.5548Z" fill="#EE2A26"/>
<path fill-rule="evenodd" clip-rule="evenodd" d="M15.5557 20.2577L15.9889 19.8257V17.5963L15.4397 17.0563L14.8982 17.5963V19.8257L15.4397 20.3734L15.5557 20.2577Z" fill="#CF1A20"/>
<path fill-rule="evenodd" clip-rule="evenodd" d="M14.2794 18.2134L13.7766 18.7148L14.3258 19.2548H16.5613L17.1028 18.7148L16.5613 18.1671H14.3258L14.2794 18.2134Z" fill="#EE2A26"/>
<path fill-rule="evenodd" clip-rule="evenodd" d="M15.5557 16.9483L15.9889 16.5086V14.2869L15.4397 13.7391L14.8982 14.2869V16.5086L15.4397 17.0563L15.5557 16.9483Z" fill="#CF1A20"/>
<path fill-rule="evenodd" clip-rule="evenodd" d="M14.2794 14.904L13.7766 15.3977L14.3258 15.9454H16.5613L17.1028 15.3977L16.5613 14.8577H14.3258L14.2794 14.904Z" fill="#EE2A26"/>
<path fill-rule="evenodd" clip-rule="evenodd" d="M15.5557 13.6311L15.9889 13.1991V10.9697L15.4397 10.4297L14.8982 10.9697V13.1991L15.4397 13.7391L15.5557 13.6311Z" fill="#CF1A20"/>
<path fill-rule="evenodd" clip-rule="evenodd" d="M14.2794 11.5868L13.7766 12.0882L14.3258 12.6282H16.5613L17.1028 12.0882L16.5613 11.5405H14.3258L14.2794 11.5868Z" fill="#EE2A26"/>
<path fill-rule="evenodd" clip-rule="evenodd" d="M17.211 15.2897L17.6442 14.8577V12.6283L17.1028 12.0883L16.5613 12.6283V14.8577L17.1028 15.3977L17.211 15.2897Z" fill="#CF1A20"/>
<path fill-rule="evenodd" clip-rule="evenodd" d="M15.9425 13.2454L15.4397 13.7391L15.9889 14.2868H18.2166L18.7658 13.7391L18.2166 13.1991H15.9889L15.9425 13.2454Z" fill="#EE2A26"/>
<path fill-rule="evenodd" clip-rule="evenodd" d="M18.8741 16.9483L19.3073 16.5086V14.2869L18.7659 13.7391L18.2166 14.2869V16.5086L18.7659 17.0563L18.8741 16.9483Z" fill="#CF1A20"/>
<path fill-rule="evenodd" clip-rule="evenodd" d="M17.5978 14.904L17.1028 15.3977L17.6442 15.9454H19.8797L20.4289 15.3977L19.8797 14.8577H17.6442L17.5978 14.904Z" fill="#EE2A26"/>
<path fill-rule="evenodd" clip-rule="evenodd" d="M7.04686 32.7009V32.0914L5.46886 30.51H4.70306V31.2814L6.28106 32.8552H7.04686V32.7009Z" fill="#CF1A20"/>
<path fill-rule="evenodd" clip-rule="evenodd" d="M4.70306 32.1532V32.8552H5.46886L7.04686 31.2814V30.51H6.28106L4.70306 32.0914V32.1532Z" fill="#EE2A26"/>
<path fill-rule="evenodd" clip-rule="evenodd" d="M7.04686 23.328V22.7109L5.46886 21.1371H4.70306V21.9086L6.28106 23.4823H7.04686V23.328Z" fill="#CF1A20"/>
<path fill-rule="evenodd" clip-rule="evenodd" d="M4.70306 22.7803V23.4823H5.46886L7.04686 21.9086V21.1371H6.28106L4.70306 22.7109V22.7803Z" fill="#EE2A26"/>
<path fill-rule="evenodd" clip-rule="evenodd" d="M4.70306 30.3557V29.7463L3.11733 28.1725H2.35153V28.9363L3.92953 30.51H4.70306V30.3557Z" fill="#CF1A20"/>
<path fill-rule="evenodd" clip-rule="evenodd" d="M2.35153 29.808V30.51H3.11733L4.70306 28.9363V28.1725H3.92953L2.35153 29.7463V29.808Z" fill="#EE2A26"/>
<path fill-rule="evenodd" clip-rule="evenodd" d="M4.70306 25.6732V25.056L3.11733 23.4823H2.35153V24.2537L3.92953 25.8274H4.70306V25.6732Z" fill="#CF1A20"/>
<path fill-rule="evenodd" clip-rule="evenodd" d="M2.35153 25.1254V25.8274H3.11733L4.70306 24.2537V23.4823H3.92953L2.35153 25.056V25.1254Z" fill="#EE2A26"/>
<path fill-rule="evenodd" clip-rule="evenodd" d="M4.70306 28.0106V27.4012L3.11733 25.8275H2.35153V26.5989L3.92953 28.1726H4.70306V28.0106Z" fill="#CF1A20"/>
<path fill-rule="evenodd" clip-rule="evenodd" d="M2.35153 27.4629V28.1726H3.11733L4.70306 26.5989V25.8275H3.92953L2.35153 27.4012V27.4629Z" fill="#EE2A26"/>
<path fill-rule="evenodd" clip-rule="evenodd" d="M2.35153 28.0106V27.4012L0.773529 25.8275H0V26.5989L1.578 28.1726H2.35153V28.0106Z" fill="#CF1A20"/>
<path fill-rule="evenodd" clip-rule="evenodd" d="M0 27.4629V28.1726H0.773529L2.35153 26.5989V25.8275H1.578L0 27.4012V27.4629Z" fill="#EE2A26"/>
<path fill-rule="evenodd" clip-rule="evenodd" d="M32.7899 7.02774H32.1788L30.6008 5.45402V4.69031H31.3666L32.9446 6.26402V7.02774H32.7899Z" fill="#CF1A20"/>
<path fill-rule="evenodd" clip-rule="evenodd" d="M32.2407 4.69031H32.9446V5.45402L31.3666 7.02774H30.6008V6.26402L32.1788 4.69031H32.2407Z" fill="#EE2A26"/>
<path fill-rule="evenodd" clip-rule="evenodd" d="M23.3915 7.02774H22.7727L21.1947 5.45402V4.69031H21.9682L23.5462 6.26402V7.02774H23.3915Z" fill="#CF1A20"/>
<path fill-rule="evenodd" clip-rule="evenodd" d="M22.8423 4.69031H23.5462V5.45402L21.9682 7.02774H21.1947V6.26402L22.7727 4.69031H22.8423Z" fill="#EE2A26"/>
<path fill-rule="evenodd" clip-rule="evenodd" d="M30.4384 4.6903H29.8273L28.2493 3.10887V2.34515H29.0151L30.6008 3.91887V4.6903H30.4384Z" fill="#CF1A20"/>
<path fill-rule="evenodd" clip-rule="evenodd" d="M29.8892 2.34515H30.6008V3.10887L29.0151 4.6903H28.2493V3.91887L29.8273 2.34515H29.8892Z" fill="#EE2A26"/>
<path fill-rule="evenodd" clip-rule="evenodd" d="M25.7431 4.6903H25.1242L23.5462 3.10887V2.34515H24.3198L25.8978 3.91887V4.6903H25.7431Z" fill="#CF1A20"/>
<path fill-rule="evenodd" clip-rule="evenodd" d="M25.1939 2.34515H25.8978V3.10887L24.3198 4.6903H23.5462V3.91887L25.1242 2.34515H25.1939Z" fill="#EE2A26"/>
<path fill-rule="evenodd" clip-rule="evenodd" d="M28.0869 4.6903H27.4758L25.8978 3.10887V2.34515H26.6713L28.2493 3.91887V4.6903H28.0869Z" fill="#CF1A20"/>
<path fill-rule="evenodd" clip-rule="evenodd" d="M27.5376 2.34515H28.2493V3.10887L26.6713 4.6903H25.8978V3.91887L27.4758 2.34515H27.5376Z" fill="#EE2A26"/>
<path fill-rule="evenodd" clip-rule="evenodd" d="M28.0869 2.34514H27.4758L25.8978 0.771429V0H26.6713L28.2493 1.57371V2.34514H28.0869Z" fill="#CF1A20"/>
<path fill-rule="evenodd" clip-rule="evenodd" d="M27.5376 0H28.2493V0.771429L26.6713 2.34514H25.8978V1.57371L27.4758 0H27.5376Z" fill="#EE2A26"/>
<path fill-rule="evenodd" clip-rule="evenodd" d="M21.3571 46.9646H21.9682L23.5462 48.5383V49.3097H22.7727L21.1947 47.736V46.9646H21.3571Z" fill="#CF1A20"/>
<path fill-rule="evenodd" clip-rule="evenodd" d="M21.9063 49.3097H21.1947V48.5383L22.7727 46.9646H23.5462V47.736L21.9682 49.3097H21.9063Z" fill="#EE2A26"/>
<path fill-rule="evenodd" clip-rule="evenodd" d="M30.7555 46.9646H31.3666L32.9446 48.5383V49.3097H32.1788L30.6008 47.736V46.9646H30.7555Z" fill="#CF1A20"/>
<path fill-rule="evenodd" clip-rule="evenodd" d="M31.3047 49.3097H30.6008V48.5383L32.1788 46.9646H32.9446V47.736L31.3666 49.3097H31.3047Z" fill="#EE2A26"/>
<path fill-rule="evenodd" clip-rule="evenodd" d="M23.7087 49.3097H24.3198L25.8978 50.8834V51.6548H25.1242L23.5462 50.0811V49.3097H23.7087Z" fill="#CF1A20"/>
<path fill-rule="evenodd" clip-rule="evenodd" d="M24.2501 51.6548H23.5462V50.8834L25.1242 49.3097H25.8978V50.0811L24.3198 51.6548H24.2501Z" fill="#EE2A26"/>
<path fill-rule="evenodd" clip-rule="evenodd" d="M28.404 49.3097H29.0151L30.6008 50.8834V51.6548H29.8273L28.2493 50.0811V49.3097H28.404Z" fill="#CF1A20"/>
<path fill-rule="evenodd" clip-rule="evenodd" d="M28.9532 51.6548H28.2493V50.8834L29.8273 49.3097H30.6008V50.0811L29.0151 51.6548H28.9532Z" fill="#EE2A26"/>
<path fill-rule="evenodd" clip-rule="evenodd" d="M26.0525 49.3097H26.6713L28.2493 50.8834V51.6548H27.4758L25.8978 50.0811V49.3097H26.0525Z" fill="#CF1A20"/>
<path fill-rule="evenodd" clip-rule="evenodd" d="M26.6017 51.6548H25.8978V50.8834L27.4758 49.3097H28.2493V50.0811L26.6713 51.6548H26.6017Z" fill="#EE2A26"/>
<path fill-rule="evenodd" clip-rule="evenodd" d="M26.0525 51.6548H26.6713L28.2493 53.2286V54H27.4758L25.8978 52.4263V51.6548H26.0525Z" fill="#CF1A20"/>
<path fill-rule="evenodd" clip-rule="evenodd" d="M26.6017 54H25.8978V53.2286L27.4758 51.6548H28.2493V52.4263L26.6713 54H26.6017Z" fill="#EE2A26"/>
<path fill-rule="evenodd" clip-rule="evenodd" d="M47.0925 21.2991V21.9086L48.6705 23.4823H49.444V22.7109L47.866 21.1371H47.0925V21.2991Z" fill="#CF1A20"/>
<path fill-rule="evenodd" clip-rule="evenodd" d="M49.444 21.8469V21.1371H48.6705L47.0925 22.7109V23.4823H47.866L49.444 21.9086V21.8469Z" fill="#EE2A26"/>
<path fill-rule="evenodd" clip-rule="evenodd" d="M47.0925 30.672V31.2814L48.6705 32.8552H49.444V32.0914L47.866 30.51H47.0925V30.672Z" fill="#CF1A20"/>
<path fill-rule="evenodd" clip-rule="evenodd" d="M49.444 31.2197V30.51H48.6705L47.0925 32.0914V32.8552H47.866L49.444 31.2814V31.2197Z" fill="#EE2A26"/>
<path fill-rule="evenodd" clip-rule="evenodd" d="M49.444 23.6443V24.2537L51.022 25.8274H51.7955V25.056L50.2175 23.4823H49.444V23.6443Z" fill="#CF1A20"/>
<path fill-rule="evenodd" clip-rule="evenodd" d="M51.7955 24.1843V23.4823H51.022L49.444 25.056V25.8274H50.2175L51.7955 24.2537V24.1843Z" fill="#EE2A26"/>
<path fill-rule="evenodd" clip-rule="evenodd" d="M49.444 28.3268V28.9363L51.022 30.51H51.7955V29.7463L50.2175 28.1725H49.444V28.3268Z" fill="#CF1A20"/>
<path fill-rule="evenodd" clip-rule="evenodd" d="M51.7955 28.8745V28.1725H51.022L49.444 29.7463V30.51H50.2175L51.7955 28.9363V28.8745Z" fill="#EE2A26"/>
<path fill-rule="evenodd" clip-rule="evenodd" d="M49.444 25.9817V26.5989L51.022 28.1726H51.7955V27.4012L50.2175 25.8275H49.444V25.9817Z" fill="#CF1A20"/>
<path fill-rule="evenodd" clip-rule="evenodd" d="M51.7955 26.5295V25.8275H51.022L49.444 27.4012V28.1726H50.2175L51.7955 26.5989V26.5295Z" fill="#EE2A26"/>
<path fill-rule="evenodd" clip-rule="evenodd" d="M51.7955 25.9817V26.5989L53.3735 28.1726H54.1471V27.4012L52.5691 25.8275H51.7955V25.9817Z" fill="#CF1A20"/>
<path fill-rule="evenodd" clip-rule="evenodd" d="M54.1471 26.5295V25.8275H53.3735L51.7955 27.4012V28.1726H52.5691L54.1471 26.5989V26.5295Z" fill="#EE2A26"/>
<path fill-rule="evenodd" clip-rule="evenodd" d="M75.218 34.4597C75.218 33.9968 75.3263 33.6188 75.5506 33.3103C75.6821 33.1251 75.9219 32.9014 76.2777 32.6314L76.4711 32.4848L76.6568 32.3228C76.796 32.1994 76.912 32.076 77.0049 31.9526C77.2215 31.644 77.3297 31.266 77.3297 30.8186V16.0997H75.218V34.4597ZM80.2692 15.3206C80.362 15.3206 80.4239 15.3591 80.4625 15.4363C80.478 15.4671 80.4857 15.498 80.4857 15.5288C80.4857 15.5751 80.4625 15.6214 80.4239 15.6677C80.1067 16.0303 79.952 16.6243 79.952 17.4266V28.9748C79.952 29.9468 79.7509 30.7568 79.3487 31.4126C79.0392 31.9063 78.5829 32.3383 77.9795 32.724C77.7939 32.8474 77.5386 32.994 77.206 33.1637L76.8347 33.3566L76.4866 33.5494C75.9838 33.858 75.6744 34.182 75.5429 34.5291C75.6048 34.506 75.6667 34.4906 75.7285 34.4906C75.8755 34.4906 75.9993 34.5446 76.0921 34.6371C76.2004 34.7451 76.2545 34.8763 76.2545 35.0151C76.2545 35.1617 76.2004 35.2851 76.0921 35.3854C75.9915 35.4857 75.8755 35.532 75.7285 35.532C75.5816 35.532 75.4578 35.478 75.3572 35.3854C75.2489 35.2851 75.1948 35.1617 75.1948 35.0151V39.474C75.1948 40.2763 75.3572 40.8626 75.6744 41.2328C75.7053 41.2714 75.7208 41.3177 75.7208 41.3563C75.7208 41.3871 75.7131 41.418 75.6976 41.4488C75.6667 41.5337 75.6048 41.5723 75.512 41.5723H72.2477C72.1548 41.5723 72.0929 41.526 72.0543 41.4488C72.0388 41.418 72.0311 41.3871 72.0311 41.3563C72.0311 41.3177 72.0543 41.2791 72.0929 41.2328C72.4101 40.8626 72.5648 40.2763 72.5648 39.474V17.4266C72.5648 16.6243 72.4101 16.0303 72.0929 15.6677C72.0543 15.6214 72.0311 15.5751 72.0311 15.5288C72.0311 15.498 72.0388 15.4671 72.0543 15.4363C72.0929 15.3591 72.1548 15.3206 72.2477 15.3206H80.2692Z" fill="#CF1A20"/>
<path fill-rule="evenodd" clip-rule="evenodd" d="M72.588 34.4597C72.588 33.9968 72.4797 33.6188 72.2554 33.3103C72.1239 33.1251 71.8841 32.9014 71.5283 32.6314L71.3349 32.4848L71.1492 32.3228C71.01 32.1994 70.894 32.076 70.8011 31.9526C70.5846 31.644 70.4763 31.266 70.4763 30.8186V16.0997H72.588V34.4597ZM67.5291 15.3206C67.4363 15.3206 67.3744 15.3591 67.3357 15.4363C67.3203 15.4671 67.3125 15.498 67.3125 15.5288C67.3125 15.5751 67.3357 15.6214 67.3744 15.6677C67.6916 16.0303 67.8463 16.6243 67.8463 17.4266V28.9748C67.8463 29.9468 68.0474 30.7568 68.4496 31.4126C68.759 31.9063 69.2154 32.3383 69.8188 32.724C70.0044 32.8474 70.2597 32.994 70.5923 33.1637L70.9636 33.3566L71.3117 33.5494C71.8145 33.858 72.1239 34.182 72.2554 34.5291C72.1935 34.506 72.1316 34.4906 72.0697 34.4906C71.9228 34.4906 71.799 34.5446 71.7062 34.6371C71.5979 34.7451 71.5437 34.8763 71.5437 35.0151C71.5437 35.1617 71.5979 35.2851 71.7062 35.3854C71.8067 35.4857 71.9228 35.532 72.0697 35.532C72.2167 35.532 72.3405 35.478 72.441 35.3854C72.5493 35.2851 72.6035 35.1617 72.6035 35.0151V39.474C72.6035 40.2763 72.441 40.8626 72.1162 41.2328C72.0852 41.2714 72.0697 41.3177 72.0697 41.3563C72.0697 41.3871 72.0775 41.418 72.0929 41.4488C72.1239 41.5337 72.1858 41.5723 72.2786 41.5723H75.5429C75.6357 41.5723 75.6976 41.526 75.7363 41.4488C75.7517 41.418 75.7595 41.3871 75.7595 41.3563C75.7595 41.3177 75.7363 41.2791 75.6976 41.2328C75.3804 40.8626 75.2257 40.2763 75.2257 39.474V17.4266C75.2257 16.6243 75.3804 16.0303 75.6976 15.6677C75.7363 15.6214 75.7595 15.5751 75.7595 15.5288C75.7595 15.498 75.7517 15.4671 75.7363 15.4363C75.6976 15.3591 75.6357 15.3206 75.5429 15.3206H67.5291Z" fill="#CF1A20"/>
<path fill-rule="evenodd" clip-rule="evenodd" d="M97.4802 12.42H101.278V13.5231H97.4802V12.42ZM100.335 35.0151C100.335 35.1617 100.28 35.2851 100.188 35.3854C100.087 35.4857 99.9632 35.532 99.8162 35.532C99.6693 35.532 99.5455 35.478 99.4372 35.3854C99.3366 35.2851 99.2825 35.1617 99.2825 35.0151C99.2825 34.8686 99.3366 34.7451 99.4372 34.6371C99.5455 34.5368 99.6693 34.4906 99.8162 34.4906C99.8704 34.4906 99.9323 34.4983 99.9864 34.5291C99.8858 34.236 99.6615 33.9737 99.3212 33.7346C99.1897 33.6343 99.0195 33.5263 98.8106 33.4106L98.5244 33.264L98.2228 33.102V38.7026C98.2228 39.2734 98.4316 39.7671 98.8416 40.1837C99.2593 40.5848 99.7543 40.7931 100.327 40.7931V35.0151H100.335ZM103.452 15.6677C103.135 16.0303 102.98 16.6243 102.98 17.4266V39.4817C102.98 40.284 103.135 40.8703 103.452 41.2406C103.491 41.2868 103.514 41.3331 103.514 41.364C103.514 41.3948 103.506 41.4257 103.49 41.4566C103.452 41.5414 103.382 41.58 103.297 41.58H100.35C99.0427 41.58 97.9288 41.1171 96.9928 40.1991C96.0723 39.2734 95.6082 38.1626 95.6082 36.8588V17.4266C95.6082 16.6243 95.4535 16.0303 95.1364 15.6677C95.0977 15.6214 95.0745 15.5751 95.0745 15.5288C95.0745 15.498 95.0822 15.4671 95.0977 15.4363C95.1364 15.3591 95.1983 15.3206 95.2911 15.3206H98.5476C98.6405 15.3206 98.7023 15.3591 98.7333 15.4363C98.7488 15.4748 98.7565 15.5057 98.7565 15.5366C98.7565 15.5828 98.741 15.6291 98.7101 15.6677C98.3852 16.0303 98.2228 16.6243 98.2228 17.4266V30.8186C98.2228 31.2737 98.3311 31.6517 98.5554 31.9526C98.6405 32.076 98.7488 32.1994 98.888 32.3228L99.0814 32.4848L99.2748 32.6314C99.6228 32.9014 99.8626 33.1251 100.002 33.3103C100.218 33.6188 100.327 33.9968 100.327 34.4597V17.4266C100.327 16.6243 100.172 16.0303 99.8549 15.6677C99.8162 15.6214 99.793 15.5751 99.793 15.5288C99.793 15.498 99.8008 15.4671 99.8162 15.4363C99.8549 15.3591 99.9168 15.3206 100.01 15.3206H103.274C103.367 15.3206 103.429 15.3591 103.467 15.4363C103.483 15.4671 103.49 15.498 103.49 15.5288C103.506 15.5751 103.491 15.6214 103.452 15.6677Z" fill="#CF1A20"/>
<path fill-rule="evenodd" clip-rule="evenodd" d="M123.355 23.0503C122.728 23.5826 122.024 23.9914 121.243 24.2846V33.5108L121.545 33.3488L121.839 33.2023C122.04 33.0866 122.21 32.9863 122.341 32.8937C122.689 32.6468 122.914 32.3768 123.007 32.0914C122.945 32.1146 122.891 32.13 122.836 32.13C122.689 32.13 122.566 32.076 122.457 31.9834C122.357 31.8831 122.31 31.7597 122.31 31.6131C122.31 31.4666 122.357 31.3431 122.457 31.2351C122.566 31.1348 122.689 31.0886 122.836 31.0886C122.983 31.0886 123.107 31.1426 123.208 31.2351C123.308 31.3431 123.355 31.4666 123.355 31.6131V23.0503ZM125.992 39.4817C125.992 40.284 126.147 40.8703 126.464 41.2406C126.503 41.2868 126.526 41.3331 126.526 41.364C126.526 41.3948 126.518 41.4257 126.503 41.4566C126.464 41.5414 126.402 41.58 126.31 41.58H123.045C122.952 41.58 122.891 41.5337 122.852 41.4566C122.836 41.4257 122.829 41.3948 122.829 41.364C122.829 41.3254 122.852 41.2868 122.891 41.2406C123.208 40.8703 123.362 40.284 123.362 39.4817V32.1608C123.362 32.6237 123.254 33.0017 123.038 33.3103C122.898 33.4954 122.659 33.7268 122.31 33.9814L122.117 34.1357L121.924 34.2977C121.784 34.4211 121.676 34.5446 121.591 34.6603C121.367 34.9688 121.258 35.3468 121.258 35.7943V38.9417C121.258 39.6746 121.003 40.2917 120.5 40.8086C119.982 41.3254 119.363 41.58 118.636 41.58H118.327C118.234 41.58 118.172 41.5337 118.133 41.4566C118.118 41.4257 118.11 41.3948 118.11 41.364C118.11 41.3254 118.133 41.2868 118.172 41.2406C118.489 40.8703 118.644 40.284 118.644 39.4817V26.0897C118.644 25.2874 118.489 24.6934 118.172 24.3308C118.133 24.2846 118.11 24.2383 118.11 24.1997C118.11 24.1688 118.118 24.138 118.133 24.1071C118.172 24.0223 118.242 23.9837 118.327 23.9837H118.636C120.121 23.9837 121.452 23.5363 122.635 22.6414C123.788 21.762 124.561 20.6203 124.964 19.2317C124.631 19.4246 124.283 19.5171 123.904 19.5171C123.324 19.5171 122.829 19.3088 122.419 18.9077C122.009 18.4911 121.8 17.9974 121.8 17.4266C121.8 16.8403 122.009 16.3466 122.419 15.93C122.829 15.5211 123.324 15.3206 123.904 15.3206C124.484 15.3206 124.979 15.5211 125.389 15.93C125.799 16.3388 126.008 16.8403 126.008 17.4266V39.4817H125.992Z" fill="#CF1A20"/>
<path fill-rule="evenodd" clip-rule="evenodd" d="M114.954 15.6677C114.637 16.0303 114.482 16.6243 114.482 17.4266V39.4817C114.482 40.284 114.637 40.8703 114.954 41.2406C114.993 41.2868 115.016 41.3331 115.016 41.364C115.016 41.3948 115.008 41.4257 114.993 41.4566C114.954 41.5414 114.885 41.58 114.8 41.58H111.535C111.442 41.58 111.381 41.5337 111.342 41.4566C111.326 41.4257 111.319 41.3948 111.319 41.364C111.319 41.3254 111.342 41.2868 111.381 41.2406C111.698 40.8703 111.852 40.284 111.852 39.4817V32.1608C111.852 32.6237 111.744 33.0017 111.527 33.3103C111.396 33.4954 111.156 33.7268 110.8 33.9814L110.607 34.1357L110.414 34.2977C110.274 34.4211 110.158 34.5446 110.081 34.6603C109.857 34.9688 109.748 35.3468 109.748 35.7943V39.474C109.748 40.2763 109.911 40.8626 110.228 41.2328C110.259 41.2714 110.274 41.3177 110.274 41.3563C110.274 41.3871 110.267 41.418 110.251 41.4488C110.22 41.5337 110.158 41.5723 110.066 41.5723H106.801C106.708 41.5723 106.647 41.526 106.608 41.4488C106.592 41.418 106.585 41.3871 106.585 41.3563C106.585 41.3177 106.608 41.2791 106.647 41.2328C106.964 40.8626 107.118 40.2763 107.118 39.474V17.4266C107.118 16.6243 106.964 16.0303 106.647 15.6677C106.608 15.6214 106.585 15.5751 106.585 15.5288C106.585 15.498 106.592 15.4671 106.608 15.4363C106.647 15.3591 106.708 15.3206 106.801 15.3206H110.066C110.158 15.3206 110.22 15.3591 110.251 15.4363C110.267 15.4748 110.274 15.5057 110.274 15.5366C110.274 15.5828 110.259 15.6291 110.228 15.6677C109.903 16.0303 109.748 16.6243 109.748 17.4266V33.5108L110.05 33.3488L110.336 33.2023C110.545 33.0866 110.715 32.9863 110.847 32.8937C111.195 32.6468 111.419 32.3768 111.512 32.0914C111.45 32.1146 111.396 32.13 111.342 32.13C111.195 32.13 111.071 32.076 110.963 31.9834C110.862 31.8831 110.816 31.7597 110.816 31.6131C110.816 31.4666 110.87 31.3431 110.963 31.2351C111.071 31.1348 111.203 31.0886 111.342 31.0886C111.481 31.0886 111.605 31.1426 111.713 31.2351C111.814 31.3431 111.86 31.4666 111.86 31.6131V17.4266C111.86 16.6243 111.705 16.0303 111.388 15.6677C111.35 15.6214 111.326 15.5751 111.326 15.5288C111.326 15.498 111.334 15.4671 111.35 15.4363C111.388 15.3591 111.45 15.3206 111.543 15.3206H114.807C114.9 15.3206 114.962 15.3591 115.001 15.4363C115.016 15.4671 115.024 15.498 115.024 15.5288C115.016 15.5751 114.993 15.6214 114.954 15.6677Z" fill="#CF1A20"/>
<path fill-rule="evenodd" clip-rule="evenodd" d="M88.8321 23.0503C88.2056 23.5826 87.5017 23.9914 86.7204 24.2846V33.5108L87.0221 33.3488L87.316 33.2023C87.5171 33.0866 87.6873 32.9863 87.8188 32.8937C88.1669 32.6468 88.3912 32.3768 88.484 32.0914C88.4222 32.1146 88.368 32.13 88.3139 32.13C88.1669 32.13 88.0431 32.076 87.9348 31.9834C87.8343 31.8831 87.7879 31.7597 87.7879 31.6131C87.7879 31.4666 87.8343 31.3431 87.9348 31.2351C88.0431 31.1348 88.1669 31.0886 88.3139 31.0886C88.4608 31.0886 88.5846 31.1426 88.6852 31.2351C88.7857 31.3431 88.8321 31.4666 88.8321 31.6131V23.0503ZM91.4699 39.4817C91.4699 40.284 91.6246 40.8703 91.9417 41.2406C91.9804 41.2868 92.0036 41.3331 92.0036 41.364C92.0036 41.3948 91.9959 41.4257 91.9804 41.4566C91.9417 41.5414 91.8798 41.58 91.787 41.58H88.5227C88.4299 41.58 88.368 41.5337 88.3293 41.4566C88.3139 41.4257 88.3061 41.3948 88.3061 41.364C88.3061 41.3254 88.3293 41.2868 88.368 41.2406C88.6852 40.8703 88.8399 40.284 88.8399 39.4817V32.1608C88.8399 32.6237 88.7316 33.0017 88.515 33.3103C88.3757 33.4954 88.1359 33.7268 87.7879 33.9814L87.5945 34.1357L87.4011 34.2977C87.2619 34.4211 87.1536 34.5446 87.0685 34.6603C86.8442 34.9688 86.7359 35.3468 86.7359 35.7943V38.9417C86.7359 39.6746 86.4806 40.2917 85.9778 40.8086C85.4595 41.3254 84.8407 41.58 84.1059 41.58H83.7965C83.7036 41.58 83.6417 41.5337 83.6031 41.4566C83.5876 41.4257 83.5799 41.3948 83.5799 41.364C83.5799 41.3254 83.6031 41.2868 83.6417 41.2406C83.9589 40.8703 84.1136 40.284 84.1136 39.4817V26.0897C84.1136 25.2874 83.9589 24.6934 83.6417 24.3308C83.6031 24.2846 83.5799 24.2383 83.5799 24.1997C83.5799 24.1688 83.5876 24.138 83.6031 24.1071C83.6417 24.0223 83.7114 23.9837 83.7965 23.9837H84.1059C85.591 23.9837 86.9215 23.5363 88.105 22.6414C89.2576 21.762 90.0311 20.6203 90.4333 19.2317C90.1007 19.4246 89.7526 19.5171 89.3736 19.5171C88.7935 19.5171 88.2984 19.3088 87.8884 18.9077C87.4785 18.4911 87.2696 17.9974 87.2696 17.4266C87.2696 16.8403 87.4785 16.3466 87.8884 15.93C88.2984 15.5211 88.7935 15.3206 89.3736 15.3206C89.9537 15.3206 90.4488 15.5211 90.8588 15.93C91.2687 16.3388 91.4776 16.8403 91.4776 17.4266V39.4817H91.4699Z" fill="#CF1A20"/>
<path fill-rule="evenodd" clip-rule="evenodd" d="M232.956 20.0417C232.956 21.0137 232.755 21.8237 232.361 22.4794C232.051 22.9808 231.595 23.4128 230.991 23.7908C230.806 23.9143 230.55 24.0608 230.218 24.2228L229.847 24.4157L229.498 24.6086C228.996 24.9171 228.686 25.2411 228.555 25.5883C228.617 25.5651 228.678 25.5497 228.74 25.5497C228.887 25.5497 229.011 25.6037 229.104 25.6963C229.212 25.8043 229.266 25.9354 229.266 26.0743C229.266 26.2208 229.212 26.3443 229.104 26.4446C229.003 26.5448 228.887 26.5911 228.74 26.5911C228.593 26.5911 228.47 26.5371 228.369 26.4446C228.261 26.3443 228.207 26.2208 228.207 26.0743V28.1803C228.207 29.484 228.671 30.5948 229.599 31.5128C230.527 32.4386 231.641 32.9014 232.956 32.9014H233.266C233.358 32.9014 233.42 32.94 233.459 33.0171C233.474 33.048 233.482 33.0788 233.482 33.1097C233.482 33.156 233.459 33.2023 233.42 33.2486C233.103 33.6188 232.948 34.2051 232.948 35.0074V39.4663C232.948 40.2686 233.103 40.8548 233.42 41.2251C233.459 41.2714 233.482 41.3177 233.482 41.3486C233.482 41.3794 233.474 41.4103 233.459 41.4411C233.42 41.526 233.351 41.5646 233.266 41.5646H232.956C232.221 41.5646 231.602 41.31 231.084 40.7931C230.566 40.2763 230.311 39.6591 230.311 38.9263V33.0171C229.429 32.5311 228.725 31.8677 228.207 31.0037V39.4508C228.207 40.2531 228.369 40.8394 228.694 41.2097C228.725 41.2483 228.74 41.2946 228.74 41.3331C228.74 41.364 228.733 41.3948 228.717 41.4257C228.686 41.5106 228.624 41.5491 228.532 41.5491H225.267C225.174 41.5491 225.113 41.5028 225.074 41.4257C225.058 41.3948 225.051 41.364 225.051 41.3331C225.051 41.2946 225.074 41.256 225.113 41.2097C225.43 40.8394 225.584 40.2531 225.584 39.4508V17.4266C225.584 16.6243 225.43 16.0303 225.113 15.6677C225.074 15.6214 225.051 15.5751 225.051 15.5288C225.051 15.498 225.058 15.4671 225.074 15.4363C225.113 15.3591 225.174 15.3206 225.267 15.3206H228.532C228.624 15.3206 228.686 15.3591 228.717 15.4363C228.733 15.4748 228.74 15.5057 228.74 15.5366C228.74 15.5828 228.725 15.6291 228.694 15.6677C228.369 16.0303 228.207 16.6243 228.207 17.4266V25.5266C228.207 25.0714 228.315 24.6857 228.539 24.3771C228.671 24.192 228.911 23.9683 229.266 23.6983L229.46 23.5517L229.645 23.3897C229.785 23.2663 229.901 23.1428 229.993 23.0271C230.21 22.7186 230.318 22.3406 230.318 21.8854V17.9434C230.318 17.2183 230.574 16.6088 231.092 16.092C231.61 15.5751 232.229 15.3206 232.964 15.3206H233.273C233.366 15.3206 233.428 15.3591 233.467 15.4363C233.482 15.4671 233.49 15.498 233.49 15.5288C233.49 15.5751 233.467 15.6214 233.428 15.6677C233.111 16.0303 232.956 16.6243 232.956 17.4266V20.0417ZM241.829 23.0503C241.202 23.5826 240.498 23.9914 239.717 24.2846V33.5108L240.018 33.3488L240.312 33.2023C240.514 33.0866 240.684 32.9863 240.815 32.8937C241.163 32.6468 241.388 32.3768 241.48 32.0914C241.419 32.1146 241.364 32.13 241.31 32.13C241.163 32.13 241.04 32.076 240.931 31.9834C240.831 31.8831 240.784 31.7597 240.784 31.6131C240.784 31.4666 240.831 31.3431 240.931 31.2351C241.04 31.1348 241.163 31.0886 241.31 31.0886C241.457 31.0886 241.581 31.1426 241.682 31.2351C241.782 31.3431 241.829 31.4666 241.829 31.6131V23.0503ZM244.466 39.4817C244.466 40.284 244.621 40.8703 244.938 41.2406C244.977 41.2868 245 41.3331 245 41.364C245 41.3948 244.992 41.4257 244.977 41.4566C244.938 41.5414 244.876 41.58 244.783 41.58H241.519C241.426 41.58 241.364 41.5337 241.326 41.4566C241.31 41.4257 241.303 41.3948 241.303 41.364C241.303 41.3254 241.326 41.2868 241.364 41.2406C241.682 40.8703 241.836 40.284 241.836 39.4817V32.1608C241.836 32.6237 241.728 33.0017 241.511 33.3103C241.372 33.4954 241.132 33.7268 240.784 33.9814L240.591 34.1357L240.397 34.2977C240.258 34.4211 240.15 34.5446 240.065 34.6603C239.841 34.9688 239.732 35.3468 239.732 35.7943V38.9417C239.732 39.6746 239.477 40.2917 238.974 40.8086C238.456 41.3254 237.837 41.58 237.102 41.58H236.793C236.7 41.58 236.638 41.5337 236.599 41.4566C236.584 41.4257 236.576 41.3948 236.576 41.364C236.576 41.3254 236.599 41.2868 236.638 41.2406C236.955 40.8703 237.11 40.284 237.11 39.4817V26.0897C237.11 25.2874 236.955 24.6934 236.638 24.3308C236.599 24.2846 236.576 24.2383 236.576 24.1997C236.576 24.1688 236.584 24.138 236.599 24.1071C236.638 24.0223 236.708 23.9837 236.793 23.9837H237.102C238.587 23.9837 239.918 23.5363 241.101 22.6414C242.254 21.762 243.027 20.6203 243.43 19.2317C243.097 19.4246 242.749 19.5171 242.37 19.5171C241.79 19.5171 241.295 19.3088 240.885 18.9077C240.475 18.4911 240.266 17.9974 240.266 17.4266C240.266 16.8403 240.475 16.3466 240.885 15.93C241.295 15.5211 241.79 15.3206 242.37 15.3206C242.95 15.3206 243.445 15.5211 243.855 15.93C244.265 16.3388 244.474 16.8403 244.474 17.4266V39.4817H244.466ZM142.848 25.5266C142.848 25.0714 142.956 24.6857 143.18 24.3771C143.312 24.192 143.552 23.9683 143.907 23.6983L144.101 23.5517L144.286 23.3897C144.426 23.2663 144.542 23.1428 144.635 23.0271C144.851 22.7186 144.959 22.3406 144.959 21.8854V16.1074H142.848V25.5266ZM144.952 33.0403C144.07 32.5543 143.366 31.8908 142.84 31.0268V40.7854H144.952V33.0403ZM147.589 20.0417C147.589 21.0137 147.388 21.8237 146.994 22.4794C146.684 22.9808 146.228 23.4128 145.617 23.7908C145.431 23.9143 145.176 24.0608 144.843 24.2228L144.472 24.4157L144.124 24.6086C143.621 24.9171 143.312 25.2411 143.18 25.5883C143.242 25.5651 143.304 25.5497 143.366 25.5497C143.513 25.5497 143.637 25.6037 143.729 25.6963C143.838 25.8043 143.892 25.9354 143.892 26.0743C143.892 26.2208 143.838 26.3443 143.729 26.4446C143.629 26.5448 143.513 26.5911 143.366 26.5911C143.219 26.5911 143.095 26.5371 142.995 26.4446C142.886 26.3443 142.832 26.2208 142.832 26.0743V28.1803C142.832 29.484 143.296 30.5948 144.225 31.5128C145.153 32.4386 146.267 32.9014 147.582 32.9014H147.891C147.984 32.9014 148.046 32.94 148.084 33.0171C148.1 33.048 148.108 33.0788 148.108 33.1097C148.108 33.156 148.084 33.2023 148.046 33.2486C147.729 33.6188 147.574 34.2051 147.574 35.0074V39.4663C147.574 40.2686 147.729 40.8548 148.046 41.2251C148.084 41.2714 148.108 41.3177 148.108 41.3486C148.108 41.3794 148.1 41.4103 148.084 41.4411C148.046 41.526 147.976 41.5646 147.891 41.5646H139.893C139.8 41.5646 139.738 41.5183 139.699 41.4411C139.684 41.4103 139.676 41.3794 139.676 41.3486C139.676 41.31 139.699 41.2714 139.738 41.2251C140.055 40.8548 140.21 40.2686 140.21 39.4663V17.4266C140.21 16.6243 140.055 16.0303 139.738 15.6677C139.699 15.6214 139.676 15.5751 139.676 15.5288C139.676 15.498 139.684 15.4671 139.699 15.4363C139.738 15.3591 139.8 15.3206 139.893 15.3206H147.891C147.984 15.3206 148.046 15.3591 148.084 15.4363C148.1 15.4671 148.108 15.498 148.108 15.5288C148.108 15.5751 148.084 15.6214 148.046 15.6677C147.729 16.0303 147.574 16.6243 147.574 17.4266V20.0417H147.589ZM156.462 35.0151C156.462 35.1617 156.408 35.2851 156.315 35.3854C156.214 35.4857 156.091 35.532 155.944 35.532C155.797 35.532 155.673 35.478 155.564 35.3854C155.464 35.2851 155.41 35.1617 155.41 35.0151C155.41 34.8686 155.464 34.7451 155.564 34.6371C155.673 34.5368 155.797 34.4906 155.944 34.4906C155.998 34.4906 156.06 34.4983 156.114 34.5291C156.013 34.236 155.789 33.9737 155.448 33.7346C155.317 33.6343 155.147 33.5263 154.938 33.4106L154.652 33.264L154.35 33.102V38.7026C154.35 39.2734 154.559 39.7671 154.969 40.1837C155.387 40.5848 155.882 40.7931 156.454 40.7931V35.0151H156.462ZM159.571 15.6677C159.254 16.0303 159.1 16.6243 159.1 17.4266V39.4817C159.1 40.284 159.254 40.8703 159.571 41.2406C159.61 41.2868 159.633 41.3331 159.633 41.364C159.633 41.3948 159.626 41.4257 159.61 41.4566C159.571 41.5414 159.502 41.58 159.417 41.58H156.47C155.162 41.58 154.048 41.1248 153.112 40.1991C152.192 39.2734 151.736 38.1626 151.736 36.8588V17.4266C151.736 16.6243 151.581 16.0303 151.264 15.6677C151.225 15.6214 151.202 15.5751 151.202 15.5288C151.202 15.498 151.21 15.4671 151.225 15.4363C151.264 15.3591 151.326 15.3206 151.418 15.3206H154.683C154.775 15.3206 154.837 15.3591 154.868 15.4363C154.884 15.4748 154.892 15.5057 154.892 15.5366C154.892 15.5828 154.876 15.6291 154.845 15.6677C154.52 16.0303 154.358 16.6243 154.358 17.4266V30.8186C154.358 31.2737 154.466 31.6517 154.69 31.9526C154.775 32.076 154.884 32.1994 155.023 32.3228L155.216 32.4848L155.41 32.6314C155.758 32.9014 155.998 33.1251 156.137 33.3103C156.354 33.6188 156.462 33.9968 156.462 34.4597V17.4266C156.462 16.6243 156.307 16.0303 155.99 15.6677C155.951 15.6214 155.928 15.5751 155.928 15.5288C155.928 15.498 155.936 15.4671 155.951 15.4363C155.99 15.3591 156.052 15.3206 156.145 15.3206H159.409C159.502 15.3206 159.564 15.3591 159.602 15.4363C159.618 15.4671 159.626 15.498 159.626 15.5288C159.633 15.5751 159.61 15.6214 159.571 15.6677ZM170.857 40.7854H172.59C172.729 40.446 172.799 40.0063 172.799 39.474V17.4266C172.799 16.6243 172.644 16.0303 172.327 15.6677C172.288 15.6214 172.265 15.5751 172.265 15.5288C172.265 15.498 172.273 15.4671 172.288 15.4363C172.327 15.3591 172.389 15.3206 172.482 15.3206H175.746C175.839 15.3206 175.901 15.3591 175.932 15.4363C175.947 15.4748 175.955 15.5057 175.955 15.5366C175.955 15.5828 175.939 15.6291 175.908 15.6677C175.583 16.0303 175.429 16.6243 175.429 17.4266V39.4817C175.429 40.284 175.591 40.8703 175.908 41.2406C175.939 41.2791 175.955 41.3254 175.955 41.364C175.955 41.3948 175.947 41.4257 175.932 41.4566C175.901 41.5414 175.839 41.58 175.746 41.58H174.988H172.489H172.482H170.973H170.965H167.972H167.918H167.848H167.809C166.572 41.5414 165.504 41.0863 164.615 40.1991C163.694 39.2734 163.238 38.1626 163.238 36.8588V31.0037V30.0934V17.4266C163.238 16.6243 163.083 16.038 162.766 15.6677C162.727 15.6214 162.704 15.5751 162.704 15.5288C162.704 15.498 162.712 15.4671 162.727 15.4363C162.766 15.3591 162.828 15.3206 162.921 15.3206H166.185C166.278 15.3206 166.34 15.3591 166.371 15.4363C166.386 15.4748 166.394 15.5057 166.394 15.5366C166.394 15.5828 166.378 15.6291 166.348 15.6677C166.03 16.0303 165.86 16.6243 165.86 17.4266V30.0934V30.8108V30.834V31.0037V33.102V37.098V38.7026C165.86 39.2734 166.069 39.7671 166.479 40.1837C166.881 40.5771 167.361 40.7777 167.91 40.7931C167.933 40.7083 167.949 40.6157 167.964 40.5231V37.1057V40.5231C168.011 40.23 168.011 39.8828 168.011 39.4817V17.4266C168.011 16.6243 167.856 16.0303 167.539 15.6677C167.5 15.6214 167.477 15.5751 167.477 15.5288C167.477 15.498 167.485 15.4671 167.5 15.4363C167.539 15.3591 167.601 15.3206 167.693 15.3206H170.958C171.051 15.3206 171.112 15.3591 171.143 15.4363C171.159 15.4748 171.167 15.5057 171.167 15.5366C171.167 15.5828 171.151 15.6291 171.12 15.6677C170.795 16.0303 170.641 16.6243 170.641 17.4266V39.4817C170.641 40.014 170.71 40.446 170.857 40.7854ZM184.293 35.0151C184.293 35.1617 184.239 35.2851 184.146 35.3854C184.046 35.4857 183.922 35.532 183.775 35.532C183.628 35.532 183.504 35.478 183.396 35.3854C183.296 35.2851 183.241 35.1617 183.241 35.0151C183.241 34.8686 183.296 34.7451 183.396 34.6371C183.504 34.5368 183.628 34.4906 183.775 34.4906C183.829 34.4906 183.891 34.4983 183.945 34.5291C183.845 34.236 183.62 33.9737 183.28 33.7346C183.149 33.6343 182.978 33.5263 182.77 33.4106L182.483 33.264L182.182 33.102V38.7026C182.182 39.2734 182.391 39.7671 182.8 40.1837C183.218 40.5848 183.713 40.7931 184.286 40.7931V35.0151H184.293ZM187.403 15.6677C187.086 16.0303 186.931 16.6243 186.931 17.4266V39.4817C186.931 40.284 187.086 40.8703 187.403 41.2406C187.442 41.2868 187.465 41.3331 187.465 41.364C187.465 41.3948 187.457 41.4257 187.442 41.4566C187.403 41.5414 187.333 41.58 187.248 41.58H184.301C182.994 41.58 181.88 41.1248 180.944 40.1991C180.023 39.2734 179.567 38.1626 179.567 36.8588V17.4266C179.567 16.6243 179.412 16.0303 179.095 15.6677C179.057 15.6214 179.033 15.5751 179.033 15.5288C179.033 15.498 179.041 15.4671 179.057 15.4363C179.095 15.3591 179.157 15.3206 179.25 15.3206H182.514C182.607 15.3206 182.669 15.3591 182.7 15.4363C182.715 15.4748 182.723 15.5057 182.723 15.5366C182.723 15.5828 182.708 15.6291 182.677 15.6677C182.352 16.0303 182.189 16.6243 182.189 17.4266V30.8186C182.189 31.2737 182.298 31.6517 182.522 31.9526C182.607 32.076 182.715 32.1994 182.855 32.3228L183.048 32.4848L183.241 32.6314C183.589 32.9014 183.829 33.1251 183.969 33.3103C184.185 33.6188 184.293 33.9968 184.293 34.4597V17.4266C184.293 16.6243 184.139 16.0303 183.822 15.6677C183.783 15.6214 183.76 15.5751 183.76 15.5288C183.76 15.498 183.767 15.4671 183.783 15.4363C183.822 15.3591 183.883 15.3206 183.976 15.3206H187.241C187.333 15.3206 187.395 15.3591 187.434 15.4363C187.449 15.4671 187.457 15.498 187.457 15.5288C187.465 15.5751 187.442 15.6214 187.403 15.6677ZM193.692 25.5266C193.692 25.0714 193.8 24.6857 194.024 24.3771C194.156 24.192 194.396 23.9683 194.752 23.6983L194.945 23.5517L195.131 23.3897C195.27 23.2663 195.386 23.1428 195.479 23.0271C195.695 22.7186 195.804 22.3406 195.804 21.8854V16.1074H193.692V25.5266ZM195.796 33.0403C194.914 32.5543 194.21 31.8908 193.684 31.0268V40.7854H195.796V33.0403ZM198.441 20.0417C198.441 21.0137 198.24 21.8237 197.846 22.4794C197.536 22.9808 197.08 23.4128 196.469 23.7908C196.283 23.9143 196.028 24.0608 195.695 24.2228L195.324 24.4157L194.976 24.6086C194.473 24.9171 194.164 25.2411 194.032 25.5883C194.094 25.5651 194.156 25.5497 194.218 25.5497C194.365 25.5497 194.489 25.6037 194.581 25.6963C194.69 25.8043 194.744 25.9354 194.744 26.0743C194.744 26.2208 194.69 26.3443 194.581 26.4446C194.481 26.5448 194.365 26.5911 194.218 26.5911C194.071 26.5911 193.947 26.5371 193.846 26.4446C193.738 26.3443 193.684 26.2208 193.684 26.0743V28.1803C193.684 29.484 194.148 30.5948 195.076 31.5128C196.005 32.4386 197.118 32.9014 198.434 32.9014H198.743C198.836 32.9014 198.898 32.94 198.936 33.0171C198.952 33.048 198.959 33.0788 198.959 33.1097C198.959 33.156 198.936 33.2023 198.898 33.2486C198.58 33.6188 198.426 34.2051 198.426 35.0074V39.4663C198.426 40.2686 198.58 40.8548 198.898 41.2251C198.936 41.2714 198.959 41.3177 198.959 41.3486C198.959 41.3794 198.952 41.4103 198.936 41.4411C198.898 41.526 198.828 41.5646 198.743 41.5646H190.752C190.66 41.5646 190.598 41.5183 190.559 41.4411C190.544 41.4103 190.536 41.3794 190.536 41.3486C190.536 41.31 190.559 41.2714 190.598 41.2251C190.915 40.8548 191.069 40.2686 191.069 39.4663V17.4266C191.069 16.6243 190.915 16.0303 190.598 15.6677C190.559 15.6214 190.536 15.5751 190.536 15.5288C190.536 15.498 190.544 15.4671 190.559 15.4363C190.598 15.3591 190.66 15.3206 190.752 15.3206H198.751C198.843 15.3206 198.905 15.3591 198.944 15.4363C198.96 15.4671 198.967 15.498 198.967 15.5288C198.967 15.5751 198.944 15.6214 198.905 15.6677C198.588 16.0303 198.434 16.6243 198.434 17.4266V20.0417H198.441ZM207.306 23.0503C206.679 23.5826 205.975 23.9914 205.194 24.2846V33.5108L205.496 33.3488L205.79 33.2023C205.991 33.0866 206.161 32.9863 206.293 32.8937C206.641 32.6468 206.865 32.3768 206.958 32.0914C206.896 32.1146 206.842 32.13 206.788 32.13C206.641 32.13 206.517 32.076 206.409 31.9834C206.308 31.8831 206.262 31.7597 206.262 31.6131C206.262 31.4666 206.308 31.3431 206.409 31.2351C206.517 31.1348 206.641 31.0886 206.788 31.0886C206.935 31.0886 207.058 31.1426 207.159 31.2351C207.259 31.3431 207.306 31.4666 207.306 31.6131V23.0503ZM209.944 39.4817C209.944 40.284 210.098 40.8703 210.415 41.2406C210.454 41.2868 210.477 41.3331 210.477 41.364C210.477 41.3948 210.47 41.4257 210.454 41.4566C210.415 41.5414 210.354 41.58 210.261 41.58H206.996C206.904 41.58 206.842 41.5337 206.803 41.4566C206.788 41.4257 206.78 41.3948 206.78 41.364C206.78 41.3254 206.803 41.2868 206.842 41.2406C207.159 40.8703 207.314 40.284 207.314 39.4817V32.1608C207.314 32.6237 207.205 33.0017 206.989 33.3103C206.85 33.4954 206.61 33.7268 206.262 33.9814L206.068 34.1357L205.875 34.2977C205.736 34.4211 205.627 34.5446 205.542 34.6603C205.318 34.9688 205.21 35.3468 205.21 35.7943V38.9417C205.21 39.6746 204.954 40.2917 204.452 40.8086C203.933 41.3254 203.314 41.58 202.587 41.58H202.278C202.185 41.58 202.123 41.5337 202.085 41.4566C202.069 41.4257 202.061 41.3948 202.061 41.364C202.061 41.3254 202.085 41.2868 202.123 41.2406C202.44 40.8703 202.595 40.284 202.595 39.4817V26.0897C202.595 25.2874 202.44 24.6934 202.123 24.3308C202.085 24.2846 202.061 24.2383 202.061 24.1997C202.061 24.1688 202.069 24.138 202.085 24.1071C202.123 24.0223 202.193 23.9837 202.278 23.9837H202.587C204.073 23.9837 205.403 23.5363 206.587 22.6414C207.739 21.762 208.513 20.6203 208.915 19.2317C208.582 19.4246 208.234 19.5171 207.855 19.5171C207.275 19.5171 206.78 19.3088 206.37 18.9077C205.96 18.4911 205.751 17.9974 205.751 17.4266C205.751 16.8403 205.96 16.3466 206.37 15.93C206.78 15.5211 207.275 15.3206 207.855 15.3206C208.435 15.3206 208.93 15.5211 209.34 15.93C209.75 16.3388 209.959 16.8403 209.959 17.4266V39.4817H209.944ZM221.926 15.6677C221.608 16.0303 221.454 16.6243 221.454 17.4266V39.4817C221.454 40.284 221.608 40.8703 221.926 41.2406C221.964 41.2868 221.987 41.3331 221.987 41.364C221.987 41.3948 221.98 41.4257 221.964 41.4566C221.926 41.5414 221.856 41.58 221.771 41.58H218.507C218.414 41.58 218.352 41.5337 218.313 41.4566C218.298 41.4257 218.29 41.3948 218.29 41.364C218.29 41.3254 218.313 41.2868 218.352 41.2406C218.669 40.8703 218.824 40.284 218.824 39.4817V32.1608C218.824 32.6237 218.715 33.0017 218.499 33.3103C218.367 33.4954 218.128 33.7268 217.772 33.9814L217.578 34.1357L217.385 34.2977C217.246 34.4211 217.13 34.5446 217.052 34.6603C216.828 34.9688 216.72 35.3468 216.72 35.7943V39.474C216.72 40.2763 216.882 40.8626 217.207 41.2328C217.238 41.2714 217.253 41.3177 217.253 41.3563C217.253 41.3871 217.246 41.418 217.23 41.4488C217.199 41.5337 217.137 41.5723 217.045 41.5723H213.78C213.688 41.5723 213.626 41.526 213.587 41.4488C213.571 41.418 213.564 41.3871 213.564 41.3563C213.564 41.3177 213.587 41.2791 213.626 41.2328C213.943 40.8626 214.097 40.2763 214.097 39.474V17.4266C214.097 16.6243 213.943 16.0303 213.626 15.6677C213.587 15.6214 213.564 15.5751 213.564 15.5288C213.564 15.498 213.571 15.4671 213.587 15.4363C213.626 15.3591 213.688 15.3206 213.78 15.3206H217.045C217.137 15.3206 217.199 15.3591 217.23 15.4363C217.246 15.4748 217.253 15.5057 217.253 15.5366C217.253 15.5828 217.238 15.6291 217.207 15.6677C216.882 16.0303 216.72 16.6243 216.72 17.4266V33.5108L217.021 33.3488L217.308 33.2023C217.516 33.0866 217.687 32.9863 217.818 32.8937C218.166 32.6468 218.391 32.3768 218.483 32.0914C218.422 32.1146 218.367 32.13 218.313 32.13C218.166 32.13 218.042 32.076 217.934 31.9834C217.834 31.8831 217.787 31.7597 217.787 31.6131C217.787 31.4666 217.841 31.3431 217.934 31.2351C218.042 31.1348 218.166 31.0886 218.313 31.0886C218.452 31.0886 218.576 31.1426 218.684 31.2351C218.785 31.3431 218.831 31.4666 218.831 31.6131V17.4266C218.831 16.6243 218.677 16.0303 218.36 15.6677C218.321 15.6214 218.298 15.5751 218.298 15.5288C218.298 15.498 218.305 15.4671 218.321 15.4363C218.36 15.3591 218.421 15.3206 218.514 15.3206H221.779C221.871 15.3206 221.933 15.3591 221.972 15.4363C221.987 15.4671 221.995 15.498 221.995 15.5288C221.98 15.5751 221.964 15.6214 221.926 15.6677Z" fill="#CF1A20"/>
</svg>
