<svg width="30" height="30" viewBox="0 0 30 30" fill="none" xmlns="http://www.w3.org/2000/svg">
<path d="M15 3C8.53368 3 3.27271 8.38333 3.27271 15C3.27271 21.6167 8.53368 27 15 27C21.4663 27 26.7272 21.6167 26.7272 15C26.7272 8.38333 21.4663 3 15 3ZM15 25.9565C9.09554 25.9565 4.29245 21.0417 4.29245 15C4.29245 8.95825 9.09554 4.04346 15 4.04346C20.9044 4.04346 25.7075 8.95825 25.7075 15C25.7075 21.0417 20.9044 25.9565 15 25.9565Z" fill="black"/>
<path d="M15 14.4783C11.3452 14.4783 8.37152 17.5211 8.37152 21.261C8.37152 21.549 8.59996 21.7827 8.88142 21.7827C9.16287 21.7827 9.39132 21.5489 9.39132 21.2609C9.39132 18.096 11.9071 15.5218 15 15.5218C18.0929 15.5218 20.6087 18.096 20.6087 21.2609C20.6087 21.5489 20.8371 21.7827 21.1186 21.7827C21.4 21.7827 21.6285 21.5489 21.6285 21.2609C21.6285 17.5211 18.6549 14.4783 15 14.4783Z" fill="black"/>
<path d="M15 6.13043C13.0318 6.13043 11.4308 7.76868 11.4308 9.78263C11.4308 11.7966 13.0318 13.4348 15 13.4348C16.9681 13.4348 18.5692 11.7965 18.5692 9.78263C18.5692 7.76873 16.9681 6.13043 15 6.13043ZM15 12.3913C13.5948 12.3913 12.4506 11.2205 12.4506 9.78263C12.4506 8.34473 13.5948 7.17394 15 7.17394C16.4052 7.17394 17.5494 8.34473 17.5494 9.78263C17.5494 11.2205 16.4052 12.3913 15 12.3913Z" fill="black"/>
<g clip-path="url(#clip0)">
<path fill-rule="evenodd" clip-rule="evenodd" d="M13.9982 17.1282L13.9982 17.6482L15.34 18.99L15.9901 18.99L15.9947 18.3354L14.6529 16.9936L13.9982 16.9982L13.9982 17.1282Z" fill="#CF1A20"/>
<path fill-rule="evenodd" clip-rule="evenodd" d="M15.9901 17.5972L15.9947 16.9982L15.34 16.9936L13.9982 18.3354L13.9982 18.9947L14.6529 18.99L15.9947 17.6482L15.9901 17.5972Z" fill="#EE2A26"/>
<path fill-rule="evenodd" clip-rule="evenodd" d="M13.983 19.1329L13.983 19.6529L15.3248 20.9947L15.9794 20.99L15.9794 20.34L14.6376 18.9982L13.983 18.9936L13.983 19.1329Z" fill="#414042"/>
<path fill-rule="evenodd" clip-rule="evenodd" d="M15.9794 19.5972L15.9748 18.9982H15.3248L13.983 20.34L13.983 20.99L14.6376 20.9947L15.9794 19.6529L15.9794 19.5972Z" fill="#58595B"/>
</g>
<defs>
<clipPath id="clip0">
<rect width="8.46367" height="8.46367" fill="white" transform="translate(18.9694 19.9847) rotate(135)"/>
</clipPath>
</defs>
</svg>
