<svg width="8" height="9" viewBox="0 0 8 9" fill="none" xmlns="http://www.w3.org/2000/svg">
<path d="M7.93422 6.42C7.93422 6.52 7.91422 6.65 7.87422 6.81C7.83422 6.97 7.79422 7.09667 7.75422 7.19C7.68089 7.37667 7.45422 7.57667 7.07422 7.79C6.72755 7.97667 6.38422 8.07 6.04422 8.07C5.94422 8.07 5.84422 8.06333 5.74422 8.05C5.64422 8.03667 5.53755 8.01333 5.42422 7.98L5.16422 7.9L4.57422 7.69C4.21422 7.55667 3.89089 7.4 3.60422 7.22C3.13089 6.92667 2.63755 6.52667 2.12422 6.02C1.61089 5.51333 1.21089 5.02 0.924219 4.54C0.744219 4.25333 0.590885 3.93 0.464219 3.57L0.364219 3.29C0.310885 3.13667 0.270885 3.03333 0.244219 2.98C0.217552 2.92667 0.190885 2.84 0.164219 2.72L0.0942188 2.4C0.0742188 2.30667 0.0675521 2.21 0.0742188 2.11C0.0742188 1.76333 0.170885 1.41667 0.364219 1.07C0.570885 0.69 0.767552 0.463333 0.954219 0.39C1.04755 0.35 1.17422 0.31 1.33422 0.269999C1.49422 0.23 1.62422 0.21 1.72422 0.21C1.77755 0.21 1.81755 0.216666 1.84422 0.23C1.91089 0.25 2.01089 0.39 2.14422 0.65L2.30422 0.959999C2.37089 1.09333 2.43755 1.21 2.50422 1.31C2.57089 1.41 2.62755 1.51 2.67422 1.61C2.68755 1.62333 2.72089 1.67 2.77422 1.75C2.82755 1.83 2.86755 1.89667 2.89422 1.95C2.92089 2.00333 2.93422 2.05667 2.93422 2.11C2.93422 2.18333 2.88089 2.27333 2.77422 2.38C2.66755 2.48667 2.55089 2.59 2.42422 2.69C2.29755 2.79 2.18422 2.89 2.08422 2.99C1.98422 3.09 1.93089 3.17333 1.92422 3.24C1.92422 3.27333 1.93422 3.31667 1.95422 3.37L1.99422 3.48C2.00089 3.5 2.02755 3.54667 2.07422 3.62C2.12089 3.69333 2.14422 3.72667 2.14422 3.72C2.42422 4.23333 2.74755 4.67333 3.11422 5.04C3.48089 5.40667 3.91755 5.73 4.42422 6.01C4.43089 6.01 4.46422 6.03 4.52422 6.07C4.58422 6.11 4.63089 6.13667 4.66422 6.15L4.77422 6.2C4.81422 6.22 4.85755 6.22667 4.90422 6.22C4.97089 6.22 5.05422 6.16667 5.15422 6.06C5.25422 5.95333 5.35422 5.84 5.45422 5.72C5.55422 5.6 5.65755 5.48333 5.76422 5.37C5.87089 5.25667 5.96422 5.20333 6.04422 5.21C6.09089 5.21 6.14089 5.22333 6.19422 5.25C6.24755 5.27667 6.31422 5.31667 6.39422 5.37C6.47422 5.42333 6.52089 5.45667 6.53422 5.47L7.49422 6.01C7.75422 6.13667 7.89422 6.23333 7.91422 6.3C7.92755 6.32667 7.93422 6.36667 7.93422 6.42Z" fill="#BDBDBD"/>
</svg>
