<svg width="30" height="30" viewBox="0 0 30 30" fill="none" xmlns="http://www.w3.org/2000/svg">
<rect width="30" height="30" rx="15" fill="#F2F2F2"/>
<path d="M20.0977 12.6914C19.9805 12.2227 19.6094 11.8516 19.1602 11.7344C18.3203 11.5 15 11.5 15 11.5C15 11.5 11.6602 11.5 10.8203 11.7344C10.3711 11.8516 10 12.2227 9.88281 12.6914C9.64844 13.5117 9.64844 15.2695 9.64844 15.2695C9.64844 15.2695 9.64844 17.0078 9.88281 17.8477C10 18.3164 10.3711 18.668 10.8203 18.7852C11.6602 19 15 19 15 19C15 19 18.3203 19 19.1602 18.7852C19.6094 18.668 19.9805 18.3164 20.0977 17.8477C20.332 17.0078 20.332 15.2695 20.332 15.2695C20.332 15.2695 20.332 13.5117 20.0977 12.6914ZM13.9062 16.8516V13.6875L16.6797 15.2695L13.9062 16.8516Z" fill="black"/>
</svg>
